<?xml version="1.0" encoding="UTF-8" standalone="no"?>
<svg
   width="48"
   height="48"
   viewBox="0 0 48 48"
   id="svg2"
   version="1.1"
   inkscape:version="1.2.2 (b0a8486541, 2022-12-01)"
   sodipodi:docname="dyn.svg"
   xmlns:inkscape="http://www.inkscape.org/namespaces/inkscape"
   xmlns:sodipodi="http://sodipodi.sourceforge.net/DTD/sodipodi-0.dtd"
   xmlns="http://www.w3.org/2000/svg"
   xmlns:svg="http://www.w3.org/2000/svg"
   xmlns:rdf="http://www.w3.org/1999/02/22-rdf-syntax-ns#"
   xmlns:cc="http://creativecommons.org/ns#"
   xmlns:dc="http://purl.org/dc/elements/1.1/">
  <metadata
     id="metadata12">
    <rdf:RDF>
      <cc:Work
         rdf:about="">
        <dc:format>image/svg+xml</dc:format>
        <dc:type
           rdf:resource="http://purl.org/dc/dcmitype/StillImage" />
        <dc:title />
      </cc:Work>
    </rdf:RDF>
  </metadata>
  <defs
     id="defs10">
    <marker
       inkscape:stockid="Arrow1Lstart"
       orient="auto"
       refY="0.0"
       refX="0.0"
       id="Arrow1Lstart"
       style="overflow:visible"
       inkscape:isstock="true">
      <path
         id="path4598"
         d="M 0.0,0.0 L 5.0,-5.0 L -12.5,0.0 L 5.0,5.0 L 0.0,0.0 z "
         style="fill-rule:evenodd;stroke:#000000;stroke-width:1.0pt"
         transform="scale(0.8) translate(12.5,0)" />
    </marker>
  </defs>
  <sodipodi:namedview
     pagecolor="#ffffff"
     bordercolor="#666666"
     borderopacity="1"
     objecttolerance="10"
     gridtolerance="10"
     guidetolerance="10"
     inkscape:pageopacity="0"
     inkscape:pageshadow="2"
     inkscape:window-width="2509"
     inkscape:window-height="1012"
     id="namedview8"
     showgrid="false"
     inkscape:zoom="13.822917"
     inkscape:cx="1.7000753"
     inkscape:cy="31.469479"
     inkscape:window-x="51"
     inkscape:window-y="31"
     inkscape:window-maximized="1"
     inkscape:current-layer="g901"
     inkscape:showpageshadow="2"
     inkscape:pagecheckerboard="0"
     inkscape:deskcolor="#d1d1d1" />
  <g
     id="g4150">
    <g
       id="g901"
       transform="matrix(1.0739294,0,0,1.0739294,69.498537,31.871502)">
      <path
         style="fill:none;fill-rule:evenodd;stroke:#00ccff;stroke-width:1.38006;stroke-linecap:round;stroke-linejoin:miter;stroke-miterlimit:4;stroke-dasharray:none;stroke-opacity:1"
         d="m -63.416345,2.7216497 c 0,0 0.89635,-18.5543157 2.52704,-18.5816827 1.687925,-0.02837 1.357634,22.1569087 3.14988,22.1607102 1.327899,0.00352 1.489716,-17.5556722 2.922821,-17.6019132 1.009226,-0.03252 1.640183,14.2669199 2.990291,14.2411543 0.9489,-0.017951 1.430172,-10.027307 2.855953,-10.044896 1.023397,-0.01264 2.204608,7.88075999 3.502636,7.84992569 1.08991,-0.026047 2.241092,-6.27700099 3.330902,-6.23978169 0.947241,0.032348 1.388886,5.03048019 2.556198,5.03927989 0.893226,0.00669 1.782141,-4.73695629 2.902092,-4.76786799 0.808568,-0.022386 1.115828,3.7618438 1.969275,3.7410588 0.59796,-0.014396 1.116066,-2.3994866 2.010737,-2.3650515 0.630434,0.024323 1.037989,0.9345317 1.658338,0.9460417 0.808982,0.015171 1.596028,-0.3127003 2.404584,-0.3440308 0.885557,-0.034178 1.767599,0.143323 2.65334,0.171996 0.71826,0.023161 2.155839,0 2.155839,0 l 2.342408,-0.021647"
         id="path4166"
         inkscape:connector-curvature="0"
         sodipodi:nodetypes="cssssssssssssaacc" />
    </g>
    <g
       transform="translate(1.0067283,-25.887299)"
       id="g4144" />
  </g>
</svg>
