<?xml version="1.0" encoding="UTF-8" standalone="no"?>
<svg
   width="48"
   height="48"
   viewBox="0 0 48 48"
   version="1.1"
   id="svg6"
   sodipodi:docname="to_cgmes.svg"
   inkscape:version="1.1.2 (0a00cf5339, 2022-02-04)"
   xmlns:inkscape="http://www.inkscape.org/namespaces/inkscape"
   xmlns:sodipodi="http://sodipodi.sourceforge.net/DTD/sodipodi-0.dtd"
   xmlns="http://www.w3.org/2000/svg"
   xmlns:svg="http://www.w3.org/2000/svg"
   xmlns:rdf="http://www.w3.org/1999/02/22-rdf-syntax-ns#"
   xmlns:cc="http://creativecommons.org/ns#"
   xmlns:dc="http://purl.org/dc/elements/1.1/">
  <metadata
     id="metadata12">
    <rdf:RDF>
      <cc:Work
         rdf:about="">
        <dc:format>image/svg+xml</dc:format>
        <dc:type
           rdf:resource="http://purl.org/dc/dcmitype/StillImage" />
      </cc:Work>
    </rdf:RDF>
  </metadata>
  <defs
     id="defs10" />
  <sodipodi:namedview
     pagecolor="#ffffff"
     bordercolor="#666666"
     borderopacity="1"
     objecttolerance="10"
     gridtolerance="10"
     guidetolerance="10"
     inkscape:pageopacity="0"
     inkscape:pageshadow="2"
     inkscape:window-width="1571"
     inkscape:window-height="752"
     id="namedview8"
     showgrid="false"
     inkscape:zoom="3.0052038"
     inkscape:cx="-47.916883"
     inkscape:cy="26.786869"
     inkscape:window-x="711"
     inkscape:window-y="459"
     inkscape:window-maximized="0"
     inkscape:current-layer="svg6"
     inkscape:pagecheckerboard="0" />
  <path
     d="M0 0h48v48h-48z"
     id="path2"
     fill="none" />
  <g
     id="g860"
     transform="matrix(0.28090161,0,0,0.28090161,31.974468,25.602758)">
    <path
       class="st3"
       d="m -38.60294,-31.45841 c -15.5,8.2 -26.9,22 -27.1,34.9 0.2,15.4 16.2,31.9 36.2,38.9 -1.7,-12.2 -9,-61.7 -9.1,-73.8 z"
       id="path240"
       style="fill:#4a4a89" />
    <path
       class="st4"
       d="m 17.09706,-20.15841 c -14.1,-4.7 -30.6,-1.3 -42.2,10.1 -4,4.1 -7,8.8 -9,13.7 9.8,13.5 28.2,23.1 44.9,23.1 2.4,0 4.7,-0.2 6.9,-0.5 3.9,-6.4 6.3,-14.1 6.3,-22.8 0,-9 -2.6,-17.1 -6.9,-23.6 z"
       id="path242"
       style="fill:#24316a" />
    <path
       class="st5"
       d="m 16.89706,-19.95841 c 5.6,1.8 8.4,6 12.8,10.3 4.8,4.8 11.1,10.3 13.7,17.5 3.6,-6.8 5.6,-15.2 5.6,-25 0,-27.2 -12.8,-57.6 -54.4,-42.6 -20.6,7.5 -29.5,18.8 -33.2,28.3 4.5,-2.4 9.9,-2.5 14.9,-3.8 15.2,-4 31.4,1.3 40.6,15.3 z"
       id="path244"
       style="fill:#9899c6" />
    <path
       class="st6"
       d="m 17.49706,26.04159 c -11.3,13.9 -26,21.8 -41.4,17.6 -1.8,-0.5 -3.8,-0.7 -5.5,-1.3 1.2,1.6 2.4,3.1 3.9,4.5 15.2,15.2 47.3,21.7 63.4,5.8 10.8,-11 11.3,-29.4 5.6,-44.8 -5.4,10.1 -15.9,14.9 -26,18.2 z"
       id="path246"
       style="fill:#515ca2" />
    <path
       class="st7"
       d="m 16.89706,-19.95841 c 4.2,6.5 6.8,14.4 6.8,23.4 0,8.6 -2.4,16.3 -6.3,22.6 11.6,-1.8 20.6,-8.1 26,-18.2 -2.6,-7.2 -6.6,-13.7 -11.4,-18.6 -4.4,-4.3 -9.5,-7.3 -15.1,-9.2 z"
       id="path248"
       style="fill:#2c3779" />
    <path
       class="st7"
       d="m -40.70294,-14.05841 c 0.4,6.3 3,12.3 6.9,17.8 2,-4.9 5,-9.6 9,-13.6 11.5,-11.3 27.8,-14.6 41.8,-10 -9.2,-14.1 -26.1,-21.2 -41.2,-17.1 -5,1.3 -9.8,3.2 -14.3,5.6 -3.8,9.5 -2.2,17.3 -2.2,17.3 z"
       id="path250"
       style="fill:#2c3779" />
    <path
       class="st7"
       d="m 17.49706,26.04159 c -2.2,0.3 -4.4,0.5 -6.8,0.5 -16.6,0 -34.8,-9.5 -44.5,-22.9 -5.2,12.8 -3.8,27.6 4.4,38.8 1.7,0.6 3.5,1.2 5.2,1.6 15.4,4.2 32.6,-3.3 41.7,-18 z"
       id="path252"
       style="fill:#2c3779" />
    <path
       class="st9"
       d="m 0.29706,14.74159 10.9,1.3 c -1.7,6.4 -4.9,11.3 -9.5,14.8 -4.6,3.5 -10.6,5.3 -17.8,5.3 -9.1,0 -16.3,-2.8 -21.6,-8.4 -5.3,-5.6 -8,-13.5 -8,-23.6 0,-10.5 2.7,-18.6 8.1,-24.4 5.4,-5.8 12.4,-8.7 21,-8.7 8.3,0 15.1,2.8 20.4,8.5 5.3,5.7 7.9,13.6 7.9,23.9 0,0.6 0,1.6 -0.1,2.8 h -46.4 c 0.4,6.8 2.3,12.1 5.8,15.7 3.5,3.6 7.8,5.4 13,5.4 3.9,0 7.2,-1 9.9,-3 2.6,-1.9 4.8,-5.2 6.4,-9.6 z m -34.6,-17 h 34.7 c -0.5,-5.2 -1.8,-9.2 -4,-11.8 -3.4,-4.1 -7.7,-6.1 -13.1,-6.1 -4.8,0 -8.9,1.6 -12.2,4.9 -3.2,3.2 -5.1,7.5 -5.4,13 z"
       id="path264"
       style="fill:#fcc40f" />
  </g>
  <path
     style="fill:#37c8ab;stroke-width:0.217166"
     d="m 4.210728,22.823048 h 3.90899 V 20.271999 17.72095 l 4.50555,4.505545 4.50554,4.505547 -4.50554,4.505545 -4.50555,4.505547 V 33.192083 30.641035 H 4.210728 0.30173802 v -3.908993 -3.908994 z"
     id="path817"
     inkscape:connector-curvature="0"
     sodipodi:nodetypes="ccccccccccccccc" />
</svg>
