<?xml version="1.0" encoding="UTF-8" standalone="no"?>
<!-- Created with Inkscape (http://www.inkscape.org/) -->

<svg
   version="1.1"
   id="svg2"
   width="192"
   height="192"
   viewBox="0 0 192 192"
   sodipodi:docname="to_psse.svg"
   inkscape:version="1.1.2 (0a00cf5339, 2022-02-04)"
   xml:space="preserve"
   xmlns:inkscape="http://www.inkscape.org/namespaces/inkscape"
   xmlns:sodipodi="http://sodipodi.sourceforge.net/DTD/sodipodi-0.dtd"
   xmlns="http://www.w3.org/2000/svg"
   xmlns:svg="http://www.w3.org/2000/svg"
   xmlns:rdf="http://www.w3.org/1999/02/22-rdf-syntax-ns#"
   xmlns:cc="http://creativecommons.org/ns#"
   xmlns:dc="http://purl.org/dc/elements/1.1/"><metadata
     id="metadata8"><rdf:RDF><cc:Work
         rdf:about=""><dc:format>image/svg+xml</dc:format><dc:type
           rdf:resource="http://purl.org/dc/dcmitype/StillImage" /></cc:Work></rdf:RDF></metadata><defs
     id="defs6" /><sodipodi:namedview
     pagecolor="#ffffff"
     bordercolor="#666666"
     borderopacity="1"
     objecttolerance="10"
     gridtolerance="10"
     guidetolerance="10"
     inkscape:pageopacity="0"
     inkscape:pageshadow="2"
     inkscape:window-width="1871"
     inkscape:window-height="1001"
     id="namedview4"
     showgrid="false"
     inkscape:zoom="1.0625"
     inkscape:cx="61.17647"
     inkscape:cy="-65.882353"
     inkscape:window-x="136"
     inkscape:window-y="114"
     inkscape:window-maximized="0"
     inkscape:current-layer="svg2"
     inkscape:showpageshadow="2"
     inkscape:pagecheckerboard="0"
     inkscape:deskcolor="#d1d1d1" /><g
     id="g2678"
     transform="matrix(0.55320042,0,0,0.59846942,71.020305,194.04411)"><path
       style="opacity:1;fill:#0066ff;fill-opacity:1;stroke-width:2.11176;paint-order:stroke fill markers"
       d="m 23.837619,-39.213637 c -2.322935,-0.980768 -6.204202,-1.179152 -9.107857,-4.3034 -1.759793,-1.893485 -5.6744111,-8.840713 -5.6744111,-8.840713 V -164.06992 -275.7821 c 0,0 0.134385,-6.59047 4.9745161,-10.70601 3.683865,-3.13236 8.826087,-3.10161 8.826087,-3.10161 l 55.396413,-0.59881 55.396423,-0.5988 38.61332,38.70512 38.61333,38.70513 -0.60177,80.64128 -0.60177,80.641299 c 0,0 -2.20181,6.508531 -4.53166,8.87686 -2.45442,2.494982 -9.27206,4.926555 -9.27206,4.926555 l -83.90353,0.430319 c -46.146941,0.236687 -85.804098,-0.372116 -88.127031,-1.35287 z M 191.72201,-202.5039 c 0,-0.30357 -15.67978,-16.2101 -34.84393,-35.34787 l -34.84394,-34.79592 v 35.34787 35.34787 h 34.84394 c 19.16415,0 34.84393,-0.24839 34.84393,-0.55195 z"
       id="path817"
       inkscape:connector-curvature="0"
       sodipodi:nodetypes="cscccscccccccscscsscccss" /><g
       id="g2568"
       transform="matrix(0.9128977,0,0,0.64716112,24.343284,-37.486011)"><g
         id="g1140"
         style="fill:#ffffff;stroke:none"
         transform="translate(407.30746,32.477612)"><rect
           style="opacity:1;fill:#ffffff;stroke:none;stroke-width:1.17752"
           id="rect1011"
           width="123.59569"
           height="139.93283"
           x="-375.9761"
           y="-226.0116"
           ry="11.583521" /><rect
           style="opacity:1;fill:#ffffff;stroke:none"
           id="rect1013"
           width="48.907463"
           height="38.208954"
           x="-366.80597"
           y="-220.08357" /><rect
           style="fill:#ffffff;stroke:none"
           id="rect1013-4"
           width="48.907463"
           height="38.208954"
           x="-310.72836"
           y="-219.76704" /><rect
           style="fill:#ffffff;stroke:none"
           id="rect1013-6"
           width="48.907463"
           height="38.208954"
           x="-366.3588"
           y="-174.88535" /><rect
           style="fill:#ffffff;stroke:none"
           id="rect1013-4-6"
           width="48.907463"
           height="38.208954"
           x="-310.28119"
           y="-174.56882" /><rect
           style="fill:#ffffff;stroke:none"
           id="rect1013-1"
           width="48.907463"
           height="38.208954"
           x="-365.81845"
           y="-130.41977" /><rect
           style="fill:#ffffff;stroke:none"
           id="rect1013-4-5"
           width="48.907463"
           height="38.208954"
           x="-309.74084"
           y="-130.41977" /></g></g></g><path
     style="fill:#37c8ab;stroke-width:0.953274"
     d="M 19.042899,86.797213 H 36.784857 V 75.967079 65.136944 L 57.234456,84.264628 77.684009,103.39232 57.234456,122.52001 36.784857,141.6477 V 130.81756 119.98743 H 19.042899 1.3009406 V 103.39232 86.797213 Z"
     id="path817-2"
     inkscape:connector-curvature="0"
     sodipodi:nodetypes="ccccccccccccccc" /></svg>
