<?xml version="1.0" encoding="UTF-8" standalone="no"?>
<!-- Created with Inkscape (http://www.inkscape.org/) -->

<svg
   width="512"
   height="512"
   viewBox="0 0 135.46666 135.46667"
   version="1.1"
   id="svg5"
   xml:space="preserve"
   inkscape:version="1.1.2 (0a00cf5339, 2022-02-04)"
   sodipodi:docname="to_roseta.svg"
   xmlns:inkscape="http://www.inkscape.org/namespaces/inkscape"
   xmlns:sodipodi="http://sodipodi.sourceforge.net/DTD/sodipodi-0.dtd"
   xmlns="http://www.w3.org/2000/svg"
   xmlns:svg="http://www.w3.org/2000/svg"><sodipodi:namedview
     id="namedview7"
     pagecolor="#ffffff"
     bordercolor="#000000"
     borderopacity="0.25"
     inkscape:showpageshadow="2"
     inkscape:pageopacity="0.0"
     inkscape:pagecheckerboard="0"
     inkscape:deskcolor="#d1d1d1"
     inkscape:document-units="mm"
     showgrid="false"
     inkscape:zoom="0.37282197"
     inkscape:cx="-179.71044"
     inkscape:cy="277.61239"
     inkscape:window-width="2495"
     inkscape:window-height="1016"
     inkscape:window-x="65"
     inkscape:window-y="27"
     inkscape:window-maximized="1"
     inkscape:current-layer="g5998"
     inkscape:pageshadow="2" /><defs
     id="defs2" /><g
     inkscape:label="Layer 1"
     inkscape:groupmode="layer"
     id="layer1"><g
       id="g5998"
       transform="translate(79.009279,-56.968548)"><g
         id="g844"
         transform="matrix(0.82821219,0,0,0.82821219,24.004336,24.136954)"><path
           style="fill:#00222b;fill-opacity:1;stroke-width:0.264583"
           d="m -55.19995,94.34173 9.785448,-7.527267 1.505452,-4.014541 2.509089,-0.25091 8.530899,-6.52363 12.294534,-5.519994 13.7999865,-4.51636 10.03635,-2.00727 11.7927205,1.003636 2.76,0.752727 2.00727,3.010905 4.26545,20.574526 8.02908,17.061808 3.76364,10.28726 1.25454,41.14905 -8.27999,10.53817 -14.0509,10.53818 -8.2799905,3.76363 -6.77453999,0.25091 -4.76727001,0.75272 h -3.0109 l -4.0145395,1.25455 -5.519999,-0.50182 -4.265451,1.50545 -8.781809,-1.25454 -9.785448,1.25454 -6.27272,0.50182 -7.276357,-2.50909 -1.505452,-1.50545 -1.756363,-3.76363 0.501817,-10.53818 -0.752726,-9.28362 1.003636,-2.00727 1.254543,-17.81453 -1.254543,-5.26909 1.003636,-3.26181 -0.50182,-3.76364 z"
           id="path412" /><path
           style="fill:none;fill-opacity:1;stroke:#ffffff;stroke-width:4;stroke-linecap:round;stroke-dasharray:none;stroke-opacity:1"
           d="m -45.163594,103.12354 7.778176,-3.01091 6.021811,1.50546 12.796352,-1.756367 5.519995,-1.756362 c 0,0 13.54907771,2.258179 15.0545308,2.509089 1.5054531,0.25091 13.7999872,-2.759996 13.7999872,-2.759996 l 3.512724,-0.501819"
           id="path4455" /><path
           style="fill:none;fill-opacity:1;stroke:#ffffff;stroke-width:4;stroke-linecap:round;stroke-dasharray:none;stroke-opacity:1"
           d="m -44.536321,118.80534 7.778175,-3.01091 6.021811,1.50546 12.796352,-1.75636 5.519995,-1.75636 c 0,0 13.5490783,2.25817 15.0545313,2.50908 1.505453,0.25091 13.7999867,-2.75999 13.7999867,-2.75999 l 3.512724,-0.50182"
           id="path4455-8" /><path
           style="fill:none;fill-opacity:1;stroke:#ffffff;stroke-width:4;stroke-linecap:round;stroke-dasharray:none;stroke-opacity:1"
           d="m -38.2636,147.40896 7.778176,-3.01091 6.021811,1.50546 12.796352,-1.75637 5.519995,-1.75636 c 0,0 13.5490781,2.25818 15.0545311,2.50909 1.5054529,0.25091 13.7999869,-2.76 13.7999869,-2.76 l 3.512724,-0.50182"
           id="path4455-5" /><path
           style="fill:none;fill-opacity:1;stroke:#ffffff;stroke-width:4;stroke-linecap:round;stroke-dasharray:none;stroke-opacity:1"
           d="m -43.783595,149.16532 7.778176,-3.01091 6.021811,1.50546 12.796352,-1.75637 5.519995,-1.75636 c 0,0 13.5490773,2.25818 15.0545304,2.50909 1.5054532,0.25091 13.7999876,-2.76 13.7999876,-2.76 l 3.512724,-0.50182"
           id="path4455-3" /><path
           style="fill:none;fill-opacity:1;stroke:#ffffff;stroke-width:4;stroke-linecap:round;stroke-dasharray:none;stroke-opacity:1"
           d="m -44.285414,164.21985 7.778176,-3.01091 6.021811,1.50546 12.796352,-1.75637 5.519995,-1.75636 c 0,0 13.5490784,2.25818 15.0545314,2.50909 1.505453,0.25091 13.7999866,-2.76 13.7999866,-2.76 l 3.512724,-0.50181"
           id="path4455-38" /><path
           style="fill:none;fill-opacity:1;stroke:#ffffff;stroke-width:4;stroke-linecap:round;stroke-dasharray:none;stroke-opacity:1"
           d="m -32.743606,85.685379 c 3.592875,-0.713706 -1.589798,-0.332789 6.52363,-0.501814 l 3.763633,-0.501826 5.519995,-1.75636 c 0,0 13.5490781,2.25818 15.0545311,2.50909 1.50545298,0.25091 13.7999869,-2.76 13.7999869,-2.76 l 3.512724,-0.50182"
           id="path4455-4"
           sodipodi:nodetypes="ccccscc" /></g><path
         style="fill:#37c8ab;stroke-width:0.663953"
         d="m -64.552216,122.80721 h 13.496067 v -6.90667 -6.90657 l 15.555868,12.19814 15.555743,12.19814 -15.555743,12.19814 -15.555868,12.19825 v -6.90668 -6.90657 h -13.496067 -13.4962 v -10.58314 -10.58304 z"
         id="path817"
         inkscape:connector-curvature="0"
         sodipodi:nodetypes="ccccccccccccccc" /></g></g></svg>
