<?xml version="1.0" encoding="UTF-8" standalone="no"?>
<!-- Created with Inkscape (http://www.inkscape.org/) -->

<svg
   xmlns:dc="http://purl.org/dc/elements/1.1/"
   xmlns:cc="http://creativecommons.org/ns#"
   xmlns:rdf="http://www.w3.org/1999/02/22-rdf-syntax-ns#"
   xmlns:svg="http://www.w3.org/2000/svg"
   xmlns="http://www.w3.org/2000/svg"
   xmlns:sodipodi="http://sodipodi.sourceforge.net/DTD/sodipodi-0.dtd"
   xmlns:inkscape="http://www.inkscape.org/namespaces/inkscape"
   version="1.1"
   id="svg2"
   width="192"
   height="192"
   viewBox="0 0 192 192"
   sodipodi:docname="copy2down.svg"
   inkscape:version="0.92.3 (2405546, 2018-03-11)">
  <metadata
     id="metadata8">
    <rdf:RDF>
      <cc:Work
         rdf:about="">
        <dc:format>image/svg+xml</dc:format>
        <dc:type
           rdf:resource="http://purl.org/dc/dcmitype/StillImage" />
        <dc:title />
      </cc:Work>
    </rdf:RDF>
  </metadata>
  <defs
     id="defs6" />
  <sodipodi:namedview
     pagecolor="#ffffff"
     bordercolor="#666666"
     borderopacity="1"
     objecttolerance="10"
     gridtolerance="10"
     guidetolerance="10"
     inkscape:pageopacity="0"
     inkscape:pageshadow="2"
     inkscape:window-width="1863"
     inkscape:window-height="1025"
     id="namedview4"
     showgrid="false"
     inkscape:zoom="1.2291667"
     inkscape:cx="-328.06314"
     inkscape:cy="96.000009"
     inkscape:window-x="57"
     inkscape:window-y="27"
     inkscape:window-maximized="1"
     inkscape:current-layer="g820" />
  <path
     style="fill:#999999;stroke-width:1.33333337"
     d="m 53.118644,179.49816 c -1.46666,-0.62009 -4.16666,-2.7414 -6,-4.71401 l -3.33333,-3.58656 V 108.66398 46.130379 l 4.35897,-4.358975 4.35898,-4.358974 h 50.615376 50.61539 l 4.35897,4.358974 4.35897,4.358975 v 62.615381 62.61539 l -4.35758,4.35897 -4.3576,4.35897 -48.97574,0.27327 c -26.936656,0.15029 -50.175736,-0.23409 -51.642406,-0.8542 z m 93.999996,-70.7524 V 52.745763 h -44 -43.999996 v 55.999997 56 h 43.999996 44 z M 11.412064,73.437035 l 0.37325,-59.308728 4.35767,-4.3579395 4.35768,-4.3579381 51.30899,-0.3786652 51.308986,-0.3786654 v 8.0453322 8.045332 h -47.999996 -48 v 56 55.999997 h -8.03992 -8.03991 z"
     id="path817"
     inkscape:connector-curvature="0" />
  <g
     id="g820"
     transform="matrix(-4,0,0,-4,-202.16948,208.67797)">
    <path
       id="path2"
       d="M 0,0 H 48 V 48 H 0 Z"
       inkscape:connector-curvature="0"
       style="fill:none" />
    <path
       inkscape:connector-curvature="0"
       id="path4489"
       d="m -82.714559,29.629973 13.037829,0.118525 -6.755966,-11.496992 z"
       style="fill:#37c8ab;fill-rule:evenodd;stroke:#37c8ab;stroke-width:1.16550279;stroke-linecap:butt;stroke-linejoin:round;stroke-miterlimit:4;stroke-dasharray:none;stroke-opacity:1" />
  </g>
</svg>
