<?xml version="1.0" encoding="UTF-8" standalone="no"?>
<!-- Created with Inkscape (http://www.inkscape.org/) -->

<svg
   version="1.1"
   id="svg2"
   width="192"
   height="192"
   viewBox="0 0 192 192"
   sodipodi:docname="area_transfer.svg"
   inkscape:version="1.1 (c68e22c387, 2021-05-23)"
   xmlns:inkscape="http://www.inkscape.org/namespaces/inkscape"
   xmlns:sodipodi="http://sodipodi.sourceforge.net/DTD/sodipodi-0.dtd"
   xmlns="http://www.w3.org/2000/svg"
   xmlns:svg="http://www.w3.org/2000/svg"
   xmlns:rdf="http://www.w3.org/1999/02/22-rdf-syntax-ns#"
   xmlns:cc="http://creativecommons.org/ns#"
   xmlns:dc="http://purl.org/dc/elements/1.1/">
  <metadata
     id="metadata8">
    <rdf:RDF>
      <cc:Work
         rdf:about="">
        <dc:format>image/svg+xml</dc:format>
        <dc:type
           rdf:resource="http://purl.org/dc/dcmitype/StillImage" />
        <dc:title />
      </cc:Work>
    </rdf:RDF>
  </metadata>
  <defs
     id="defs6" />
  <sodipodi:namedview
     pagecolor="#ffffff"
     bordercolor="#666666"
     borderopacity="1"
     objecttolerance="10"
     gridtolerance="10"
     guidetolerance="10"
     inkscape:pageopacity="0"
     inkscape:pageshadow="2"
     inkscape:window-width="1858"
     inkscape:window-height="1057"
     id="namedview4"
     showgrid="false"
     inkscape:zoom="3.2578125"
     inkscape:cx="45.275779"
     inkscape:cy="109.1223"
     inkscape:window-x="54"
     inkscape:window-y="-8"
     inkscape:window-maximized="1"
     inkscape:current-layer="g833"
     inkscape:pagecheckerboard="0" />
  <g
     id="g893"
     transform="matrix(0.34525501,0,0,0.34525501,12.167256,11.139857)">
    <g
       id="g835">
	<g
   id="g833">
		<path
   d="m 356.7,0.45 h -43.8 c -6.8,0 -12.3,5.5 -12.3,12.3 0,6.8 5.5,12.2 12.3,12.2 h 43.8 c 39.4,0 71.5,32.1 71.5,71.5 v 61.9 L 412,142.15 c -4.8,-4.8 -12.5,-4.8 -17.3,0 -4.8,4.8 -4.8,12.5 0,17.3 l 37.1,37.1 c 2.3,2.3 5.4,3.6 8.7,3.6 3.2,0 6.4,-1.3 8.7,-3.6 l 37.1,-37.1 c 4.8,-4.8 4.8,-12.5 0,-17.3 -4.8,-4.8 -12.5,-4.8 -17.3,0 l -16.2,16.2 v -61.9 c -0.1,-52.9 -43.2,-96 -96.1,-96 z"
   id="path825"
   style="fill:#37abc8" />

		<path
   d="M 238.8,227.95 V 13.65 c 0,-6.8 -5.5,-12.3 -12.3,-12.3 H 12.3 C 5.5,1.35 0,6.85 0,13.65 v 214.3 c 0,6.8 5.5,12.3 12.3,12.3 h 214.3 c 6.7,-0.1 12.2,-5.6 12.2,-12.3 z m -24.5,-12.3 H 24.5 V 25.95 h 189.8 z"
   id="path827"
   style="fill:#37abc8" />

		<path
   d="m 133.1,489.45 h 43.8 c 6.8,0 12.3,-5.5 12.3,-12.3 0,-6.8 -5.5,-12.2 -12.3,-12.2 h -43.8 c -39.4,0 -71.5,-32.1 -71.5,-71.5 v -61.9 l 16.2,16.2 c 2.4,2.4 5.5,3.6 8.7,3.6 3.2,0 6.3,-1.2 8.7,-3.6 4.8,-4.8 4.8,-12.5 0,-17.3 l -37.1,-37.1 c -2.3,-2.3 -5.4,-3.6 -8.7,-3.6 -3.2,0 -6.4,1.3 -8.7,3.6 l -37.1,37.1 c -4.8,4.8 -4.8,12.5 0,17.3 4.8,4.8 12.5,4.8 17.3,0 l 16.2,-16.2 v 61.9 c 0,52.9 43.1,96 96,96 z"
   id="path829"
   style="fill:#37c8ab" />

		<path
   d="m 263.2,488.45 h 214.3 c 6.8,0 12.3,-5.5 12.3,-12.3 v -214.2 c 0,-6.8 -5.5,-12.3 -12.3,-12.3 H 263.2 c -6.8,0 -12.3,5.5 -12.3,12.3 v 214.3 c 0.1,6.8 5.6,12.2 12.3,12.2 z m 12.3,-214.2 h 189.8 v 189.7 H 275.5 Z"
   id="path831"
   style="fill:#37c8ab" />

	</g>

</g>
    <g
       id="g837">
</g>
    <g
       id="g839">
</g>
    <g
       id="g841">
</g>
    <g
       id="g843">
</g>
    <g
       id="g845">
</g>
    <g
       id="g847">
</g>
    <g
       id="g849">
</g>
    <g
       id="g851">
</g>
    <g
       id="g853">
</g>
    <g
       id="g855">
</g>
    <g
       id="g857">
</g>
    <g
       id="g859">
</g>
    <g
       id="g861">
</g>
    <g
       id="g863">
</g>
    <g
       id="g865">
</g>
  </g>
</svg>
