<?xml version="1.0" encoding="UTF-8" standalone="no"?>
<!-- Created with Inkscape (http://www.inkscape.org/) -->

<svg
   xmlns:dc="http://purl.org/dc/elements/1.1/"
   xmlns:cc="http://creativecommons.org/ns#"
   xmlns:rdf="http://www.w3.org/1999/02/22-rdf-syntax-ns#"
   xmlns:svg="http://www.w3.org/2000/svg"
   xmlns="http://www.w3.org/2000/svg"
   xmlns:sodipodi="http://sodipodi.sourceforge.net/DTD/sodipodi-0.dtd"
   xmlns:inkscape="http://www.inkscape.org/namespaces/inkscape"
   version="1.1"
   id="svg2"
   width="192"
   height="192"
   viewBox="0 0 192 192"
   sodipodi:docname="chip.svg"
   inkscape:version="0.92.2 (5c3e80d, 2017-08-06)">
  <metadata
     id="metadata8">
    <rdf:RDF>
      <cc:Work
         rdf:about="">
        <dc:format>image/svg+xml</dc:format>
        <dc:type
           rdf:resource="http://purl.org/dc/dcmitype/StillImage" />
        <dc:title />
      </cc:Work>
    </rdf:RDF>
  </metadata>
  <defs
     id="defs6" />
  <sodipodi:namedview
     pagecolor="#ffffff"
     bordercolor="#666666"
     borderopacity="1"
     objecttolerance="10"
     gridtolerance="10"
     guidetolerance="10"
     inkscape:pageopacity="0"
     inkscape:pageshadow="2"
     inkscape:window-width="784"
     inkscape:window-height="480"
     id="namedview4"
     showgrid="false"
     inkscape:zoom="1.2291667"
     inkscape:cx="-47.999997"
     inkscape:cy="96.000003"
     inkscape:window-x="57"
     inkscape:window-y="27"
     inkscape:window-maximized="0"
     inkscape:current-layer="svg2" />
  <path
     style="fill:#999999;stroke-width:1.33333337"
     d="m 69.559322,161.76395 v -7.86319 l -11.308164,-0.47015 c -10.716336,-0.44556 -11.536272,-0.69826 -15.666667,-4.82866 -4.130394,-4.13039 -4.383109,-4.95032 -4.828657,-15.66667 l -0.470155,-11.30816 h -7.863178 -7.863179 v -8 -8 h 8 8 v -8.000002 -8 h -8 -8 v -8 -8 h 7.863179 7.863178 l 0.470155,-11.308164 c 0.445548,-10.716336 0.698263,-11.536272 4.828657,-15.666667 4.130395,-4.130394 4.950331,-4.383109 15.666667,-4.828657 l 11.308164,-0.470155 v -7.863178 -7.863179 h 8 8 v 8 8 h 8 7.999998 v -8 -8 h 8 8 v 7.863179 7.863178 l 11.30816,0.470155 c 10.71635,0.445548 11.53628,0.698263 15.66667,4.828657 4.1304,4.130395 4.3831,4.950331 4.82866,15.666667 l 0.47015,11.308164 h 7.86319 7.86317 v 8 8 h -8 -8 v 8 8.000002 h 8 8 v 8 8 h -7.86317 -7.86319 l -0.47015,11.30816 c -0.44556,10.71635 -0.69826,11.53628 -4.82866,15.66667 -4.13039,4.1304 -4.95032,4.3831 -15.66667,4.82866 l -11.30816,0.47015 v 7.86319 7.86317 h -8 -8 v -8 -8 h -7.999998 -8 v 8 8 h -8 -8 z M 133.55932,97.627118 v -40 h -39.999998 -40 v 40 40.000002 h 40 39.999998 z m -63.999998,0 v -24 h 24 23.999998 v 24 24.000002 h -23.999998 -24 z m 31.999998,0 v -8 h -7.999998 -8 v 8 8.000002 h 8 7.999998 z"
     id="path817"
     inkscape:connector-curvature="0" />
</svg>
