<?xml version="1.0" encoding="UTF-8" standalone="no"?>
<svg
   xmlns:dc="http://purl.org/dc/elements/1.1/"
   xmlns:cc="http://creativecommons.org/ns#"
   xmlns:rdf="http://www.w3.org/1999/02/22-rdf-syntax-ns#"
   xmlns:svg="http://www.w3.org/2000/svg"
   xmlns="http://www.w3.org/2000/svg"
   xmlns:sodipodi="http://sodipodi.sourceforge.net/DTD/sodipodi-0.dtd"
   xmlns:inkscape="http://www.inkscape.org/namespaces/inkscape"
   width="48"
   height="48"
   viewBox="0 0 48 48"
   id="svg2"
   version="1.1"
   inkscape:version="0.92.3 (2405546, 2018-03-11)"
   sodipodi:docname="dyn.svg">
  <metadata
     id="metadata12">
    <rdf:RDF>
      <cc:Work
         rdf:about="">
        <dc:format>image/svg+xml</dc:format>
        <dc:type
           rdf:resource="http://purl.org/dc/dcmitype/StillImage" />
        <dc:title />
      </cc:Work>
    </rdf:RDF>
  </metadata>
  <defs
     id="defs10">
    <marker
       inkscape:stockid="Arrow1Lstart"
       orient="auto"
       refY="0.0"
       refX="0.0"
       id="Arrow1Lstart"
       style="overflow:visible"
       inkscape:isstock="true">
      <path
         id="path4598"
         d="M 0.0,0.0 L 5.0,-5.0 L -12.5,0.0 L 5.0,5.0 L 0.0,0.0 z "
         style="fill-rule:evenodd;stroke:#000000;stroke-width:1.0pt"
         transform="scale(0.8) translate(12.5,0)" />
    </marker>
    <filter
       inkscape:collect="always"
       style="color-interpolation-filters:sRGB"
       id="filter4838"
       x="-0.0045394213"
       width="1.0090787"
       y="-0.0088463528"
       height="1.0176927">
      <feGaussianBlur
         inkscape:collect="always"
         stdDeviation="0.23482845"
         id="feGaussianBlur4840" />
    </filter>
  </defs>
  <sodipodi:namedview
     pagecolor="#ffffff"
     bordercolor="#666666"
     borderopacity="1"
     objecttolerance="10"
     gridtolerance="10"
     guidetolerance="10"
     inkscape:pageopacity="0"
     inkscape:pageshadow="2"
     inkscape:window-width="1851"
     inkscape:window-height="1025"
     id="namedview8"
     showgrid="false"
     inkscape:zoom="3.4557293"
     inkscape:cx="-70.525688"
     inkscape:cy="22.666339"
     inkscape:window-x="69"
     inkscape:window-y="27"
     inkscape:window-maximized="1"
     inkscape:current-layer="g901" />
  <g
     id="g4150">
    <g
       id="g4544">
      <path
         id="path4530"
         d="M 0,0 H 48 V 48 H 0 Z"
         inkscape:connector-curvature="0"
         style="fill:none" />
      <g
         id="g901"
         transform="matrix(1.0739294,0,0,1.0739294,69.949828,29.759617)">
        <path
           style="fill:none;fill-rule:evenodd;stroke:#00ccff;stroke-width:3.99300051;stroke-linecap:round;stroke-linejoin:miter;stroke-miterlimit:4;stroke-dasharray:none;stroke-opacity:1;filter:url(#filter4838)"
           d="m 4.0231658,1008.0454 c 0,0 2.6412394,-52.71272 7.4463362,-52.79047 4.973745,-0.0806 4.000488,62.94767 9.281635,62.95847 3.91287,0.01 4.389689,-49.87558 8.612569,-50.00695 2.973847,-0.0924 4.833066,40.53225 8.811378,40.45905 2.796089,-0.051 4.214236,-28.48753 8.415532,-28.5375 3.015607,-0.0359 6.496238,22.3892 10.32109,22.3016 3.211597,-0.074 6.603742,-17.83293 9.815046,-17.72719 2.7912,0.0919 4.092578,14.29157 7.532255,14.31657 2.632035,0.019 5.251367,-13.45767 8.551487,-13.54549 2.382577,-0.0636 3.287968,10.68738 5.802789,10.62833 1.761988,-0.0409 3.28867,-6.81693 5.924964,-6.7191 1.857678,0.0691 3.058605,2.655 4.886564,2.6877 2.383799,0.0431 4.702959,-0.88838 7.085499,-0.97739 2.60944,-0.0971 5.20852,0.40718 7.8185,0.48864 2.11647,0.0658 6.35253,0 6.35253,0 l 6.90229,-0.0615"
           id="path4166"
           inkscape:connector-curvature="0"
           sodipodi:nodetypes="cssssssssssssaacc"
           transform="matrix(0.42189464,0,0,0.43758658,-66.325736,-437.68364)" />
      </g>
    </g>
    <g
       transform="translate(1.0067283,-25.887299)"
       id="g4144" />
  </g>
</svg>
