<?xml version="1.0" encoding="UTF-8" standalone="no"?>
<!-- Created with Inkscape (http://www.inkscape.org/) -->

<svg
   width="48"
   height="48"
   viewBox="0 0 48 48.000001"
   id="svg2"
   version="1.1"
   inkscape:version="1.2.2 (b0a8486541, 2022-12-01)"
   sodipodi:docname="emission.svg"
   xml:space="preserve"
   xmlns:inkscape="http://www.inkscape.org/namespaces/inkscape"
   xmlns:sodipodi="http://sodipodi.sourceforge.net/DTD/sodipodi-0.dtd"
   xmlns="http://www.w3.org/2000/svg"
   xmlns:svg="http://www.w3.org/2000/svg"
   xmlns:rdf="http://www.w3.org/1999/02/22-rdf-syntax-ns#"
   xmlns:cc="http://creativecommons.org/ns#"
   xmlns:dc="http://purl.org/dc/elements/1.1/"><defs
     id="defs4" /><sodipodi:namedview
     id="base"
     pagecolor="#ffffff"
     bordercolor="#666666"
     borderopacity="1.0"
     inkscape:pageopacity="0.0"
     inkscape:pageshadow="2"
     inkscape:zoom="8.7946406"
     inkscape:cx="19.44366"
     inkscape:cy="9.8355355"
     inkscape:document-units="px"
     inkscape:current-layer="g3441"
     showgrid="false"
     units="px"
     inkscape:window-width="2509"
     inkscape:window-height="1011"
     inkscape:window-x="51"
     inkscape:window-y="32"
     inkscape:window-maximized="1"
     inkscape:showpageshadow="2"
     inkscape:pagecheckerboard="0"
     inkscape:deskcolor="#d1d1d1" /><metadata
     id="metadata7"><rdf:RDF><cc:Work
         rdf:about=""><dc:format>image/svg+xml</dc:format><dc:type
           rdf:resource="http://purl.org/dc/dcmitype/StillImage" /></cc:Work></rdf:RDF></metadata><g
     inkscape:label="Capa 1"
     inkscape:groupmode="layer"
     id="layer1"
     transform="translate(0,-1004.3622)"><g
       id="g3441"
       transform="matrix(0.86616353,0,0,0.86616353,2.6577879,137.17231)"
       style="fill:#ffffff;stroke:#4d4d4d"><path
         style="fill:#999999;fill-opacity:0.72366643;stroke:none;stroke-width:0.999999;stroke-opacity:1"
         d="m 12.58799,1040.999 c -1.332881,-0.022 -3.2470464,-1.0739 -4.2166534,-2.3163 -0.700613,-0.8978 -0.889881,-1.3614 -1.238934,-3.0347 -0.353023,-1.6923 -0.355404,-2.2074 -0.01675,-3.5998 0.77529,-3.1873 2.862183,-5.4315 5.9874004,-6.4389 l 1.7554,-0.5658 -0.169597,-0.6524 c -0.263215,-1.0126 0.05459,-3.0673 0.683909,-4.4217 0.932078,-2.006 2.647067,-3.4158 5.023959,-4.1301 1.080075,-0.3241 1.090466,-0.3382 1.350768,-1.6898 0.393708,-2.046 1.347309,-3.711 2.877658,-5.0243 1.267261,-1.0875 1.470589,-1.1823 3.864487,-1.8035 2.387488,-0.6207 2.613346,-0.636 4.098247,-0.2969 1.907734,0.4357 3.775473,1.5871 5.045316,3.1104 0.827208,0.9923 1.021391,1.4232 1.539442,3.4161 0.518025,1.9928 0.558254,2.4636 0.319034,3.7332 -0.58368,3.0975 -2.706619,5.6372 -5.580673,6.6762 l -1.463649,0.5292 -0.151241,1.0742 c -0.232629,1.6518 -1.133573,3.2354 -2.516466,4.4229 -1.031453,0.8857 -1.534494,1.148 -2.918213,1.5214 -0.919264,0.2493 -1.745401,0.4083 -1.835121,0.356 -0.0897,-0.052 -0.328302,0.4105 -0.530094,1.0286 -0.992816,3.0408 -3.526348,5.0447 -6.295772,4.9797 -0.678162,-0.016 -0.87274,0.059 -0.953686,0.3649 -0.176857,0.6693 -1.734155,2.0298 -2.759154,2.4103 -0.542602,0.202 -1.396645,0.3631 -1.899619,0.3511 z"
         id="path26338" /><rect
         style="fill:#999999;fill-opacity:1;stroke:none;stroke-width:6.92712;stroke-linecap:square;stroke-linejoin:miter;stroke-opacity:1;paint-order:markers stroke fill"
         id="rect26530"
         width="18.441153"
         height="17.723145"
         x="3.3723474"
         y="1038.63"
         ry="0"
         rx="0" /><rect
         style="fill:#ffffff;fill-opacity:0.723666;stroke:none;stroke-width:4.11701;stroke-linecap:square;paint-order:markers stroke fill"
         id="rect952"
         width="18.445118"
         height="0.64005375"
         x="3.3583727"
         y="1042.1635" /><rect
         style="fill:#ffffff;fill-opacity:0.723666;stroke:none;stroke-width:4.11701;stroke-linecap:square;paint-order:markers stroke fill"
         id="rect952-3"
         width="18.438993"
         height="0.64005375"
         x="3.3776579"
         y="1044.7693" /></g></g></svg>
