<?xml version="1.0" encoding="UTF-8" standalone="no"?>
<!-- Created with Inkscape (http://www.inkscape.org/) -->

<svg
   width="48"
   height="48"
   viewBox="0 0 48 48.000001"
   id="svg2"
   version="1.1"
   inkscape:version="1.2.2 (b0a8486541, 2022-12-01)"
   sodipodi:docname="emission.svg"
   xml:space="preserve"
   xmlns:inkscape="http://www.inkscape.org/namespaces/inkscape"
   xmlns:sodipodi="http://sodipodi.sourceforge.net/DTD/sodipodi-0.dtd"
   xmlns="http://www.w3.org/2000/svg"
   xmlns:svg="http://www.w3.org/2000/svg"
   xmlns:rdf="http://www.w3.org/1999/02/22-rdf-syntax-ns#"
   xmlns:cc="http://creativecommons.org/ns#"
   xmlns:dc="http://purl.org/dc/elements/1.1/"><defs
     id="defs4" /><sodipodi:namedview
     id="base"
     pagecolor="#ffffff"
     bordercolor="#666666"
     borderopacity="1.0"
     inkscape:pageopacity="0.0"
     inkscape:pageshadow="2"
     inkscape:zoom="4.3973203"
     inkscape:cx="114.61526"
     inkscape:cy="19.216249"
     inkscape:document-units="px"
     inkscape:current-layer="g3441"
     showgrid="false"
     units="px"
     inkscape:window-width="2509"
     inkscape:window-height="1011"
     inkscape:window-x="51"
     inkscape:window-y="32"
     inkscape:window-maximized="1"
     inkscape:showpageshadow="2"
     inkscape:pagecheckerboard="0"
     inkscape:deskcolor="#d1d1d1" /><metadata
     id="metadata7"><rdf:RDF><cc:Work
         rdf:about=""><dc:format>image/svg+xml</dc:format><dc:type
           rdf:resource="http://purl.org/dc/dcmitype/StillImage" /></cc:Work></rdf:RDF></metadata><g
     inkscape:label="Capa 1"
     inkscape:groupmode="layer"
     id="layer1"
     transform="translate(0,-1004.3622)"><g
       id="g3441"
       transform="matrix(0.86616353,0,0,0.86616353,2.6577879,137.17231)"
       style="fill:#ffffff;stroke:#4d4d4d"><path
         style="fill:#999999;fill-opacity:1;stroke:#999999;stroke-width:0.999999;stroke-opacity:1"
         d="m 12.914456,1038.3246 c -1.284377,-0.357 -2.872414,-1.8563 -3.498251,-3.3027 -0.4521963,-1.0452 -0.5187402,-1.5415 -0.4355763,-3.2488 0.084104,-1.7267 0.2113864,-2.2258 0.8894616,-3.4882 1.5522417,-2.8897 4.1366357,-4.5367 7.4147747,-4.7254 l 1.841296,-0.106 v -0.6741 c 0,-1.0462 0.824538,-2.9549 1.774368,-4.1074 1.406769,-1.7069 3.421292,-2.6399 5.901435,-2.7332 1.126889,-0.042 1.140485,-0.053 1.732456,-1.2956 0.895815,-1.8812 2.237635,-3.2527 4.049163,-4.1387 1.500106,-0.7337 1.720746,-0.7743 4.193946,-0.7733 2.466837,0 2.689284,0.042 4.041101,0.7438 1.736765,0.9016 3.254737,2.4859 4.10048,4.2797 0.550946,1.1685 0.630471,1.6344 0.630471,3.6935 0,2.059 -0.07952,2.5248 -0.630471,3.6934 -1.344204,2.851 -4.037822,4.7749 -7.080833,5.0574 l -1.549701,0.1439 -0.416636,1.0016 c -0.640739,1.5402 -1.911125,2.8462 -3.548279,3.6475 -1.221107,0.5977 -1.773959,0.725 -3.207123,0.7383 -0.952416,0.01 -1.791973,-0.044 -1.865672,-0.1171 -0.0737,-0.073 -0.42102,0.3147 -0.771817,0.8621 -1.725917,2.6932 -4.68211,3.9952 -7.346117,3.2356 -0.65235,-0.186 -0.859373,-0.163 -1.014808,0.1132 -0.339565,0.6033 -2.18905,1.5282 -3.276814,1.6386 -0.575973,0.059 -1.443063,0 -1.926854,-0.1381 z"
         id="path26338" /><rect
         style="fill:#999999;fill-opacity:1;stroke:#999999;stroke-width:6.9271;stroke-linecap:round;stroke-linejoin:round;stroke-opacity:1;paint-order:markers stroke fill"
         id="rect26530"
         width="8.0640421"
         height="10.810272"
         x="9.00529"
         y="1041.5604"
         ry="4.032021"
         rx="0" /></g></g></svg>
