<?xml version="1.0" encoding="UTF-8" standalone="no"?>
<!-- Created with Inkscape (http://www.inkscape.org/) -->

<svg
   width="48"
   height="48"
   viewBox="0 0 48 48.000001"
   id="svg2"
   version="1.1"
   inkscape:version="1.2.2 (b0a8486541, 2022-12-01)"
   sodipodi:docname="fuel.svg"
   xml:space="preserve"
   xmlns:inkscape="http://www.inkscape.org/namespaces/inkscape"
   xmlns:sodipodi="http://sodipodi.sourceforge.net/DTD/sodipodi-0.dtd"
   xmlns="http://www.w3.org/2000/svg"
   xmlns:svg="http://www.w3.org/2000/svg"
   xmlns:rdf="http://www.w3.org/1999/02/22-rdf-syntax-ns#"
   xmlns:cc="http://creativecommons.org/ns#"
   xmlns:dc="http://purl.org/dc/elements/1.1/"><defs
     id="defs4" /><sodipodi:namedview
     id="base"
     pagecolor="#ffffff"
     bordercolor="#666666"
     borderopacity="1.0"
     inkscape:pageopacity="0.0"
     inkscape:pageshadow="2"
     inkscape:zoom="3.109375"
     inkscape:cx="55.638191"
     inkscape:cy="60.301507"
     inkscape:document-units="px"
     inkscape:current-layer="g3441"
     showgrid="false"
     units="px"
     inkscape:window-width="2509"
     inkscape:window-height="1011"
     inkscape:window-x="51"
     inkscape:window-y="32"
     inkscape:window-maximized="1"
     inkscape:showpageshadow="2"
     inkscape:pagecheckerboard="0"
     inkscape:deskcolor="#d1d1d1" /><metadata
     id="metadata7"><rdf:RDF><cc:Work
         rdf:about=""><dc:format>image/svg+xml</dc:format><dc:type
           rdf:resource="http://purl.org/dc/dcmitype/StillImage" /><dc:title /></cc:Work></rdf:RDF></metadata><g
     inkscape:label="Capa 1"
     inkscape:groupmode="layer"
     id="layer1"
     transform="translate(0,-1004.3622)"><g
       id="g3441"
       transform="matrix(0.86616353,0,0,0.86616353,2.6577879,137.17231)"
       style="fill:#ffffff;stroke:#4d4d4d"><path
         style="fill:#999999;fill-opacity:1;stroke:#999999;stroke-width:0.999998;stroke-opacity:1"
         d="m 21.825034,1049.8351 c -3.099657,-0.682 -5.947433,-2.9742 -7.389076,-5.9475 -1.407005,-2.9019 -1.466557,-5.3004 -0.20968,-8.4451 0.657501,-1.6451 1.435137,-2.9613 4.214069,-7.1326 1.327222,-1.9923 2.739778,-4.2935 3.139004,-5.1139 0.667963,-1.3725 1.403298,-3.3864 1.64618,-4.5085 0.194782,-0.8998 0.68821,-0.7444 0.930765,0.2933 0.641782,2.7455 1.727555,4.8744 4.955186,9.716 2.596224,3.8945 3.778458,6.0396 4.405769,7.9941 0.733825,2.2863 0.512357,4.9354 -0.599417,7.1699 -2.148411,4.3181 -6.926023,6.8912 -11.0928,5.9743 z"
         id="path24635" /></g></g></svg>
