<?xml version="1.0" encoding="UTF-8" standalone="no"?>
<!-- Created with Inkscape (http://www.inkscape.org/) -->

<svg
   version="1.1"
   id="svg2"
   width="192"
   height="192"
   viewBox="0 0 192 192"
   sodipodi:docname="import_models.svg"
   inkscape:version="1.2.1 (9c6d41e410, 2022-07-14)"
   xml:space="preserve"
   xmlns:inkscape="http://www.inkscape.org/namespaces/inkscape"
   xmlns:sodipodi="http://sodipodi.sourceforge.net/DTD/sodipodi-0.dtd"
   xmlns="http://www.w3.org/2000/svg"
   xmlns:svg="http://www.w3.org/2000/svg"
   xmlns:rdf="http://www.w3.org/1999/02/22-rdf-syntax-ns#"
   xmlns:cc="http://creativecommons.org/ns#"
   xmlns:dc="http://purl.org/dc/elements/1.1/"><metadata
     id="metadata8"><rdf:RDF><cc:Work
         rdf:about=""><dc:format>image/svg+xml</dc:format><dc:type
           rdf:resource="http://purl.org/dc/dcmitype/StillImage" /><dc:title /></cc:Work></rdf:RDF></metadata><defs
     id="defs6" /><sodipodi:namedview
     pagecolor="#ffffff"
     bordercolor="#666666"
     borderopacity="1"
     objecttolerance="10"
     gridtolerance="10"
     guidetolerance="10"
     inkscape:pageopacity="0"
     inkscape:pageshadow="2"
     inkscape:window-width="2560"
     inkscape:window-height="1017"
     id="namedview4"
     showgrid="false"
     inkscape:zoom="0.65429688"
     inkscape:cx="-588.41791"
     inkscape:cy="-207.85672"
     inkscape:window-x="-8"
     inkscape:window-y="-8"
     inkscape:window-maximized="1"
     inkscape:current-layer="svg2"
     inkscape:showpageshadow="2"
     inkscape:pagecheckerboard="0"
     inkscape:deskcolor="#d1d1d1" /><g
     id="g2678"
     transform="matrix(0.55320042,0,0,0.59846942,8.6310018,192.67497)"><path
       style="opacity:1;fill:#1fa766;fill-opacity:1;stroke-width:2.11176;paint-order:stroke fill markers"
       d="m 23.837619,-39.213637 c -2.322935,-0.980768 -6.204202,-1.179152 -9.107857,-4.3034 -1.759793,-1.893485 -5.6744111,-8.840713 -5.6744111,-8.840713 V -164.06992 -275.7821 c 0,0 0.134385,-6.59047 4.9745161,-10.70601 3.683865,-3.13236 8.826087,-3.10161 8.826087,-3.10161 l 55.396413,-0.59881 55.396423,-0.5988 38.61332,38.70512 38.61333,38.70513 -0.60177,80.64128 -0.60177,80.641299 c 0,0 -2.20181,6.508531 -4.53166,8.87686 -2.45442,2.494982 -9.27206,4.926555 -9.27206,4.926555 l -83.90353,0.430319 c -46.146941,0.236687 -85.804098,-0.372116 -88.127031,-1.35287 z M 191.72201,-202.5039 c 0,-0.30357 -15.67978,-16.2101 -34.84393,-35.34787 l -34.84394,-34.79592 v 35.34787 35.34787 h 34.84394 c 19.16415,0 34.84393,-0.24839 34.84393,-0.55195 z"
       id="path817"
       inkscape:connector-curvature="0"
       sodipodi:nodetypes="cscccscccccccscscsscccss" /><g
       id="g2568"
       transform="matrix(0.9128977,0,0,0.64716112,24.343284,-37.486011)"><g
         id="g1140"
         style="fill:#ffffff;stroke:none"
         transform="translate(407.30746,32.477612)"><rect
           style="opacity:1;fill:#ffffff;stroke:none;stroke-width:1.17752"
           id="rect1011"
           width="123.59569"
           height="139.93283"
           x="-375.9761"
           y="-226.0116"
           ry="11.583521" /><rect
           style="opacity:1;fill:#ffffff;stroke:none"
           id="rect1013"
           width="48.907463"
           height="38.208954"
           x="-366.80597"
           y="-220.08357" /><rect
           style="fill:#ffffff;stroke:none"
           id="rect1013-4"
           width="48.907463"
           height="38.208954"
           x="-310.72836"
           y="-219.76704" /><rect
           style="fill:#ffffff;stroke:none"
           id="rect1013-6"
           width="48.907463"
           height="38.208954"
           x="-366.3588"
           y="-174.88535" /><rect
           style="fill:#ffffff;stroke:none"
           id="rect1013-4-6"
           width="48.907463"
           height="38.208954"
           x="-310.28119"
           y="-174.56882" /><rect
           style="fill:#ffffff;stroke:none"
           id="rect1013-1"
           width="48.907463"
           height="38.208954"
           x="-365.81845"
           y="-130.41977" /><rect
           style="fill:#ffffff;stroke:none"
           id="rect1013-4-5"
           width="48.907463"
           height="38.208954"
           x="-309.74084"
           y="-130.41977" /></g><path
         style="opacity:1;fill:#20a867;fill-opacity:1;stroke:none;stroke-width:0.270178"
         d="m 40.675762,-168.53491 v -19.04755 h 24.31603 24.31603 v 19.04755 19.04756 h -24.31603 -24.31603 z"
         id="path1775" /><path
         style="opacity:1;fill:#20a867;fill-opacity:1;stroke:none;stroke-width:0.270178"
         d="m 96.602632,-168.12964 v -18.91247 h 24.316028 24.31603 v 18.91247 18.91247 H 120.91866 96.602632 Z"
         id="path1777" /><path
         style="opacity:1;fill:#20a867;fill-opacity:1;stroke:none;stroke-width:0.270178"
         d="m 97.142992,-123.00989 v -18.91247 h 24.316028 24.31603 v 18.91247 18.91246 H 121.45902 97.142992 Z"
         id="path1779" /><path
         style="opacity:1;fill:#20a867;fill-opacity:1;stroke:none;stroke-width:0.270178"
         d="m 41.216122,-123.28007 v -18.91247 h 24.31603 24.31603 v 18.91247 18.91247 h -24.31603 -24.31603 z"
         id="path1781" /><path
         style="opacity:1;fill:#20a867;fill-opacity:1;stroke:none;stroke-width:0.270178"
         d="m 41.756472,-78.835768 v -19.04756 h 24.31603 24.31603 v 19.04756 19.047554 h -24.31603 -24.31603 z"
         id="path1783" /><path
         style="opacity:1;fill:#20a867;fill-opacity:1;stroke:none;stroke-width:0.270178"
         d="m 97.683342,-78.835768 v -19.04756 h 24.316028 24.31603 v 19.04756 19.047554 H 121.99937 97.683342 Z"
         id="path1785" /></g></g><path
     inkscape:connector-curvature="0"
     id="path817-5"
     d="m 127.7435,178.61424 v -3.96301 h 28.90983 28.90984 v 3.96301 3.96302 H 156.65333 127.7435 Z m 14.45492,-26.08983 -14.09816,-13.54029 h 8.08158 8.08156 v -11.88904 -11.88904 h 12.38993 12.38994 v 11.88904 11.88904 h 8.08157 8.08156 l -14.09814,13.54029 c -7.754,7.44717 -14.25871,13.54031 -14.45493,13.54031 -0.19621,0 -6.70092,-6.09314 -14.45491,-13.54031 z"
     style="fill:#5500d4;stroke-width:0.674273" /></svg>
