<?xml version="1.0" encoding="UTF-8" standalone="no"?>
<!-- Created with Inkscape (http://www.inkscape.org/) -->

<svg
   version="1.1"
   id="svg2"
   width="192"
   height="192"
   viewBox="0 0 192 192"
   sodipodi:docname="new (delete).svg"
   inkscape:version="1.1.2 (0a00cf5339, 2022-02-04)"
   xmlns:inkscape="http://www.inkscape.org/namespaces/inkscape"
   xmlns:sodipodi="http://sodipodi.sourceforge.net/DTD/sodipodi-0.dtd"
   xmlns="http://www.w3.org/2000/svg"
   xmlns:svg="http://www.w3.org/2000/svg"
   xmlns:rdf="http://www.w3.org/1999/02/22-rdf-syntax-ns#"
   xmlns:cc="http://creativecommons.org/ns#"
   xmlns:dc="http://purl.org/dc/elements/1.1/">
  <metadata
     id="metadata8">
    <rdf:RDF>
      <cc:Work
         rdf:about="">
        <dc:format>image/svg+xml</dc:format>
        <dc:type
           rdf:resource="http://purl.org/dc/dcmitype/StillImage" />
      </cc:Work>
    </rdf:RDF>
  </metadata>
  <defs
     id="defs6" />
  <sodipodi:namedview
     pagecolor="#ffffff"
     bordercolor="#666666"
     borderopacity="1"
     objecttolerance="10"
     gridtolerance="10"
     guidetolerance="10"
     inkscape:pageopacity="0"
     inkscape:pageshadow="2"
     inkscape:window-width="2505"
     inkscape:window-height="1016"
     id="namedview4"
     showgrid="false"
     inkscape:zoom="1.0690104"
     inkscape:cx="304.01949"
     inkscape:cy="250.23142"
     inkscape:window-x="55"
     inkscape:window-y="27"
     inkscape:window-maximized="1"
     inkscape:current-layer="svg2"
     inkscape:pagecheckerboard="0" />
  <path
     style="fill:#666666;stroke-width:1.53763843;paint-order:stroke fill markers"
     d="m 36.108101,186.43995 c -1.691407,-0.71413 -4.517488,-0.85858 -6.631737,-3.13345 -1.281364,-1.37871 -4.131729,-6.43722 -4.131729,-6.43722 V 95.527895 14.186505 c 0,0 0.09785,-4.7987402 3.622112,-7.7953982 2.682346,-2.2807839 6.426571,-2.2583917 6.426571,-2.2583917 L 75.729307,3.696707 116.0653,3.2606988 l 28.11566,28.1824962 28.11566,28.182496 -0.43817,58.717629 -0.43817,58.71764 c 0,0 -1.60321,4.73908 -3.29965,6.46354 -1.78715,1.81668 -6.7513,3.58719 -6.7513,3.58719 l -61.09298,0.31333 c -33.601135,0.17234 -62.476843,-0.27095 -64.168249,-0.98507 z M 158.35036,67.542824 c 0,-0.221039 -11.41697,-11.803123 -25.37103,-25.737968 l -25.37104,-25.33608 v 25.737967 25.737968 h 25.37104 c 13.95406,0 25.37103,-0.180851 25.37103,-0.401887 z"
     id="path817"
     inkscape:connector-curvature="0"
     sodipodi:nodetypes="cscccscccccccscscsscccss" />
  <g
     id="g831"
     style="stroke:#37c8ab;stroke-width:21;stroke-miterlimit:4;stroke-dasharray:none;fill:#ff0000"
     transform="matrix(0.77070688,0,0,0.77070688,-1.6141693,63.833498)">
    <path
       inkscape:connector-curvature="0"
       id="path812"
       d="M 59.837063,61.191958 134.85037,135.42536"
       style="fill:#ff0000;fill-rule:evenodd;stroke:#ff8080;stroke-width:15.5708;stroke-linecap:round;stroke-linejoin:miter;stroke-miterlimit:4;stroke-dasharray:none;stroke-opacity:1"
       sodipodi:nodetypes="cc" />
    <path
       inkscape:connector-curvature="0"
       id="path812-3"
       d="M 133.89064,61.511866 60.79679,135.10545"
       style="fill:#ff0000;fill-rule:evenodd;stroke:#ff8080;stroke-width:15.5708;stroke-linecap:round;stroke-linejoin:miter;stroke-miterlimit:4;stroke-dasharray:none;stroke-opacity:1"
       sodipodi:nodetypes="cc" />
  </g>
</svg>
