<?xml version="1.0" encoding="UTF-8" standalone="no"?>
<!-- Created with Inkscape (http://www.inkscape.org/) -->

<svg
   xmlns:dc="http://purl.org/dc/elements/1.1/"
   xmlns:cc="http://creativecommons.org/ns#"
   xmlns:rdf="http://www.w3.org/1999/02/22-rdf-syntax-ns#"
   xmlns:svg="http://www.w3.org/2000/svg"
   xmlns="http://www.w3.org/2000/svg"
   xmlns:sodipodi="http://sodipodi.sourceforge.net/DTD/sodipodi-0.dtd"
   xmlns:inkscape="http://www.inkscape.org/namespaces/inkscape"
   version="1.1"
   id="svg2"
   width="192"
   height="192"
   viewBox="0 0 192 192"
   sodipodi:docname="new.svg"
   inkscape:version="0.92.4 (unknown)">
  <metadata
     id="metadata8">
    <rdf:RDF>
      <cc:Work
         rdf:about="">
        <dc:format>image/svg+xml</dc:format>
        <dc:type
           rdf:resource="http://purl.org/dc/dcmitype/StillImage" />
        <dc:title />
      </cc:Work>
    </rdf:RDF>
  </metadata>
  <defs
     id="defs6" />
  <sodipodi:namedview
     pagecolor="#ffffff"
     bordercolor="#666666"
     borderopacity="1"
     objecttolerance="10"
     gridtolerance="10"
     guidetolerance="10"
     inkscape:pageopacity="0"
     inkscape:pageshadow="2"
     inkscape:window-width="1863"
     inkscape:window-height="1025"
     id="namedview4"
     showgrid="false"
     inkscape:zoom="1.2291667"
     inkscape:cx="-76.70903"
     inkscape:cy="226.91963"
     inkscape:window-x="57"
     inkscape:window-y="27"
     inkscape:window-maximized="1"
     inkscape:current-layer="svg2" />
  <path
     style="fill:#37c8ab;stroke-width:1.53763843"
     d="m 36.108101,186.43995 c -1.691407,-0.71413 -4.517488,-0.85858 -6.631737,-3.13345 -1.281364,-1.37871 -4.131729,-6.43722 -4.131729,-6.43722 V 95.527895 14.186505 c 0,0 0.09785,-4.7987402 3.622112,-7.7953982 2.682346,-2.2807839 6.426571,-2.2583917 6.426571,-2.2583917 L 75.729307,3.696707 116.0653,3.2606988 l 28.11566,28.1824962 28.11566,28.182496 -0.43817,58.717629 -0.43817,58.71764 c 0,0 -1.60321,4.73908 -3.29965,6.46354 -1.78715,1.81668 -6.7513,3.58719 -6.7513,3.58719 l -61.09298,0.31333 c -33.601135,0.17234 -62.476843,-0.27095 -64.168249,-0.98507 z M 141.6138,141.75135 c -0.30674,-7.62285 -6.32801,-9.22583 -6.32801,-9.22583 H 98.382455 61.479134 c 0,0 -6.722762,2.12551 -6.615643,8.93819 0.129824,8.25673 6.615643,9.51348 6.615643,9.51348 h 36.903321 36.903335 c 0,0 6.61834,-2.01049 6.32801,-9.22584 z m 0,-36.90332 c -0.40222,-7.362285 -6.32801,-9.225828 -6.32801,-9.225828 H 98.382455 61.479134 c 0,0 -6.854406,1.736345 -6.90328,8.650558 -0.0532,7.52657 6.90328,9.80111 6.90328,9.80111 h 36.903321 36.903335 c 0,0 6.74565,-1.58126 6.32801,-9.22584 z m 16.73656,-37.305206 c 0,-0.221039 -11.41697,-11.803123 -25.37103,-25.737968 l -25.37104,-25.33608 v 25.737967 25.737968 h 25.37104 c 13.95406,0 25.37103,-0.180851 25.37103,-0.401887 z"
     id="path817"
     inkscape:connector-curvature="0"
     sodipodi:nodetypes="cscccscccccccscscscccscccsscccscccssscccss" />
</svg>
