<?xml version="1.0" encoding="UTF-8" standalone="no"?>
<!-- Created with Inkscape (http://www.inkscape.org/) -->

<svg
   version="1.1"
   id="svg2"
   width="192"
   height="192"
   viewBox="0 0 192 192"
   sodipodi:docname="stacked_plot.svg"
   inkscape:version="1.2.2 (b0a8486541, 2022-12-01)"
   xml:space="preserve"
   xmlns:inkscape="http://www.inkscape.org/namespaces/inkscape"
   xmlns:sodipodi="http://sodipodi.sourceforge.net/DTD/sodipodi-0.dtd"
   xmlns="http://www.w3.org/2000/svg"
   xmlns:svg="http://www.w3.org/2000/svg"
   xmlns:rdf="http://www.w3.org/1999/02/22-rdf-syntax-ns#"
   xmlns:cc="http://creativecommons.org/ns#"
   xmlns:dc="http://purl.org/dc/elements/1.1/"><metadata
     id="metadata8"><rdf:RDF><cc:Work
         rdf:about=""><dc:format>image/svg+xml</dc:format><dc:type
           rdf:resource="http://purl.org/dc/dcmitype/StillImage" /></cc:Work></rdf:RDF></metadata><defs
     id="defs6" /><sodipodi:namedview
     pagecolor="#ffffff"
     bordercolor="#666666"
     borderopacity="1"
     objecttolerance="10"
     gridtolerance="10"
     guidetolerance="10"
     inkscape:pageopacity="0"
     inkscape:pageshadow="2"
     inkscape:window-width="1255"
     inkscape:window-height="1011"
     id="namedview4"
     showgrid="false"
     inkscape:zoom="1.9427083"
     inkscape:cx="75.66756"
     inkscape:cy="145.41555"
     inkscape:window-x="1305"
     inkscape:window-y="32"
     inkscape:window-maximized="0"
     inkscape:current-layer="g1024"
     inkscape:showpageshadow="2"
     inkscape:pagecheckerboard="0"
     inkscape:deskcolor="#d1d1d1" /><g
     id="g1024"
     transform="matrix(1.1180976,0,0,1.1180976,-2.290899,8.095787)"><path
       style="fill:#00aa88;stroke:none;stroke-width:0.947509px;stroke-linecap:butt;stroke-linejoin:miter;stroke-opacity:1;fill-opacity:1"
       d="M 39.197923,86.147896 C 28.64918,83.840287 27.872412,74.860652 30.274314,63.753064 c 2.465055,-11.399656 2.691726,-21.874999 6.50126,-21.470636 7.003569,-0.0631 6.771586,26.909063 15.217286,29.049974 10.80212,-0.490313 21.74635,-33.373186 28.455031,-33.750577 6.687593,0.56241 11.370021,45.651151 27.721419,46.361282 11.48161,0.03355 18.633,-24.752229 25.46837,-25.318067 6.01243,-0.497713 11.07954,15.59745 16.53527,42.53157 3.09902,15.29941 -29.19519,10.95557 -41.76655,9.47207 C 85.347637,107.90763 43.453354,88.62925 62.32139,89.767368"
       id="path924-3-6"
       sodipodi:nodetypes="csccccsssc" /><path
       style="fill:#0088aa;stroke:none;stroke-width:0.947509px;stroke-linecap:butt;stroke-linejoin:miter;stroke-opacity:1;fill-opacity:1"
       d="M 35.604511,119.62059 C 25.055768,117.31298 21.756339,103.24315 24.158241,92.135567 26.623296,80.73591 29.787459,53.082003 33.596993,53.486366 c 8.04617,-0.319958 7.600251,32.200551 16.264551,32.556384 10.80212,-0.490313 13.819615,-14.815613 26.992935,-14.988244 15.95909,0.947196 15.941834,31.920004 32.293231,32.630134 11.48161,0.0336 18.13167,-45.557949 29.82766,-36.566458 10.31856,7.932567 9.7666,37.715978 19.63444,60.777728 5.61026,13.11153 -40.35179,0.47681 -52.92315,-1.00669 -23.058762,-2.72105 -65.826718,-4.78728 -46.958682,-3.64916"
       id="path924-3"
       sodipodi:nodetypes="csccccsssc" /><path
       style="fill:#002255;stroke:none;stroke-width:0.947509px;stroke-linecap:butt;stroke-linejoin:miter;stroke-opacity:1;fill-opacity:1"
       d="m 12.636751,140.9527 c 5.661693,-16.58557 8.827582,-53.48576 16.349046,-52.687392 8.04617,-0.319957 7.68763,27.979902 16.351933,28.335732 10.802121,-0.49031 15.517009,-16.903858 28.690332,-17.076489 15.959092,0.947199 12.899613,23.326849 29.250998,24.036979 11.48161,0.0335 19.70115,-20.58355 32.55172,-20.03644 12.58399,0.53577 13.64926,9.39434 32.14953,39.15151"
       id="path924"
       sodipodi:nodetypes="cccccsc" /><path
       style="fill:none;stroke:#4d4d4d;stroke-width:6.00037063;stroke-linecap:round;stroke-linejoin:round;stroke-dasharray:none;stroke-opacity:1"
       d="M 12.656013,17.258199 V 141.51723 l 154.748517,0.57528"
       id="path922" /></g></svg>
