<?xml version="1.0" encoding="UTF-8" standalone="no"?>
<!-- Created with Inkscape (http://www.inkscape.org/) -->

<svg
   version="1.1"
   id="svg2"
   width="192"
   height="192"
   viewBox="0 0 192 192"
   sodipodi:docname="technology.svg"
   inkscape:version="1.2.2 (b0a8486541, 2022-12-01)"
   xml:space="preserve"
   xmlns:inkscape="http://www.inkscape.org/namespaces/inkscape"
   xmlns:sodipodi="http://sodipodi.sourceforge.net/DTD/sodipodi-0.dtd"
   xmlns="http://www.w3.org/2000/svg"
   xmlns:svg="http://www.w3.org/2000/svg"
   xmlns:rdf="http://www.w3.org/1999/02/22-rdf-syntax-ns#"
   xmlns:cc="http://creativecommons.org/ns#"
   xmlns:dc="http://purl.org/dc/elements/1.1/"><metadata
     id="metadata8"><rdf:RDF><cc:Work
         rdf:about=""><dc:format>image/svg+xml</dc:format><dc:type
           rdf:resource="http://purl.org/dc/dcmitype/StillImage" /><dc:title /></cc:Work></rdf:RDF></metadata><defs
     id="defs6" /><sodipodi:namedview
     pagecolor="#ffffff"
     bordercolor="#666666"
     borderopacity="1"
     objecttolerance="10"
     gridtolerance="10"
     guidetolerance="10"
     inkscape:pageopacity="0"
     inkscape:pageshadow="2"
     inkscape:window-width="2509"
     inkscape:window-height="1011"
     id="namedview4"
     showgrid="false"
     inkscape:zoom="1.7383042"
     inkscape:cx="-29.338938"
     inkscape:cy="55.513874"
     inkscape:window-x="51"
     inkscape:window-y="32"
     inkscape:window-maximized="1"
     inkscape:current-layer="svg2"
     inkscape:showpageshadow="2"
     inkscape:pagecheckerboard="0"
     inkscape:deskcolor="#d1d1d1" /><path
     style="fill:#999999;stroke-width:1.33333"
     d="m 80.460539,171.77855 c -0.286914,-0.46424 -1.068709,-4.83945 -1.737318,-9.7227 -0.668609,-4.88325 -1.295048,-8.87942 -1.392093,-8.88038 -0.230247,-0.002 -7.019712,-3.74022 -9.227429,-5.0802 -1.262178,-0.76608 -3.957024,-0.11358 -10.233464,2.47777 -5.260656,2.17197 -8.884295,3.14179 -9.472117,2.53509 -2.074398,-2.14104 -13.696794,-23.09112 -13.696794,-24.68931 0,-0.9373 3.054323,-4.0057 6.787398,-6.81867 l 6.787397,-5.11449 v -6.81351 -6.81351 l -6.787397,-5.114495 c -3.733075,-2.81297 -6.787398,-5.881379 -6.787398,-6.818675 0,-1.603206 11.625918,-22.552308 13.707557,-24.700071 0.602051,-0.621181 4.140186,0.305753 9.443217,2.473971 8.440068,3.450842 8.497027,3.458404 11.968226,1.589039 7.253332,-3.906176 7.747182,-4.652713 8.964981,-13.55195 0.631148,-4.612218 1.50329,-8.753465 1.938083,-9.20277 0.434801,-0.449305 7.35698,-0.685157 15.382625,-0.524116 l 14.592077,0.292804 1.57235,9.23079 1.57235,9.230791 4.976,3.085927 c 2.7368,1.697261 5.34011,3.085929 5.78512,3.085929 0.44502,0 4.26042,-1.450084 8.47868,-3.222408 4.21826,-1.772325 8.22279,-3.010116 8.89896,-2.750646 1.59848,0.613394 14.3146,22.821592 14.3146,24.999882 0,0.916853 -3.05432,3.968533 -6.78739,6.781503 l -6.7874,5.114495 v 6.81351 6.81351 l 6.7874,5.11449 c 3.73307,2.81297 6.78739,5.88137 6.78739,6.81867 0,1.59819 -11.62239,22.54827 -13.69679,24.68931 -0.58784,0.60672 -4.16571,-0.34424 -9.35313,-2.48596 l -8.4011,-3.46858 -5.67508,2.9713 -5.67508,2.97129 -1.39844,9.47286 -1.39844,9.47287 -14.857945,0.29034 c -8.171865,0.15971 -15.092692,-0.0895 -15.379606,-0.5537 z m 23.195661,-41.7215 c 11.49795,-4.80297 16.9625,-18.29148 11.86809,-29.29487 -8.02067,-17.323848 -32.030427,-17.323848 -40.051103,0 -8.120889,17.5403 10.352923,36.74292 28.183013,29.29487 z"
     id="path817"
     inkscape:connector-curvature="0" /></svg>
