<?xml version="1.0" encoding="UTF-8" standalone="no"?>
<svg
   width="48"
   height="48"
   viewBox="0 0 48 48"
   version="1.1"
   id="svg6"
   sodipodi:docname="wind_power.svg"
   inkscape:version="1.1.2 (0a00cf5339, 2022-02-04)"
   xmlns:inkscape="http://www.inkscape.org/namespaces/inkscape"
   xmlns:sodipodi="http://sodipodi.sourceforge.net/DTD/sodipodi-0.dtd"
   xmlns="http://www.w3.org/2000/svg"
   xmlns:svg="http://www.w3.org/2000/svg"
   xmlns:rdf="http://www.w3.org/1999/02/22-rdf-syntax-ns#"
   xmlns:cc="http://creativecommons.org/ns#"
   xmlns:dc="http://purl.org/dc/elements/1.1/">
  <metadata
     id="metadata12">
    <rdf:RDF>
      <cc:Work
         rdf:about="">
        <dc:format>image/svg+xml</dc:format>
        <dc:type
           rdf:resource="http://purl.org/dc/dcmitype/StillImage" />
      </cc:Work>
    </rdf:RDF>
  </metadata>
  <defs
     id="defs10">
    <marker
       inkscape:stockid="Arrow1Lstart"
       orient="auto"
       refY="0.0"
       refX="0.0"
       id="Arrow1Lstart"
       style="overflow:visible"
       inkscape:isstock="true">
      <path
         id="path4598"
         d="M 0.0,0.0 L 5.0,-5.0 L -12.5,0.0 L 5.0,5.0 L 0.0,0.0 z "
         style="fill-rule:evenodd;stroke:#000000;stroke-width:1.0pt"
         transform="scale(0.8) translate(12.5,0)" />
    </marker>
  </defs>
  <sodipodi:namedview
     pagecolor="#ffffff"
     bordercolor="#666666"
     borderopacity="1"
     objecttolerance="10"
     gridtolerance="10"
     guidetolerance="10"
     inkscape:pageopacity="0"
     inkscape:pageshadow="2"
     inkscape:window-width="2495"
     inkscape:window-height="1016"
     id="namedview8"
     showgrid="false"
     inkscape:zoom="3.0052038"
     inkscape:cx="66.21847"
     inkscape:cy="-22.793795"
     inkscape:window-x="65"
     inkscape:window-y="27"
     inkscape:window-maximized="1"
     inkscape:current-layer="svg6"
     inkscape:pagecheckerboard="0" />
  <path
     style="fill:#37c8ab;fill-opacity:1;stroke-width:0.066147"
     d="M 4.8016926,44.487649 C 2.4893281,44.458362 2.1648285,44.441422 1.9797762,44.340138 1.6458014,44.157407 1.4942949,43.91669 1.4945821,43.569206 c 0,-0.409206 0.1916083,-0.710501 0.5524293,-0.870095 0.2665959,-0.117937 0.5131888,-0.127024 3.9174436,-0.144328 l 3.6329018,-0.01847 v -5.409122 -5.409122 l -0.1984511,0.04072 c -0.9313392,0.191078 -3.381189,0.805617 -3.9674033,0.995225 -0.7743774,0.250464 -1.0666233,0.262002 -1.299482,0.05129 -0.2374048,-0.214856 -0.1029823,-0.984423 0.20027,-1.146735 0.075418,-0.04034 0.3383773,-0.135481 0.5843959,-0.211373 0.2459708,-0.0759 0.5663072,-0.192575 0.7118319,-0.259283 1.0177639,-0.46656 2.4351586,-1.045491 2.7120432,-1.107716 0.1818939,-0.04087 0.4946214,-0.09272 0.6949392,-0.115195 l 0.3641707,-0.04087 0.098819,-0.308593 c 0.072499,-0.22625 0.1525115,-0.335415 0.2998545,-0.409101 0.198978,-0.0995 0.200174,-0.10327 0.120162,-0.379546 -0.188258,-0.650263 -0.293394,-1.935168 -0.294686,-3.601539 0,-2.24132 0.05915,-2.507547 0.5942542,-2.597949 0.309282,-0.05226 0.588702,0.05141 0.661919,0.245569 0.117195,0.310718 0.579276,4.179943 0.645746,5.406892 0.03876,0.717823 0.06211,0.839162 0.178927,0.933756 0.10346,0.08378 0.140595,0.208017 0.161843,0.541528 0.02728,0.430588 0.02871,0.433014 0.247358,0.474034 0.266979,0.05009 4.237397,2.04832 4.442022,2.235573 0.338712,0.310029 0.218167,0.900694 -0.212856,1.04295 -0.135092,0.0446 -0.353786,0.06625 -0.48596,0.04813 -0.39006,-0.05345 -2.817179,-1.046697 -3.936298,-1.610826 -0.409967,-0.206659 -0.574538,-0.263438 -0.545682,-0.188249 0.02249,0.05921 0.04115,2.508844 0.04115,5.443615 l 4.8e-5,5.335958 2.563168,0.01857 c 1.409738,0.01024 3.433829,-4.79e-4 4.497964,-0.02412 l 1.934794,-0.04269 v -8.189511 -8.189515 l -0.227164,-0.07496 c -0.203859,-0.06729 -0.58698,-0.417557 -0.740161,-0.67673 -0.03206,-0.05394 -0.251426,-0.165203 -0.487922,-0.247244 -3.345537,-1.160662 -5.935122,-2.115981 -6.191907,-2.284212 -0.238219,-0.156091 -0.446241,-0.649339 -0.393171,-0.932263 0.06513,-0.347091 0.318996,-0.598786 0.694844,-0.688957 0.38001,-0.09116 0.30842,-0.108376 2.615999,0.629125 2.41104,0.978701 3.287204,1.308684 4.413166,1.668538 l 0.340052,0.04159 c 0.286503,0.03503 0.355701,0.02168 0.439302,-0.08475 0.622727,-0.792725 0.763514,-0.970092 0.792753,-0.998445 0.08197,-0.07957 1.403709,-1.538988 1.85708,-2.050554 0.695322,-0.78459 1.745339,-2.038198 2.691035,-3.212771 0.889658,-1.104978 1.116774,-1.275665 1.581534,-1.188474 0.366372,0.06873 0.602964,0.210812 0.716426,0.430267 0.131647,0.254584 0.127627,0.683473 -0.0091,0.94804 -0.155096,0.300616 -0.830558,1.196141 -2.116928,2.806684 -0.612821,0.767252 -1.530953,1.923315 -2.040313,2.569017 -0.509313,0.645707 -0.990535,1.237376 -1.069351,1.314824 -0.126096,0.12388 -0.137772,0.184272 -0.09724,0.502144 0.06207,0.487103 -0.01962,0.974398 -0.194671,1.160714 l -0.14251,0.151674 0.121311,0.534761 c 0.07197,0.317461 0.02536,0.122096 1.674659,4.618135 0.633542,1.727045 1.336521,3.388401 1.400741,3.512664 0.36063,0.697939 -0.357375,1.370703 -0.824816,0.737544 -0.425184,-0.575931 -1.38739,-2.765683 -3.414974,-6.4171 -0.828644,-1.49222 0.110161,-2.390238 0.107529,-2.295817 -0.0048,0.115123 0.69336,3.902628 0.690345,9.181342 l -0.0048,6.787626 5.407528,0.01259 c 2.974141,0.0069 6.070119,-0.0083 6.879956,-0.03383 l 1.47238,-0.04642 v -5.470859 c 0,-3.008969 -0.02106,-5.489957 -0.0445,-5.513301 -0.02345,-0.02335 -0.09585,0.04546 -0.161221,0.152856 -0.190652,0.313513 -0.854486,0.574031 -2.87695,1.129054 -1.400024,0.384207 -1.674324,0.406842 -1.872776,0.154555 -0.222474,-0.282862 -0.162417,-0.776033 0.121789,-0.999756 0.117483,-0.09249 1.051597,-0.553238 2.799043,-1.380581 1.135437,-0.53758 1.738306,-0.752723 2.109272,-0.752723 0.146625,0 0.172084,-0.02388 0.143227,-0.134269 -0.05063,-0.193595 0.150885,-0.673209 0.37178,-0.884844 0.176821,-0.169409 0.183569,-0.193977 0.0992,-0.363046 -0.265113,-0.531498 -0.519841,-3.04688 -0.475911,-4.69977 0.04068,-1.521047 0.138873,-1.723408 0.838024,-1.723408 0.470263,0 0.484237,0.03891 0.726427,2.023493 0.119444,0.978978 0.289518,2.317111 0.377857,2.973628 0.08839,0.656522 0.160695,1.274172 0.160695,1.372551 0,0.11987 0.03493,0.178874 0.105805,0.178874 0.169309,0 0.555636,0.428693 0.555636,0.616525 0,0.178329 0.03111,0.191068 0.678429,0.27632 0.509122,0.06706 4.91822,1.715431 5.150313,1.925458 0.189742,0.171701 0.224149,0.50882 0.08169,0.799841 -0.174142,0.355806 -0.35594,0.430626 -0.94938,0.390739 -0.39609,-0.02661 -0.869512,-0.159129 -2.348256,-0.657234 -2.063474,-0.695093 -2.806555,-0.962397 -2.922362,-1.051286 -0.05187,-0.03982 -0.102169,-0.01488 -0.149927,0.07432 -0.03924,0.07382 -0.218934,0.186479 -0.39877,0.250345 l -0.32694,0.116114 0.01388,5.624466 0.01388,5.624471 3.505753,0.0024 c 3.870259,0.0024 3.8727,0.0024 4.181168,0.407057 0.13983,0.183325 0.178544,0.308263 0.181176,0.584923 0.0048,0.417566 -0.145333,0.663805 -0.513571,0.846886 -0.234486,0.116592 -0.965794,0.121636 -19.178304,0.132293 -10.414039,0.0061 -20.1103125,-0.0038 -21.5473753,-0.02201 z"
     id="path870"
     sodipodi:nodetypes="sscsscccsssssssscsssssssssssssssscsccccssssssccssssssssssssscssssssscsscsssssssssssssssssssssssssscccsscssss" />
</svg>
