<?xml version="1.0" encoding="UTF-8" standalone="no"?>
<!-- Created with Inkscape (http://www.inkscape.org/) -->

<svg
   xmlns:dc="http://purl.org/dc/elements/1.1/"
   xmlns:cc="http://creativecommons.org/ns#"
   xmlns:rdf="http://www.w3.org/1999/02/22-rdf-syntax-ns#"
   xmlns:svg="http://www.w3.org/2000/svg"
   xmlns="http://www.w3.org/2000/svg"
   xmlns:sodipodi="http://sodipodi.sourceforge.net/DTD/sodipodi-0.dtd"
   xmlns:inkscape="http://www.inkscape.org/namespaces/inkscape"
   width="128"
   height="128"
   viewBox="0 0 128 128"
   id="svg2"
   version="1.1"
   inkscape:version="0.92.2 (5c3e80d, 2017-08-06)"
   sodipodi:docname="GridCal_icon.svg">
  <defs
     id="defs4">
    <filter
       inkscape:collect="always"
       style="color-interpolation-filters:sRGB"
       id="filter4838"
       x="-0.0045394213"
       width="1.0090788"
       y="-0.0088463527"
       height="1.0176927">
      <feGaussianBlur
         inkscape:collect="always"
         stdDeviation="0.23482845"
         id="feGaussianBlur4840" />
    </filter>
  </defs>
  <sodipodi:namedview
     id="base"
     pagecolor="#ffffff"
     bordercolor="#666666"
     borderopacity="1.0"
     inkscape:pageopacity="0.0"
     inkscape:pageshadow="2"
     inkscape:zoom="2"
     inkscape:cx="32.15332"
     inkscape:cy="-16.51615"
     inkscape:document-units="px"
     inkscape:current-layer="layer1"
     showgrid="false"
     units="px"
     inkscape:window-width="1859"
     inkscape:window-height="1025"
     inkscape:window-x="61"
     inkscape:window-y="27"
     inkscape:window-maximized="1" />
  <metadata
     id="metadata7">
    <rdf:RDF>
      <cc:Work
         rdf:about="">
        <dc:format>image/svg+xml</dc:format>
        <dc:type
           rdf:resource="http://purl.org/dc/dcmitype/StillImage" />
        <dc:title />
      </cc:Work>
    </rdf:RDF>
  </metadata>
  <g
     inkscape:label="Capa 1"
     inkscape:groupmode="layer"
     id="layer1"
     transform="translate(0,-924.36216)">
    <rect
       style="opacity:1;fill:none;fill-opacity:0.90566041;stroke:#00aa88;stroke-width:4;stroke-linecap:round;stroke-miterlimit:4;stroke-dasharray:none"
       id="rect4862"
       width="126.03056"
       height="127.075"
       x="0.98471892"
       y="924.30243" />
    <path
       style="fill:none;fill-rule:evenodd;stroke:#00aa88;stroke-width:2.92731893;stroke-linecap:round;stroke-linejoin:miter;stroke-miterlimit:4;stroke-dasharray:none;stroke-opacity:1;filter:url(#filter4838)"
       d="m 4.0231658,1008.0454 c 0,0 2.6412394,-52.71272 7.4463362,-52.79047 4.973745,-0.0806 4.000488,62.94767 9.281635,62.95847 3.91287,0.01 4.389689,-49.87558 8.612569,-50.00695 2.973847,-0.0924 4.833066,40.53225 8.811378,40.45905 2.796089,-0.051 5.491588,-32.18217 9.692884,-32.23214 3.015607,-0.0359 5.218886,29.16274 9.043738,29.07514 3.211597,-0.074 6.603742,-23.99069 9.815046,-23.88495 2.7912,0.0919 4.092578,19.21775 7.532255,19.24275 2.632035,0.019 5.251367,-15.30499 8.551487,-15.39281 2.382577,-0.0636 3.287968,10.68738 5.802789,10.62833 1.761988,-0.0409 3.28867,-6.81693 5.924964,-6.7191 1.857678,0.0691 3.058605,2.655 4.886564,2.6877 2.383799,0.0431 4.702959,-0.88838 7.085499,-0.97739 2.60944,-0.0971 5.20852,0.40718 7.8185,0.48864 2.11647,0.0658 6.35253,0 6.35253,0 l 6.90229,-0.0615"
       id="path4166"
       inkscape:connector-curvature="0"
       sodipodi:nodetypes="cssssssssssssaacc"
       transform="matrix(1.0238131,0,0,1.025845,-3.3020743,-24.396342)" />
  </g>
</svg>
