<?xml version="1.0" encoding="UTF-8" standalone="no"?>
<svg
   width="48"
   height="48"
   viewBox="0 0 48 48"
   version="1.1"
   id="svg6"
   sodipodi:docname="solar_power.svg"
   inkscape:version="1.1.2 (0a00cf5339, 2022-02-04)"
   xmlns:inkscape="http://www.inkscape.org/namespaces/inkscape"
   xmlns:sodipodi="http://sodipodi.sourceforge.net/DTD/sodipodi-0.dtd"
   xmlns="http://www.w3.org/2000/svg"
   xmlns:svg="http://www.w3.org/2000/svg"
   xmlns:rdf="http://www.w3.org/1999/02/22-rdf-syntax-ns#"
   xmlns:cc="http://creativecommons.org/ns#"
   xmlns:dc="http://purl.org/dc/elements/1.1/">
  <metadata
     id="metadata12">
    <rdf:RDF>
      <cc:Work
         rdf:about="">
        <dc:format>image/svg+xml</dc:format>
        <dc:type
           rdf:resource="http://purl.org/dc/dcmitype/StillImage" />
      </cc:Work>
    </rdf:RDF>
  </metadata>
  <defs
     id="defs10" />
  <sodipodi:namedview
     pagecolor="#ffffff"
     bordercolor="#666666"
     borderopacity="1"
     objecttolerance="10"
     gridtolerance="10"
     guidetolerance="10"
     inkscape:pageopacity="0"
     inkscape:pageshadow="2"
     inkscape:window-width="2495"
     inkscape:window-height="1016"
     id="namedview8"
     showgrid="false"
     inkscape:zoom="3.4766083"
     inkscape:cx="126.27249"
     inkscape:cy="-64.57443"
     inkscape:window-x="65"
     inkscape:window-y="27"
     inkscape:window-maximized="1"
     inkscape:current-layer="svg6"
     inkscape:pagecheckerboard="0" />
  <path
     style="fill:#37c8ab;fill-opacity:1;stroke-width:0.0679173"
     d="M 3.0617407,44.641032 C 2.3120712,44.489468 1.8004408,43.918187 1.7903834,43.221449 c -0.00475,-0.315441 0.030818,-0.424415 0.2350285,-0.723853 0.1723954,-0.252793 0.323261,-0.387001 0.5333455,-0.474445 0.2829649,-0.117782 1.0200745,-0.12198 21.6320716,-0.123191 l 21.339129,-0.0014 0.305915,0.13935 c 0.375203,0.170914 0.648986,0.496459 0.760779,0.90463 0.109833,0.401008 0.07707,0.618738 -0.147328,0.979037 -0.218499,0.350836 -0.677683,0.643949 -1.161862,0.741654 -0.535806,0.108129 -41.6881069,0.08635 -42.2257213,-0.02237 z m 2.1150144,-5.41665 C 4.8178042,39.124701 4.5001275,38.901966 4.3642388,38.654686 4.181278,38.321767 4.2734089,37.825137 4.7102642,36.789445 c 0.2128054,-0.504508 0.9268989,-2.281057 1.5868735,-3.947881 0.6599745,-1.66682 1.36931,-3.430823 1.5762984,-3.919997 0.2069932,-0.489175 0.4729489,-1.128047 0.5910163,-1.419716 0.2134275,-0.527248 0.4615952,-0.828552 0.8454616,-1.026499 0.1323273,-0.06823 0.62352,-0.09546 2.012945,-0.111576 l 1.837899,-0.02132 0.0014,-0.34103 c 9.5e-4,-0.190867 0.0588,-0.457075 0.131587,-0.604564 0.162641,-0.329581 2.409907,-2.46897 2.755619,-2.623335 0.272651,-0.121743 0.984769,-0.149508 1.264833,-0.04931 0.271136,0.097 0.672302,0.461277 0.831639,0.755173 0.18222,0.336101 0.191769,0.847774 0.02165,1.161372 -0.06833,0.125974 -0.472802,0.562573 -0.898826,0.97022 l -0.774585,0.741179 h 7.54616 7.546166 L 31.378068,26.1051 c -0.114582,-0.135879 -0.447174,-0.461876 -0.739095,-0.724431 -0.668939,-0.601644 -0.775064,-0.784424 -0.77477,-1.334394 2.8e-4,-0.511968 0.181907,-0.889509 0.557687,-1.159207 0.202638,-0.145438 0.342611,-0.184271 0.753663,-0.209092 0.349715,-0.02113 0.579981,-9.5e-4 0.749508,0.06609 0.224222,0.08848 1.801667,1.416292 2.496819,2.101681 0.430409,0.424367 0.602198,0.77723 0.572792,1.176548 l -0.0243,0.329952 0.315069,0.006 c 0.173288,0.0033 1.008937,0.01073 1.856998,0.01643 1.497584,0.01007 1.551744,0.01515 1.883182,0.175496 0.187688,0.09081 0.400871,0.240252 0.473739,0.332089 0.07287,0.09184 0.30748,0.610476 0.521363,1.152535 0.213883,0.542054 0.530411,1.341322 0.703396,1.776145 0.172984,0.434823 0.403616,1.027767 0.512514,1.317646 0.228137,0.607294 1.038012,2.687259 1.551979,3.985883 0.560045,1.415052 1.108715,2.96964 1.108715,3.141414 0,0.267898 -0.268578,0.670744 -0.573942,0.860866 l -0.291114,0.181251 -4.62608,0.01097 c -4.994916,0.01187 -5.132276,0.0583 -5.335627,-0.288036 -0.105402,-0.179509 -0.165422,-1.036153 -0.896355,-3.840602 -0.325825,-1.250117 -0.704738,-2.673176 -0.842037,-3.16235 -0.137299,-0.489175 -0.396983,-1.460117 -0.57708,-2.157647 l -0.327445,-1.268238 h -2.574088 -2.574088 l 0.01439,1.652394 0.01439,1.652389 1.384244,-0.0078 c 1.221194,-0.0069 5.39789,-0.192093 5.659136,-0.08154 0.162869,0.06892 1.112626,0.463352 1.194524,0.549799 0.480556,0.507257 -0.101635,1.347044 -0.711161,1.607444 -0.257769,0.110118 -4.763786,0.09285 -6.066698,0.09412 l -1.480591,0.0014 -0.0062,1.558587 -0.0062,1.558586 1.767574,0.0014 c 1.46335,9.49e-4 6.382434,-0.0043 6.599131,-0.01505 9.170427,-0.09908 0.76699,1.261684 1.444024,1.569099 1.64907,0.748772 -3.831652,0.538968 -9.711857,0.562079 -3.505854,0.01377 -12.714004,0.0092 -12.714004,0.0092 -8.8656853,-0.762571 0.354356,-1.928188 1.225293,-1.959999 l 4.240112,-0.06377 2.570655,-0.02502 2.419104,-0.1316 0.01121,-1.531743 0.01121,-1.531743 -1.78539,-0.0014 c -1.60063,-0.0014 -1.798245,-0.01282 -2.241877,-0.01966 -0.363737,-0.0056 -5.820616,0.215365 -5.912434,-0.169152 -0.12661,-0.53024 1.328857,-1.881144 1.880907,-2.030125 0.969913,-0.04592 5.387755,0.04625 6.317418,0.04625 h 1.6903 l 0.03101,-1.597648 c 0.01705,-0.878706 0.0188,-1.61988 0.0038,-1.647056 -0.01491,-0.02716 -1.327024,-0.04942 -2.915787,-0.04942 h -2.888659 l -0.323617,1.235297 c -0.177989,0.67941 -0.455085,1.768937 -0.615761,2.421176 -0.160681,0.652234 -0.48123,1.867763 -0.712327,2.701173 -0.231102,0.833414 -0.55837,2.034118 -0.727261,2.668237 -0.168896,0.634119 -0.364507,1.227058 -0.4347,1.317646 -0.07019,0.09059 -0.23433,0.215873 -0.364758,0.278416 -0.217906,0.104477 -0.580356,0.112497 -4.4670424,0.09882 -2.8681646,-0.01011 -4.3152793,-0.03861 -4.4951299,-0.08854 z m 33.0964419,-2.132504 2.812554,-9.49e-4 -0.274298,-0.576472 C 40.660589,36.197398 40.36638,35.522926 40.157656,35.015631 l -0.379499,-0.92235 -2.762055,-0.01724 -2.762056,-0.01724 0.09145,0.280747 c 0.0503,0.154413 0.25877,0.852931 0.463268,1.552266 0.339814,1.16208 0.383866,1.268475 0.511845,1.23619 0.07702,-0.01942 1.40568,-0.03571 2.952585,-0.03623 z M 12.708561,36.712153 c 0.102877,-0.330678 0.666503,-2.249208 0.740329,-2.519998 0.02351,-0.08628 -0.298782,-0.101015 -2.538322,-0.116101 l -2.5652562,-0.01728 -0.046061,0.172785 c -0.025357,0.09503 -0.105802,0.295506 -0.1787917,0.445507 -0.2030994,0.417391 -0.9809941,2.282761 -0.9809941,2.352389 0,0.03704 1.0841417,0.06152 2.7256279,0.06152 h 2.7256331 z m 1.577447,-5.715293 c 0.145163,-0.471059 0.342303,-1.108469 0.43809,-1.416468 0.09578,-0.308004 0.195312,-0.656356 0.221172,-0.77412 l 0.04701,-0.214116 H 12.756377 10.52048 l -0.282172,0.576467 c -0.155201,0.31706 -0.3052881,0.650592 -0.3335276,0.741179 -0.028254,0.09059 -0.1849267,0.490823 -0.3481812,0.88941 C 9.39334,31.197803 9.238837,31.605835 9.2132614,31.705953 l -0.046488,0.18203 2.4276526,-0.01733 2.427658,-0.01733 z m 24.710409,0.869028 c 0,-0.03049 -0.568092,-1.477301 -0.955275,-2.432919 l -0.340009,-0.839189 -2.472758,-9.49e-4 c -2.3225,-9.5e-4 -2.470535,0.0062 -2.436164,0.114482 0.03041,0.0958 0.576894,2.048901 0.820319,2.931762 l 0.06812,0.247061 h 2.657884 c 1.461836,-5e-6 2.657884,-0.0092 2.657884,-0.02037 z M 23.523029,24.86296 c -3.105932,-0.333917 -5.278902,-2.181969 -5.91588,-5.031296 -0.402704,-1.801384 -0.0033,-3.614358 1.118403,-5.074802 2.239938,-2.916756 6.547563,-3.548349 9.628532,-1.411752 1.62376,1.126042 2.510511,2.612057 2.739233,4.59038 0.177899,1.538733 -0.433356,3.334927 -1.572348,4.620415 -0.892904,1.007743 -2.702939,1.969605 -4.157414,2.209264 -0.487883,0.08039 -1.501457,0.134245 -1.840526,0.09779 z m 1.732312,-2.299125 c 0.674372,-0.149621 1.542873,-0.573271 2.035927,-0.993121 1.652228,-1.406919 1.992261,-3.411938 0.880891,-5.194204 -0.561951,-0.901176 -1.348611,-1.526259 -2.338623,-1.858266 -0.632072,-0.211975 -1.833806,-0.287875 -2.539329,-0.160391 -1.476375,0.266777 -2.839293,1.469323 -3.343321,2.94992 -0.523027,1.536396 -0.109734,3.037986 1.157478,4.205393 0.542823,0.500073 1.228915,0.885107 1.863204,1.045636 0.495633,0.125437 1.728822,0.128158 2.283773,0.005 z M 9.8865328,18.778772 C 8.8271499,18.534427 8.4575623,17.256854 9.2173367,16.465516 c 0.4007949,-0.417443 0.6477375,-0.456951 2.8533873,-0.456523 1.073828,1.99e-4 2.0068,0.02953 2.15268,0.06766 1.344964,0.351505 1.740265,1.936802 0.635343,2.547957 l -0.332686,0.184019 -2.205484,0.01144 c -1.213017,0.0063 -2.308336,-0.0123 -2.4340442,-0.04126 z M 33.85029,18.74463 c -0.931355,-0.312315 -1.167979,-1.60751 -0.421935,-2.309519 0.421611,-0.39672 0.623376,-0.426498 2.889729,-0.426498 h 1.950685 l 0.370237,0.173601 c 0.632998,0.296817 1.008078,0.978259 0.847438,1.539621 -0.100534,0.351315 -0.466648,0.782961 -0.805096,0.949208 -0.263922,0.129639 -0.403124,0.138429 -2.415529,0.152532 -1.702295,0.01192 -2.192277,-0.0043 -2.415529,-0.07895 z M 16.648264,12.823493 c -0.373172,-0.131069 -3.163651,-2.677069 -3.309141,-3.0192201 -0.270481,-0.636089 -0.0095,-1.4256702 0.578323,-1.7498381 0.39797,-0.2194581 0.96313,-0.2452284 1.355606,-0.061812 0.50691,0.2368994 3.068253,2.4991042 3.294188,2.9094582 0.264646,0.48067 0.161754,1.111375 -0.25104,1.538823 -0.36492,0.377879 -1.161272,0.560545 -1.667936,0.382589 z m 14.241901,-0.0082 c -0.418815,-0.12303 -0.777913,-0.400135 -0.931809,-0.719018 -0.155386,-0.321974 -0.173231,-0.880691 -0.03765,-1.179179 0.05296,-0.1166 0.75503,-0.824008 1.560158,-1.5720151 1.502742,-1.39613 1.661659,-1.5051325 2.194396,-1.5051325 0.83355,0 1.610352,0.6791301 1.610352,1.4078725 0,0.557473 -0.100441,0.672349 -2.500493,2.8598831 -0.831254,0.757647 -1.224684,0.904567 -1.894944,0.707622 z m -6.8927,-2.511602 c -0.405079,-0.117242 -0.797977,-0.4800581 -0.897867,-0.8291081 -0.04483,-0.15663 -0.0649,-0.9709844 -0.05224,-2.1183148 l 0.02056,-1.8638646 0.201922,-0.2266141 c 0.307681,-0.3453084 0.632077,-0.5348982 0.978012,-0.5715854 0.689145,-0.073094 1.369818,0.2459311 1.657721,0.7769593 0.126995,0.2342402 0.137969,0.3926275 0.137608,1.9865667 -2.09e-4,1.0603705 -0.03039,1.8342339 -0.07776,1.9955699 -0.105641,0.359825 -0.528431,0.7263921 -0.984926,0.8539571 -0.434875,0.121519 -0.552325,0.121092 -0.983036,-0.0038 z"
     id="path887"
     sodipodi:nodetypes="ccssccsssscccsssssssccsssssscccssssccssccsssssssssccssssccccccsssccccscsscsccccccsscscccscsssssccccccsscccsssccccsccsssccssscccscsscccscsccsscsccsscsssssssssssssscsscscccccsscsssscsssssssssssssssscsscssscsscc" />
</svg>
