<?xml version="1.0" encoding="UTF-8" standalone="no"?>
<!-- Created with Inkscape (http://www.inkscape.org/) -->

<svg
   xmlns:dc="http://purl.org/dc/elements/1.1/"
   xmlns:cc="http://creativecommons.org/ns#"
   xmlns:rdf="http://www.w3.org/1999/02/22-rdf-syntax-ns#"
   xmlns:svg="http://www.w3.org/2000/svg"
   xmlns="http://www.w3.org/2000/svg"
   xmlns:sodipodi="http://sodipodi.sourceforge.net/DTD/sodipodi-0.dtd"
   xmlns:inkscape="http://www.inkscape.org/namespaces/inkscape"
   version="1.1"
   id="svg2"
   width="192"
   height="192"
   viewBox="0 0 192 192"
   sodipodi:docname="bars.svg"
   inkscape:version="0.92.2 (5c3e80d, 2017-08-06)">
  <metadata
     id="metadata8">
    <rdf:RDF>
      <cc:Work
         rdf:about="">
        <dc:format>image/svg+xml</dc:format>
        <dc:type
           rdf:resource="http://purl.org/dc/dcmitype/StillImage" />
        <dc:title />
      </cc:Work>
    </rdf:RDF>
  </metadata>
  <defs
     id="defs6" />
  <sodipodi:namedview
     pagecolor="#ffffff"
     bordercolor="#666666"
     borderopacity="1"
     objecttolerance="10"
     gridtolerance="10"
     guidetolerance="10"
     inkscape:pageopacity="0"
     inkscape:pageshadow="2"
     inkscape:window-width="784"
     inkscape:window-height="480"
     id="namedview4"
     showgrid="false"
     inkscape:zoom="1.2291667"
     inkscape:cx="-47.999997"
     inkscape:cy="96.000003"
     inkscape:window-x="57"
     inkscape:window-y="27"
     inkscape:window-maximized="0"
     inkscape:current-layer="svg2" />
  <path
     style="fill:#999999;stroke-width:1.33333337"
     d="m 34,167.5618 c -1.466667,-0.6178 -4.166667,-2.73724 -6,-4.70985 l -3.333333,-3.58656 V 96.731782 34.198175 L 29.025641,29.8392 33.384616,25.480226 H 96 158.61539 l 4.35897,4.358974 4.35897,4.358975 v 62.615384 62.615391 l -4.35798,4.35897 -4.358,4.35897 -60.975342,0.2691 C 64.105569,168.56399 35.466667,168.17961 34,167.5618 Z M 72,108.81356 V 80.813559 h -8 -8 v 28.000001 28 h 8 8 z m 32,-12.000001 v -40 h -8 -8 v 40 40.000001 h 8 8 z m 32,24.000001 v -16 h -8 -8 v 16 16 h 8 8 z"
     id="path817"
     inkscape:connector-curvature="0" />
</svg>
