<?xml version="1.0" encoding="UTF-8" standalone="no"?>
<!-- Created with Inkscape (http://www.inkscape.org/) -->

<svg
   xmlns:dc="http://purl.org/dc/elements/1.1/"
   xmlns:cc="http://creativecommons.org/ns#"
   xmlns:rdf="http://www.w3.org/1999/02/22-rdf-syntax-ns#"
   xmlns:svg="http://www.w3.org/2000/svg"
   xmlns="http://www.w3.org/2000/svg"
   xmlns:sodipodi="http://sodipodi.sourceforge.net/DTD/sodipodi-0.dtd"
   xmlns:inkscape="http://www.inkscape.org/namespaces/inkscape"
   version="1.1"
   id="svg2"
   width="192"
   height="192"
   viewBox="0 0 192 192"
   sodipodi:docname="new.svg"
   inkscape:version="0.92.2 (5c3e80d, 2017-08-06)">
  <metadata
     id="metadata8">
    <rdf:RDF>
      <cc:Work
         rdf:about="">
        <dc:format>image/svg+xml</dc:format>
        <dc:type
           rdf:resource="http://purl.org/dc/dcmitype/StillImage" />
        <dc:title />
      </cc:Work>
    </rdf:RDF>
  </metadata>
  <defs
     id="defs6" />
  <sodipodi:namedview
     pagecolor="#ffffff"
     bordercolor="#666666"
     borderopacity="1"
     objecttolerance="10"
     gridtolerance="10"
     guidetolerance="10"
     inkscape:pageopacity="0"
     inkscape:pageshadow="2"
     inkscape:window-width="1863"
     inkscape:window-height="1025"
     id="namedview4"
     showgrid="false"
     inkscape:zoom="1.2291667"
     inkscape:cx="-47.999997"
     inkscape:cy="96.000003"
     inkscape:window-x="57"
     inkscape:window-y="27"
     inkscape:window-maximized="1"
     inkscape:current-layer="svg2" />
  <path
     style="fill:#999999;stroke-width:1.33333337"
     d="m 42.813558,176.37796 c -1.46667,-0.61924 -4.16667,-2.73984 -6,-4.71245 l -3.33333,-3.58656 V 97.545342 27.011735 l 4.35676,-4.358975 4.35676,-4.358974 34.97657,-0.378076 34.976572,-0.378076 24.37995,24.437904 24.37995,24.437905 -0.37995,50.915857 -0.37995,50.91586 -4.35774,4.35764 -4.35775,4.35765 -52.975592,0.2717 c -29.13657,0.14944 -54.17558,-0.23495 -55.64225,-0.85419 z m 86.000002,-38.75084 v -8 h -32.000002 -32 v 8 8 h 32 32.000002 z m 0,-32 v -8.000001 h -32.000002 -32 v 8.000001 8 h 32 32.000002 z m 20,-32.348489 c 0,-0.191669 -9.9,-10.234849 -22,-22.318179 l -22,-21.96969 V 51.30894 73.627119 h 22 c 12.1,0 22,-0.15682 22,-0.348488 z"
     id="path817"
     inkscape:connector-curvature="0" />
</svg>
