<?xml version="1.0" encoding="UTF-8" standalone="no"?>
<svg
   xmlns:dc="http://purl.org/dc/elements/1.1/"
   xmlns:cc="http://creativecommons.org/ns#"
   xmlns:rdf="http://www.w3.org/1999/02/22-rdf-syntax-ns#"
   xmlns:svg="http://www.w3.org/2000/svg"
   xmlns="http://www.w3.org/2000/svg"
   xmlns:sodipodi="http://sodipodi.sourceforge.net/DTD/sodipodi-0.dtd"
   xmlns:inkscape="http://www.inkscape.org/namespaces/inkscape"
   width="48"
   height="48"
   viewBox="0 0 48 48"
   id="svg2"
   version="1.1"
   inkscape:version="0.48.4 r9939"
   sodipodi:docname="continuation_power_flow.svg">
  <metadata
     id="metadata12">
    <rdf:RDF>
      <cc:Work
         rdf:about="">
        <dc:format>image/svg+xml</dc:format>
        <dc:type
           rdf:resource="http://purl.org/dc/dcmitype/StillImage" />
        <dc:title></dc:title>
      </cc:Work>
    </rdf:RDF>
  </metadata>
  <defs
     id="defs10" />
  <sodipodi:namedview
     pagecolor="#ffffff"
     bordercolor="#666666"
     borderopacity="1"
     objecttolerance="10"
     gridtolerance="10"
     guidetolerance="10"
     inkscape:pageopacity="0"
     inkscape:pageshadow="2"
     inkscape:window-width="1858"
     inkscape:window-height="1058"
     id="namedview8"
     showgrid="false"
     inkscape:zoom="5.6568543"
     inkscape:cx="-44.465388"
     inkscape:cy="34.639157"
     inkscape:window-x="54"
     inkscape:window-y="-8"
     inkscape:window-maximized="1"
     inkscape:current-layer="g4150" />
  <path
     d="M0 0h48v48h-48z"
     fill="none"
     id="path4" />
  <path
     d="M38 8h-8l-15.79 25.26-5.21-9.26 9-16h-8l-9 16 9 16h8l15.79-25.26 5.21 9.26-9 16h8l9-16z"
     id="path6" />
  <g
     id="g4150">
    <g
       transform="translate(1.0067283,-25.887299)"
       id="g4144" />
    <path
       style="fill:#2ad4ff;fill-opacity:1;fill-rule:evenodd;stroke:#87cdde;stroke-width:0.14381833;stroke-linecap:round;stroke-linejoin:round;stroke-miterlimit:10;stroke-opacity:1;stroke-dasharray:none;stroke-dashoffset:0"
       d=""
       id="path3793"
       inkscape:connector-curvature="0" />
    <path
       style="fill:#87cdde;fill-opacity:1;fill-rule:evenodd;stroke:#87cdde;stroke-width:0.0078125;stroke-linecap:round;stroke-linejoin:round;stroke-miterlimit:10;stroke-opacity:1;stroke-dasharray:none;stroke-dashoffset:0"
       d="m 36.080247,29.692693 0.0088,-0.01531 0.02765,0.0048 c 0.01521,0.0026 0.0338,0.0066 0.04132,0.0087 0.01256,0.0036 0.01145,0.004 -0.01367,0.0044 -0.02577,4.2e-4 -0.04267,0.003 -0.06381,0.0098 l -0.0091,0.0029 0.0088,-0.01531 z"
       id="path3805"
       inkscape:connector-curvature="0" />
    <path
       style="fill:#87cdde;fill-opacity:1;fill-rule:evenodd;stroke:#87cdde;stroke-width:0.0078125;stroke-linecap:round;stroke-linejoin:round;stroke-miterlimit:10;stroke-opacity:1;stroke-dasharray:none;stroke-dashoffset:0"
       d="m 35.962715,29.407741 c 0,-0.0052 0.0207,-0.041 0.02457,-0.04243 0.0026,-9.63e-4 0.02933,0.006 0.05941,0.0154 l 0.05469,0.01715 -0.04883,2.3e-4 c -0.0287,1.36e-4 -0.05728,0.0025 -0.06934,0.0057 -0.01128,0.003 -0.02051,0.0048 -0.02051,0.004 z"
       id="path3807"
       inkscape:connector-curvature="0" />
    <path
       style="fill:#87cdde;fill-opacity:1;fill-rule:evenodd;stroke:#87cdde;stroke-width:0.0078125;stroke-linecap:round;stroke-linejoin:round;stroke-miterlimit:10;stroke-opacity:1;stroke-dasharray:none;stroke-dashoffset:0"
       d=""
       id="path3809"
       inkscape:connector-curvature="0" />
    <path
       style="fill:#87cdde;fill-opacity:1;fill-rule:evenodd;stroke:#87cdde;stroke-width:0.0078125;stroke-linecap:round;stroke-linejoin:round;stroke-miterlimit:10;stroke-opacity:1;stroke-dasharray:none;stroke-dashoffset:0"
       d=""
       id="path3811"
       inkscape:connector-curvature="0" />
    <path
       style="fill:#87cdde;fill-opacity:1;fill-rule:evenodd;stroke:#87cdde;stroke-width:0.0078125;stroke-linecap:round;stroke-linejoin:round;stroke-miterlimit:10;stroke-opacity:1;stroke-dasharray:none;stroke-dashoffset:0"
       d=""
       id="path3817"
       inkscape:connector-curvature="0" />
    <path
       style="fill:#5fbcd3;stroke:#000000;stroke-width:0.45316762px;stroke-linecap:butt;stroke-linejoin:miter;stroke-opacity:1"
       d="m 25.182429,28.822353 c 8.499418,1.355876 19.49768,3.343417 20.169045,7.448439 -0.528148,3.915624 -12.064193,8.004093 -19.68052,8.643867 1.194301,-2.728029 3.296583,-5.456059 3.070718,-8.276043 0.08958,-2.84724 -1.95102,-5.008547 -3.559243,-7.816263 z"
       id="path3819"
       inkscape:connector-curvature="0"
       sodipodi:nodetypes="ccccc" />
  </g>
</svg>
