<?xml version="1.0" encoding="UTF-8" standalone="no"?>
<!-- Created with Inkscape (http://www.inkscape.org/) -->

<svg
   xmlns:dc="http://purl.org/dc/elements/1.1/"
   xmlns:cc="http://creativecommons.org/ns#"
   xmlns:rdf="http://www.w3.org/1999/02/22-rdf-syntax-ns#"
   xmlns:svg="http://www.w3.org/2000/svg"
   xmlns="http://www.w3.org/2000/svg"
   xmlns:sodipodi="http://sodipodi.sourceforge.net/DTD/sodipodi-0.dtd"
   xmlns:inkscape="http://www.inkscape.org/namespaces/inkscape"
   version="1.1"
   id="svg2"
   width="192"
   height="192"
   viewBox="0 0 192 192"
   sodipodi:docname="gear.svg"
   inkscape:version="0.92.2 (5c3e80d, 2017-08-06)">
  <metadata
     id="metadata8">
    <rdf:RDF>
      <cc:Work
         rdf:about="">
        <dc:format>image/svg+xml</dc:format>
        <dc:type
           rdf:resource="http://purl.org/dc/dcmitype/StillImage" />
        <dc:title />
      </cc:Work>
    </rdf:RDF>
  </metadata>
  <defs
     id="defs6" />
  <sodipodi:namedview
     pagecolor="#ffffff"
     bordercolor="#666666"
     borderopacity="1"
     objecttolerance="10"
     gridtolerance="10"
     guidetolerance="10"
     inkscape:pageopacity="0"
     inkscape:pageshadow="2"
     inkscape:window-width="784"
     inkscape:window-height="480"
     id="namedview4"
     showgrid="false"
     inkscape:zoom="1.2291667"
     inkscape:cx="-47.999997"
     inkscape:cy="96.000003"
     inkscape:window-x="57"
     inkscape:window-y="27"
     inkscape:window-maximized="0"
     inkscape:current-layer="svg2" />
  <path
     style="fill:#999999;stroke-width:1.33333337"
     d="m 77.685212,176.62546 c -0.36495,-0.59051 -1.359378,-6.15571 -2.20984,-12.36712 -0.85046,-6.21142 -1.647284,-11.29448 -1.77072,-11.2957 -0.292876,-0.003 -8.928958,-4.7575 -11.737142,-6.46193 -1.605474,-0.97444 -5.033267,-0.14448 -13.016802,3.15168 -6.691473,2.76271 -11.300681,3.99631 -12.048381,3.22459 -2.638601,-2.72336 -17.422101,-29.37153 -17.422101,-31.4044 0,-1.19223 3.885057,-5.09518 8.63346,-8.67324 l 8.63346,-6.50555 v -8.666671 -8.666667 l -8.63346,-6.505556 c -4.748403,-3.578056 -8.63346,-7.481016 -8.63346,-8.673242 0,-2.039252 14.78798,-28.686171 17.435789,-31.41809 0.765807,-0.790132 5.266256,0.388912 12.011621,3.146851 10.735632,4.389415 10.808082,4.399033 15.223394,2.021232 9.226118,-4.968593 9.854293,-5.918176 11.40331,-17.237861 0.802812,-5.866667 1.912158,-11.134266 2.465212,-11.705775 0.553056,-0.571509 9.357958,-0.871509 19.566452,-0.666667 l 18.560886,0.372442 2,11.741416 2,11.741416 6.3294,3.92525 c 3.48117,2.158888 6.79253,3.925251 7.35858,3.925251 0.56605,0 5.41918,-1.844483 10.78474,-4.098851 5.36556,-2.254369 10.45926,-3.828818 11.31934,-3.498777 2.03324,0.780228 18.20794,29.028695 18.20794,31.799445 0,1.166222 -3.88505,5.047904 -8.63345,8.62596 l -8.63347,6.505556 v 8.666667 8.666671 l 8.63347,6.50555 c 4.7484,3.57806 8.63345,7.48101 8.63345,8.67324 0,2.03287 -14.7835,28.68104 -17.4221,31.4044 -0.74772,0.77174 -5.29872,-0.43786 -11.89703,-3.1621 l -10.68606,-4.41197 -7.21862,3.77944 -7.21861,3.77943 -1.77879,12.04933 -1.77879,12.04933 -18.899066,0.36932 c -10.394484,0.20314 -19.19766,-0.11386 -19.562612,-0.7043 z m 29.504508,-53.06908 c 14.62521,-6.10929 21.57602,-23.26646 15.09602,-37.262594 -10.20217,-22.03565 -40.74219,-22.03565 -50.944364,0 -10.329641,22.310974 13.168754,46.736394 35.848344,37.262594 z"
     id="path817"
     inkscape:connector-curvature="0" />
</svg>
