<?xml version="1.0" encoding="UTF-8" standalone="no"?>
<!-- Created with Inkscape (http://www.inkscape.org/) -->

<svg
   xmlns:dc="http://purl.org/dc/elements/1.1/"
   xmlns:cc="http://creativecommons.org/ns#"
   xmlns:rdf="http://www.w3.org/1999/02/22-rdf-syntax-ns#"
   xmlns:svg="http://www.w3.org/2000/svg"
   xmlns="http://www.w3.org/2000/svg"
   xmlns:sodipodi="http://sodipodi.sourceforge.net/DTD/sodipodi-0.dtd"
   xmlns:inkscape="http://www.inkscape.org/namespaces/inkscape"
   width="170mm"
   height="40mm"
   viewBox="0 0 170 40"
   version="1.1"
   id="svg8"
   inkscape:version="0.92.3 (2405546, 2018-03-11)"
   sodipodi:docname="Banner.svg"
   inkscape:export-filename="/home/santi/Documentos/GitHub/GridCal/pics/GridCal_banner.png"
   inkscape:export-xdpi="96"
   inkscape:export-ydpi="96">
  <defs
     id="defs2" />
  <sodipodi:namedview
     id="base"
     pagecolor="#ffffff"
     bordercolor="#666666"
     borderopacity="1.0"
     inkscape:pageopacity="0.0"
     inkscape:pageshadow="2"
     inkscape:zoom="0.7"
     inkscape:cx="-188.02949"
     inkscape:cy="408.22521"
     inkscape:document-units="mm"
     inkscape:current-layer="layer1"
     showgrid="false"
     inkscape:window-width="1853"
     inkscape:window-height="1025"
     inkscape:window-x="67"
     inkscape:window-y="27"
     inkscape:window-maximized="1" />
  <metadata
     id="metadata5">
    <rdf:RDF>
      <cc:Work
         rdf:about="">
        <dc:format>image/svg+xml</dc:format>
        <dc:type
           rdf:resource="http://purl.org/dc/dcmitype/StillImage" />
        <dc:title></dc:title>
      </cc:Work>
    </rdf:RDF>
  </metadata>
  <g
     inkscape:label="Capa 1"
     inkscape:groupmode="layer"
     id="layer1"
     transform="translate(0,-257)">
    <path
       style="fill:#00b488;fill-opacity:1;stroke:#00b488;stroke-width:0.30000001;stroke-linecap:round;stroke-miterlimit:4;stroke-dasharray:none;stroke-opacity:1;paint-order:stroke fill markers"
       d="m 55.145698,290.7924 c -0.683262,-0.82327 -1.114839,-4.21889 -1.877897,-14.77511 -0.697382,-9.64766 -1.204033,-13.17782 -1.835303,-12.78768 -0.887543,0.54853 -2.086705,8.8075 -2.832118,19.50555 -0.14118,2.0262 -0.293837,3.72462 -0.339237,3.77428 -0.289277,0.31643 -0.313691,-0.57078 -0.09898,-3.59709 0.955491,-13.4677 2.088304,-20.22246 3.391442,-20.22246 0.919485,0 1.409432,3.06338 2.148875,13.43576 0.714787,10.02645 1.229391,14.03097 1.852558,14.4161 0.524597,0.32422 1.009414,-2.68544 1.833528,-11.38222 0.299297,-3.15849 0.700467,-6.59817 0.891464,-7.64377 0.561527,-3.07388 1.501974,-3.61709 2.030491,-1.17282 0.133617,0.61795 0.628284,3.85404 1.099251,7.1913 0.837867,5.93711 1.536204,9.13336 1.940861,8.88328 0.279087,-0.17249 0.539827,-1.21343 1.538021,-6.14027 1.226104,-6.05171 1.812308,-7.83558 2.574895,-7.83558 0.794747,0 1.087704,0.87736 2.275958,6.81607 0.762044,3.80859 1.379001,5.75282 1.825538,5.75282 0.38678,0 0.852907,-1.1707 1.871961,-4.7015 2.062208,-7.14512 2.680245,-7.39607 4.106256,-1.66727 0.780234,3.13448 1.249914,4.41843 1.616301,4.41843 0.279617,0 0.832024,-1.1241 1.817828,-3.69912 1.047394,-2.73591 1.812831,-3.5508 2.527001,-2.69029 0.14993,0.18065 0.57632,1.1724 0.94754,2.20387 0.37122,1.03147 0.79159,1.91398 0.93416,1.96112 0.14257,0.0471 0.52031,-0.33512 0.83943,-0.84946 1.28287,-2.06771 1.81889,-2.29846 3.08892,-1.32977 0.73845,0.56324 0.81026,0.64138 2.40423,0.44606 2.31761,-0.28401 72.180948,-0.22039 72.180948,0.0679 0,0.14657 -11.7599,0.0121 -35.59402,-8e-4 -19.57672,-0.0106 -36.227868,0.24386 -37.002598,0.32045 -1.29098,0.12761 -1.4709,0.0925 -2.15498,-0.42079 -0.41052,-0.30801 -0.9116,-0.56002 -1.11351,-0.56002 -0.21716,0 -0.73165,0.58141 -1.25962,1.42346 -0.72211,1.15169 -0.98524,1.41027 -1.37823,1.3544 -0.48874,-0.0695 -0.61549,-0.31881 -1.776,-3.49373 -0.26124,-0.71472 -0.48698,-1.02034 -0.7203,-0.97518 -0.417297,0.0808 -1.111984,1.42648 -1.991638,3.8581 -0.804927,2.22508 -1.285824,2.92214 -1.884801,2.73203 -0.624647,-0.19825 -1.056004,-1.26859 -1.901378,-4.71792 -0.414067,-1.68949 -0.894717,-3.21367 -1.068104,-3.38707 -0.27588,-0.27587 -0.35716,-0.23423 -0.650647,0.33332 -0.18446,0.3567 -0.830634,2.32999 -1.435931,4.38506 -1.257344,4.26885 -1.764501,5.42209 -2.384478,5.42209 -0.865884,0 -1.406101,-1.59433 -2.604405,-7.68644 -0.683367,-3.47417 -1.107264,-4.88246 -1.469621,-4.88246 -0.465807,0 -1.296194,2.74738 -2.095928,6.93457 -0.988834,5.17722 -1.559141,7.15126 -2.066008,7.15126 -0.34424,0 -0.884517,-0.99593 -1.204044,-2.21951 -0.16633,-0.63694 -0.643687,-3.59181 -1.060794,-6.56638 -1.410261,-10.05698 -1.625631,-10.65468 -2.375995,-6.59369 -0.18654,1.00954 -0.634697,4.85855 -0.995917,8.55337 -0.361207,3.69483 -0.763844,7.35173 -0.894734,8.12645 -0.414497,2.45327 -0.999354,3.33963 -1.670241,2.53126 z"
       id="path838"
       inkscape:connector-curvature="0"
       sodipodi:nodetypes="ssssccsssscsscsssssssscsccccscccsccccccscccscscscccccs" />
    <text
       xml:space="preserve"
       style="font-style:normal;font-variant:normal;font-weight:normal;font-stretch:normal;font-size:10.58333302px;line-height:1.25;font-family:Sawasdee;-inkscape-font-specification:Sawasdee;letter-spacing:0px;word-spacing:0px;fill:#00b488;fill-opacity:1;stroke:none;stroke-width:0.26458332"
       x="5.8301673"
       y="281.76517"
       id="text828"><tspan
         sodipodi:role="line"
         id="tspan826"
         x="5.8301673"
         y="281.76517"
         style="font-style:normal;font-variant:normal;font-weight:normal;font-stretch:normal;font-family:'URW Gothic L';-inkscape-font-specification:'URW Gothic L';fill:#00b488;fill-opacity:1;stroke-width:0.26458332">GridCal</tspan></text>
    <text
       xml:space="preserve"
       style="font-style:normal;font-variant:normal;font-weight:normal;font-stretch:normal;font-size:6.2072897px;line-height:1.25;font-family:'URW Gothic L';-inkscape-font-specification:'URW Gothic L';letter-spacing:0px;word-spacing:0px;fill:#000000;fill-opacity:1;stroke:none;stroke-width:0.15518224"
       x="92.851067"
       y="276.45239"
       id="text832"><tspan
         sodipodi:role="line"
         x="92.851067"
         y="276.45239"
         style="stroke-width:0.15518224"
         id="tspan834">Research oriented</tspan></text>
    <text
       xml:space="preserve"
       style="font-style:normal;font-variant:normal;font-weight:normal;font-stretch:normal;font-size:6.2072897px;line-height:1.25;font-family:'URW Gothic L';-inkscape-font-specification:'URW Gothic L';letter-spacing:0px;word-spacing:0px;fill:#000000;fill-opacity:1;stroke:none;stroke-width:0.15518224"
       x="93.022697"
       y="285.90829"
       id="text832-0"><tspan
         sodipodi:role="line"
         x="93.022697"
         y="285.90829"
         style="stroke-width:0.15518224"
         id="tspan834-8">Power systems software</tspan></text>
  </g>
</svg>
