<?xml version="1.0" encoding="UTF-8" standalone="no"?>
<!-- Created with Inkscape (http://www.inkscape.org/) -->

<svg
   xmlns:dc="http://purl.org/dc/elements/1.1/"
   xmlns:cc="http://creativecommons.org/ns#"
   xmlns:rdf="http://www.w3.org/1999/02/22-rdf-syntax-ns#"
   xmlns:svg="http://www.w3.org/2000/svg"
   xmlns="http://www.w3.org/2000/svg"
   xmlns:sodipodi="http://sodipodi.sourceforge.net/DTD/sodipodi-0.dtd"
   xmlns:inkscape="http://www.inkscape.org/namespaces/inkscape"
   width="512"
   height="512"
   viewBox="0 0 512 512"
   id="svg2"
   version="1.1"
   inkscape:version="0.92.4 (unknown)"
   sodipodi:docname="GridCal_icon2.svg"
   inkscape:export-filename="/home/santi/Documentos/GitHub/GridCal/src/GridCal/Gui/Main/GridCal_icon2.svg.png"
   inkscape:export-xdpi="90"
   inkscape:export-ydpi="90">
  <defs
     id="defs4" />
  <sodipodi:namedview
     id="base"
     pagecolor="#ffffff"
     bordercolor="#666666"
     borderopacity="1.0"
     inkscape:pageopacity="0.0"
     inkscape:pageshadow="2"
     inkscape:zoom="2.0688398"
     inkscape:cx="543.64486"
     inkscape:cy="443.99864"
     inkscape:document-units="px"
     inkscape:current-layer="layer1"
     showgrid="false"
     units="px"
     inkscape:window-width="1863"
     inkscape:window-height="1025"
     inkscape:window-x="57"
     inkscape:window-y="27"
     inkscape:window-maximized="1" />
  <metadata
     id="metadata7">
    <rdf:RDF>
      <cc:Work
         rdf:about="">
        <dc:format>image/svg+xml</dc:format>
        <dc:type
           rdf:resource="http://purl.org/dc/dcmitype/StillImage" />
        <dc:title></dc:title>
      </cc:Work>
    </rdf:RDF>
  </metadata>
  <g
     inkscape:label="Capa 1"
     inkscape:groupmode="layer"
     id="layer1"
     transform="translate(0,-540.36216)">
    <g
       id="g863"
       transform="matrix(4.0912642,0,0,4.0912642,-5.6597364,-3247.4697)">
      <rect
         ry="4.8336272"
         y="928.19305"
         x="3.8308809"
         height="120.33824"
         width="120.33823"
         id="rect4862-9"
         style="opacity:1;fill:#165044;fill-opacity:1;stroke:#00aa88;stroke-width:4;stroke-linecap:round;stroke-miterlimit:4;stroke-dasharray:none;stroke-opacity:1" />
      <path
         sodipodi:nodetypes="cssssssssssssaacc"
         inkscape:connector-curvature="0"
         id="path4166-1"
         d="m 3.6354119,1009.6703 c 0,0 2.574381,-54.66171 7.2578451,-54.74234 4.847843,-0.0836 3.899223,65.27504 9.046687,65.28624 3.813822,0.01 4.27857,-51.71963 8.394556,-51.85585 2.898569,-0.0958 4.710725,42.03085 8.588332,41.95495 2.725311,-0.053 5.352579,-33.37205 9.447526,-33.42386 2.939272,-0.0372 5.086779,30.24096 8.814812,30.15016 3.1303,-0.077 6.436579,-24.87772 9.566594,-24.76807 2.720546,0.0953 3.988982,19.92827 7.341589,19.95427 2.565409,0.02 5.118438,-15.87092 8.33502,-15.96199 2.322266,-0.066 3.204739,11.08254 5.655902,11.0213 1.717387,-0.0424 3.205423,-7.06898 5.774984,-6.96753 1.810654,0.0717 2.981182,2.75317 4.762869,2.78708 2.323457,0.0447 4.583902,-0.92123 6.906142,-1.01353 2.54338,-0.10069 5.07668,0.42223 7.62059,0.50671 2.0629,0.0682 6.19172,0 6.19172,0 l 6.72757,-0.0638"
         style="fill:none;fill-rule:evenodd;stroke:#00aa88;stroke-width:2.99624872;stroke-linecap:round;stroke-linejoin:miter;stroke-miterlimit:4;stroke-dasharray:none;stroke-opacity:1" />
    </g>
  </g>
</svg>
