<?xml version="1.0" encoding="UTF-8" standalone="no"?>
<!-- Created with Inkscape (http://www.inkscape.org/) -->

<svg
   version="1.1"
   id="svg2"
   width="192"
   height="192"
   viewBox="0 0 192 192"
   sodipodi:docname="fix.svg"
   inkscape:version="1.2.1 (9c6d41e410, 2022-07-14)"
   xml:space="preserve"
   xmlns:inkscape="http://www.inkscape.org/namespaces/inkscape"
   xmlns:sodipodi="http://sodipodi.sourceforge.net/DTD/sodipodi-0.dtd"
   xmlns="http://www.w3.org/2000/svg"
   xmlns:svg="http://www.w3.org/2000/svg"
   xmlns:rdf="http://www.w3.org/1999/02/22-rdf-syntax-ns#"
   xmlns:cc="http://creativecommons.org/ns#"
   xmlns:dc="http://purl.org/dc/elements/1.1/"><metadata
     id="metadata8"><rdf:RDF><cc:Work
         rdf:about=""><dc:format>image/svg+xml</dc:format><dc:type
           rdf:resource="http://purl.org/dc/dcmitype/StillImage" /><dc:title /></cc:Work></rdf:RDF></metadata><defs
     id="defs6" /><sodipodi:namedview
     pagecolor="#ffffff"
     bordercolor="#666666"
     borderopacity="1"
     objecttolerance="10"
     gridtolerance="10"
     guidetolerance="10"
     inkscape:pageopacity="0"
     inkscape:pageshadow="2"
     inkscape:window-width="1464"
     inkscape:window-height="794"
     id="namedview4"
     showgrid="false"
     inkscape:zoom="1.2291667"
     inkscape:cx="-49.220338"
     inkscape:cy="34.57627"
     inkscape:window-x="62"
     inkscape:window-y="27"
     inkscape:window-maximized="0"
     inkscape:current-layer="svg2"
     inkscape:showpageshadow="2"
     inkscape:pagecheckerboard="0"
     inkscape:deskcolor="#d1d1d1" /><path
     style="fill:#6f918a;fill-opacity:1;stroke-width:0.300662"
     d="m 36.340703,171.79795 c -3.97833,-0.71265 -8.7795,-3.60044 -11.32778,-6.81336 -5.09529,-6.42425 -5.71619,-14.92478 -1.60584,-21.98497 0.73721,-1.2663 9.07821,-9.80866 32.50674,-33.29153 l 31.51508,-31.588162 -0.33671,-0.883283 c -0.80447,-2.110379 -1.80535,-7.121939 -2.09569,-10.493515 -1.9458,-22.595466 13.81048,-43.360566 36.196807,-47.703547 4.45104,-0.863513 9.79538,-1.033616 14.16305,-0.4508 4.0845,0.545031 7.46795,1.429469 8.55027,2.235047 1.91852,1.427959 2.6303,3.88839 1.67657,5.795394 -0.28248,0.564835 -5.18274,5.709943 -10.88947,11.433565 l -10.37586,10.4066 2.21995,7.775444 2.21994,7.775449 7.7694,2.218221 7.76939,2.218216 10.71331,-10.679652 c 9.31022,-9.280966 10.86097,-10.706897 11.84079,-10.887715 1.5796,-0.291501 3.05707,0.05105 4.13604,0.958947 1.21065,1.018691 1.60481,1.843738 2.34724,4.913136 2.40487,9.942484 1.14429,21.012323 -3.43052,30.125085 -8.37487,16.682302 -25.5031,26.3756 -43.95811,24.87701 -3.20737,-0.26044 -9.95924,-1.66471 -10.9509,-2.27759 -0.1642,-0.10148 -14.52395,14.02179 -31.910567,31.38504 -34.03679,33.99104 -32.69591,32.76088 -37.43377,34.3429 -2.21742,0.74042 -6.84419,1.03568 -9.30936,0.59407 z"
     id="path300" /></svg>
