<?xml version="1.0" encoding="UTF-8" standalone="no"?>
<svg
   xmlns:dc="http://purl.org/dc/elements/1.1/"
   xmlns:cc="http://creativecommons.org/ns#"
   xmlns:rdf="http://www.w3.org/1999/02/22-rdf-syntax-ns#"
   xmlns:svg="http://www.w3.org/2000/svg"
   xmlns="http://www.w3.org/2000/svg"
   xmlns:sodipodi="http://sodipodi.sourceforge.net/DTD/sodipodi-0.dtd"
   xmlns:inkscape="http://www.inkscape.org/namespaces/inkscape"
   sodipodi:docname="delete_conn.svg"
   inkscape:version="1.0 (4035a4fb49, 2020-05-01)"
   version="1.1"
   id="svg2"
   viewBox="0 0 48.000001 48.000001"
   height="48"
   width="48">
  <defs
     id="defs4" />
  <sodipodi:namedview
     inkscape:document-rotation="0"
     inkscape:window-maximized="1"
     inkscape:window-y="26"
     inkscape:window-x="60"
     inkscape:window-height="1017"
     inkscape:window-width="1860"
     units="px"
     showgrid="false"
     inkscape:current-layer="g878"
     inkscape:document-units="px"
     inkscape:cy="47.074526"
     inkscape:cx="19.583951"
     inkscape:zoom="8.7283496"
     inkscape:pageshadow="2"
     inkscape:pageopacity="0.0"
     borderopacity="1.0"
     bordercolor="#666666"
     pagecolor="#ffffff"
     id="base" />
  <metadata
     id="metadata7">
    <rdf:RDF>
      <cc:Work
         rdf:about="">
        <dc:format>image/svg+xml</dc:format>
        <dc:type
           rdf:resource="http://purl.org/dc/dcmitype/StillImage" />
        <dc:title />
      </cc:Work>
    </rdf:RDF>
  </metadata>
  <g
     transform="translate(0,-1004.3622)"
     id="layer1"
     inkscape:groupmode="layer"
     inkscape:label="Capa 1">
    <g
       transform="matrix(0.5694987,0,0,0.5694987,27.654802,412.04584)"
       style="fill:#999999;fill-opacity:1;stroke:#999999;stroke-opacity:1"
       id="g878">
      <path
         style="fill:#ff0000;fill-opacity:1;stroke:#999999;stroke-opacity:1"
         inkscape:connector-curvature="0"
         d="m 16.754622,1091.4413 c -1.52,0 -2.89,0.59 -3.93,1.54 l -14.2500003,-8.31 c 0.11,-0.45 0.18,-0.92 0.18,-1.4 0,-0.48 -0.07,-0.95 -0.18,-1.4 l 14.1000003,-8.23 c 1.07,1 2.5,1.62 4.08,1.62 3.31,0 6,-2.69 6,-6 0,-3.31 -2.69,-6 -6,-6 -3.31,0 -6,2.69 -6,6 0,0.48 0.07,0.95 0.18,1.4 l -14.1000003,8.23 c -1.07,-1 -2.5,-1.62 -4.08,-1.62 -3.3099997,0 -5.9999997,2.69 -5.9999997,6 0,3.31 2.69,6 5.9999997,6 1.58,0 3.01,-0.62 4.08,-1.62 l 14.2500003,8.31 c -0.1,0.42 -0.16,0.86 -0.16,1.31 0,3.22 2.61,5.83 5.83,5.83 3.22,0 5.83,-2.61 5.83,-5.83 0,-3.22 -2.61,-5.83 -5.83,-5.83 z"
         id="path2" />
      <path
         style="fill:#ff2a2a;fill-opacity:1;stroke:#999999;stroke-opacity:1"
         inkscape:connector-curvature="0"
         d="m -28.519885,1068.7688 c 0.90506,1.2212 1.246811,2.6732 1.10285,4.0743 l 15.161239,6.5005 c 0.296039,-0.3564 0.63195,-0.6925 1.01758,-0.9783 0.38563,-0.2858 0.804907,-0.5094 1.231945,-0.689 l -1.783709,-16.2284 c -1.440516,-0.2642 -2.790128,-1.0438 -3.730887,-2.3132 -1.970903,-2.6593 -1.41148,-6.4222 1.247784,-8.3931 2.659263,-1.9709 6.4221306,-1.4115 8.3930326,1.2478 1.9709022,2.6592 1.4114784,6.4221 -1.247785,8.393 -0.385631,0.2858 -0.804907,0.5095 -1.231945,0.6891 l 1.783709,16.2283 c 1.4405165,0.2642 2.7901283,1.0439 3.730888,2.3133 1.97090236,2.6593 1.4115119,6.4221 -1.2477515,8.393 -2.6592635,1.9709 -6.4221301,1.4115 -8.3930331,-1.2478 -0.940792,-1.2694 -1.294168,-2.7874 -1.127876,-4.2425 l -15.161273,-6.5003 c -0.277881,0.3304 -0.595667,0.6406 -0.957189,0.9086 -2.586939,1.9173 -6.237918,1.3745 -8.155238,-1.2124 -1.917319,-2.587 -1.374518,-6.238 1.212422,-8.1553 2.586939,-1.9173 6.237918,-1.3745 8.155237,1.2124 z"
         id="path2-3" />
      <path
         style="fill:#ff0000;fill-opacity:1;stroke:#999999;stroke-opacity:1"
         d="m -28.061608,1097.6376 c 0.90506,-1.2212 1.246811,-2.6732 1.10285,-4.0743 l 15.161239,-6.5005 c 0.296039,0.3564 0.63195,0.6925 1.01758,0.9783 0.38563,0.2858 0.8049068,0.5094 1.2319448,0.689 l -1.7837088,16.2284 c -1.440516,0.2642 -2.790128,1.0438 -3.730887,2.3132 -1.970903,2.6593 -1.41148,6.4222 1.247784,8.3931 2.659263,1.9709 6.422131,1.4115 8.393033,-1.2478 1.970902,-2.6592 1.411478,-6.4221 -1.247785,-8.393 -0.385631,-0.2858 -0.804907,-0.5095 -1.231945,-0.6891 l 1.783709,-16.2283 c 1.440517,-0.2642 2.790128,-1.0439 3.730888,-2.3133 1.97090204,-2.6593 1.411512,-6.4221 -1.247751,-8.393 -2.659264,-1.9709 -6.422131,-1.4115 -8.393034,1.2478 -0.940792,1.2694 -1.294168,2.7874 -1.127876,4.2425 l -15.161273,6.5003 c -0.27788,-0.3304 -0.595666,-0.6406 -0.957188,-0.9086 -2.586939,-1.9173 -6.237918,-1.3745 -8.155238,1.2124 -1.917319,2.587 -1.374518,6.238 1.212422,8.1553 2.586939,1.9173 6.237918,1.3745 8.155236,-1.2124 z"
         id="path2-3-6"
         inkscape:connector-curvature="0" />
    </g>
  </g>
</svg>
