<?xml version="1.0" encoding="UTF-8" standalone="no"?>
<!-- Created with Inkscape (http://www.inkscape.org/) -->

<svg
   width="48"
   height="48"
   viewBox="0 0 48.000001 48.000001"
   id="svg2"
   version="1.1"
   inkscape:version="1.1.2 (0a00cf5339, 2022-02-04)"
   sodipodi:docname="map (add).svg"
   xmlns:inkscape="http://www.inkscape.org/namespaces/inkscape"
   xmlns:sodipodi="http://sodipodi.sourceforge.net/DTD/sodipodi-0.dtd"
   xmlns="http://www.w3.org/2000/svg"
   xmlns:svg="http://www.w3.org/2000/svg"
   xmlns:rdf="http://www.w3.org/1999/02/22-rdf-syntax-ns#"
   xmlns:cc="http://creativecommons.org/ns#"
   xmlns:dc="http://purl.org/dc/elements/1.1/">
  <defs
     id="defs4">
    <clipPath
       clipPathUnits="userSpaceOnUse"
       id="clipPath825">
      <rect
         style="fill:none;fill-opacity:0.84951453;stroke:#999999;stroke-width:3.85741425;stroke-linejoin:round;stroke-miterlimit:4;stroke-dasharray:none"
         id="rect827"
         width="44.142586"
         height="44.142586"
         x="1.9287071"
         y="1006.2909"
         ry="10.186751" />
    </clipPath>
    <clipPath
       clipPathUnits="userSpaceOnUse"
       id="clipPath825-0">
      <rect
         style="fill:none;fill-opacity:0.84951453;stroke:#999999;stroke-width:3.85741425;stroke-linejoin:round;stroke-miterlimit:4;stroke-dasharray:none"
         id="rect827-3"
         width="44.142586"
         height="44.142586"
         x="1.9287071"
         y="1006.2909"
         ry="10.186751" />
    </clipPath>
  </defs>
  <sodipodi:namedview
     id="base"
     pagecolor="#ffffff"
     bordercolor="#666666"
     borderopacity="1.0"
     inkscape:pageopacity="0.0"
     inkscape:pageshadow="2"
     inkscape:zoom="7.919596"
     inkscape:cx="10.480333"
     inkscape:cy="48.297918"
     inkscape:document-units="px"
     inkscape:current-layer="layer1-3"
     showgrid="false"
     units="px"
     inkscape:window-width="2505"
     inkscape:window-height="1016"
     inkscape:window-x="55"
     inkscape:window-y="27"
     inkscape:window-maximized="1"
     inkscape:pagecheckerboard="0" />
  <metadata
     id="metadata7">
    <rdf:RDF>
      <cc:Work
         rdf:about="">
        <dc:format>image/svg+xml</dc:format>
        <dc:type
           rdf:resource="http://purl.org/dc/dcmitype/StillImage" />
      </cc:Work>
    </rdf:RDF>
  </metadata>
  <g
     inkscape:label="Capa 1"
     inkscape:groupmode="layer"
     id="layer1"
     transform="translate(0,-1004.3622)">
    <g
       id="layer1-3"
       inkscape:label="Capa 1"
       transform="translate(-58.464286,-14.928558)">
      <g
         inkscape:label="Capa 1"
         id="layer1-7"
         transform="translate(59.171445,13.712097)">
        <g
           id="layer1-3-3"
           inkscape:label="Capa 1"
           transform="translate(-60.052175,-12.433304)"
           style="fill:#b3b3b3;stroke:#666666">
          <path
             style="fill:#b3b3b3;fill-rule:evenodd;stroke:#666666;stroke-width:0.2;stroke-linecap:round;stroke-linejoin:bevel;stroke-miterlimit:4;stroke-dasharray:none;stroke-opacity:1;paint-order:normal"
             d="m 101.05374,1023.794 -0.90737,1.5879 0.11342,3.913 -1.247626,0.057 -0.340262,0.2835 0.283551,0.4537 -0.510393,0.5671 -1.190916,-0.1134 -0.340262,-0.7939 h -1.247627 l -3.232488,1.7013 -1.587889,-0.794 -1.644599,0.397 -1.190917,-0.6805 -0.737234,-0.6805 -0.510393,-0.794 0.11342,-0.9074 0.510393,-0.5103 0.850655,-0.6239 0.170131,-0.9073 -0.567103,-0.057 -0.283552,-0.5104 0.453683,-1.5312 -0.05671,-0.3403 -1.020786,0.6238 -0.283552,0.5104 -0.793944,0.2836 -0.964076,0.9641 -0.05671,1.2476 0.283552,0.9074 0.396972,0.6805 0.11342,1.2476 0.170131,0.2836 -0.283551,0.7372 0.226841,0.2835 -0.05671,0.5672 -1.928151,0.057 -1.70131,0.6238 -0.226841,0.4537 0.340262,0.8506 -0.170131,0.2269 -0.567103,-1.191 -0.396972,0.057 -0.170131,1.2477 -1.304338,1.9848 -1.984861,1.0208 -0.226841,1.4178 -1.587889,0.9073 -0.113421,0.4537 -0.964075,0.1134 -0.510393,-0.2835 -0.226841,-0.5104 -0.283552,0.057 H 73.3791 l -0.113421,0.3403 0.226841,0.9073 0.340262,0.5671 0.113421,0.2269 -1.190917,-0.1701 -0.170131,0.2268 -0.623813,-0.6238 -1.75802,0.4537 -0.226841,0.4536 0.283551,0.397 0.226841,0.7373 1.190917,0.1701 0.793945,0.2268 0.510392,0.8507 0.907366,1.1909 0.396972,0.4537 0.11342,0.5671 -0.510392,3.516 -0.567104,0.397 -1.361047,-0.1134 -4.820377,-0.3403 -0.623814,-0.2835 -0.623813,0.5104 -0.680524,0.3402 -0.340262,0.4537 0.226841,0.5104 0.396973,0.9641 -0.226842,0.3969 0.283552,1.0208 -0.170131,0.8507 -0.737234,2.6087 0.05671,0.3402 0.510393,0.3403 0.170131,0.1134 -0.170131,1.8147 0.964075,0.1702 1.134206,-0.2836 0.850655,0.5671 0.737235,1.0775 0.680523,-0.1701 1.247627,-0.794 2.381834,0.1135 0.510393,-0.7373 0.680523,-0.6238 1.417758,-1.6446 0.113421,-0.1701 -0.567103,-0.9641 1.474468,-2.2117 1.928151,-0.9641 0.964075,-0.6238 -0.283551,-0.6805 -0.113421,-0.9641 0.907365,-0.9641 1.134207,0.397 1.758019,0.5104 0.567104,-0.3403 1.984861,-1.9281 1.247627,0.2835 0.680524,1.3611 0.283551,0.8506 1.247627,1.1342 2.211703,1.6446 0.226841,-0.2268 1.587889,1.2476 0.793944,0.9641 0.453683,0.8507 -0.05671,0.6238 -0.453682,1.1909 0.283552,0.397 0.850654,-1.0775 v -0.5104 l 0.737234,-0.1702 v -0.6805 l -0.680523,-0.7939 0.05671,-0.4537 0.623813,-0.5104 0.623814,0.1701 v 0.397 l 0.283552,0.2836 0.453682,0.5671 0.226841,-0.9074 -1.304337,-1.1909 -1.928151,-0.8507 0.510393,-0.7939 h -1.134206 l -1.304338,-1.0775 -1.077496,-1.7013 -0.907365,-0.794 -0.170131,-0.6805 0.283552,-0.9074 -0.113421,-0.057 1.020786,-0.6805 c 0,0 0.226841,0.5671 0.283552,0.7939 0.05671,0.2269 0.623813,1.1343 0.623813,1.1343 l 0.283552,-1.2477 1.020785,0.9641 0.113421,1.1342 1.190917,1.3043 0.907365,-0.057 2.722095,2.3252 -0.453682,2.2684 2.551961,2.8355 -0.28355,0.5671 0.11342,1.0775 0.56711,0.4537 c 0,0 0.22684,0.4537 0.28355,0.2268 0.0567,-0.2268 0.5671,0.5104 0.5671,0.5104 l 0.28355,-0.5104 0.34026,0.5104 -0.11342,-1.6446 0.73724,0.4537 -0.22684,-0.794 0.68052,0.1135 0.34026,-0.1135 -0.17013,-0.9073 0.45368,-0.1134 -1.36104,-0.6239 -0.0567,-0.4536 -0.39698,-0.8507 -0.17013,-0.3403 -0.17013,-0.6805 1.02079,0.5104 h 0.45368 l 0.22684,-0.5671 0.68052,-0.4537 0.17014,0.057 0.1594,-25.3052 z"
             id="path819"
             inkscape:connector-curvature="0"
             sodipodi:nodetypes="cccccccccccccccccccccccccccccccccccccccccccccccccccccccccccccccccccccccccccccccccccccccccccccccccccccccccccccccccccccccccccccccccccccccccccccccccccccccccccccccccccccccccccccccccccccc" />
          <path
             style="fill:#b3b3b3;fill-rule:evenodd;stroke:#666666;stroke-width:0.2;stroke-linecap:butt;stroke-linejoin:miter;stroke-miterlimit:4;stroke-dasharray:none;stroke-opacity:1"
             d="m 93.489996,1057.8698 -1.297248,0.4041 -0.779767,-0.05 -0.560014,-0.2622 c 0,0 -0.148865,0.2693 -0.212664,0.241 -0.0638,-0.028 -0.283552,-0.156 -0.283552,-0.156 l -0.262285,0.3332 -0.02127,0.3757 0.460771,0.3686 1.063319,0.5175 0.70179,0.2268 0.276462,0.4112 0.666347,0.2268 0.09924,-0.5104 0.170131,-0.071 0.0071,-0.3544 -0.276463,-0.4041 0.191397,-0.4182 z"
             id="path821"
             inkscape:connector-curvature="0" />
          <path
             style="fill:#b3b3b3;fill-rule:evenodd;stroke:#666666;stroke-width:0.2;stroke-linecap:butt;stroke-linejoin:miter;stroke-miterlimit:4;stroke-dasharray:none;stroke-opacity:1"
             d="m 79.333683,1056.5442 0.255197,-0.5671 0.02836,-0.2836 -0.255197,0.085 v -0.3686 l -0.538748,0.1418 -0.510393,0.4537 0.02836,0.2268 0.311906,-0.057 0.170131,0.1985 z"
             id="path823"
             inkscape:connector-curvature="0" />
          <path
             style="fill:#b3b3b3;fill-rule:evenodd;stroke:#666666;stroke-width:0.2;stroke-linecap:butt;stroke-linejoin:miter;stroke-miterlimit:4;stroke-dasharray:none;stroke-opacity:1"
             d="m 80.63802,1055.7219 -0.08507,-0.4537 -0.330384,-0.03 -0.304579,0.2147 0.210526,0.1002 z"
             id="path825"
             inkscape:connector-curvature="0"
             sodipodi:nodetypes="cccccc" />
          <path
             style="fill:#b3b3b3;fill-rule:evenodd;stroke:#666666;stroke-width:0.2;stroke-linecap:butt;stroke-linejoin:miter;stroke-miterlimit:4;stroke-dasharray:none;stroke-opacity:1"
             d="m 77.401629,1057.1504 0.185464,-0.3157 -0.03008,-0.1905 c 0,0 -0.150376,-0.025 -0.175439,-0.02 -0.02506,0.01 -0.315789,0.1705 -0.315789,0.1705 l -0.08521,0.2155 0.155388,0.1804 z"
             id="path827"
             inkscape:connector-curvature="0" />
          <path
             style="fill:#b3b3b3;fill-rule:evenodd;stroke:#666666;stroke-width:0.2;stroke-linecap:butt;stroke-linejoin:miter;stroke-miterlimit:4;stroke-dasharray:none;stroke-opacity:1"
             d="m 85.953008,1057.1956 0.421052,-0.5915 0.300752,0.2506 0.210527,-0.5514 0.06015,-1.4035 0.180451,-0.3208 c 0,0 -0.461153,-0.9022 -0.491228,-0.9423 -0.03008,-0.04 -0.220551,-0.2206 -0.220551,-0.2206 0,0 -0.651629,0.5514 -0.701755,0.5815 -0.05013,0.03 -0.280701,0.1303 -0.280701,0.1303 l -0.320802,-0.1003 -0.05013,0.381 c 0,0 0.390978,0.5413 0.390978,0.5915 0,0.05 -0.05013,0.6616 -0.0401,0.7819 0.01003,0.1203 -0.0802,0.8722 -0.0802,0.8722 z"
             id="path829"
             inkscape:connector-curvature="0" />
          <path
             style="fill:#b3b3b3;fill-rule:evenodd;stroke:#666666;stroke-width:0.2;stroke-linecap:butt;stroke-linejoin:miter;stroke-miterlimit:4;stroke-dasharray:none;stroke-opacity:1"
             d="m 86.604637,1050.6191 -0.150376,0.1103 -0.02005,0.4611 -0.340852,0.06 c 0,0 -0.401003,0.1704 -0.461153,0.2607 -0.06015,0.09 0.03008,0.6416 0.05013,0.7518 0.02005,0.1103 0.210526,0.8221 0.210526,0.8221 l 0.370928,0.1704 0.320802,-0.3007 0.06015,-0.6517 0.160401,-0.1904 -0.01003,-0.7218 -0.0802,-0.1504 z"
             id="path831"
             inkscape:connector-curvature="0" />
          <path
             style="fill:#b3b3b3;fill-rule:evenodd;stroke:#666666;stroke-width:0.2;stroke-linecap:round;stroke-linejoin:bevel;stroke-miterlimit:4;stroke-dasharray:none;stroke-opacity:1"
             d="m 68.810151,1038.8597 0.561403,-0.1203 0.320802,0.1203 c 0,0 0.882206,-0.8822 1.002506,-0.6416 0.120301,0.2406 0.882206,0.2807 0.882206,0.2807 l 0.120301,-0.5614 0.481203,-0.1604 h 0.561403 l 0.521303,0.1604 0.641604,-0.3208 0.721805,0.04 1.328321,-0.09 1.293233,-0.772 0.06516,-0.4912 -0.390978,0.1905 -0.421052,-0.2406 0.06015,-0.421 0.380952,-0.1905 0.401003,-0.05 0.180451,-0.06 0.03008,-0.4912 -0.130325,-0.1705 0.280701,-0.4912 0.02005,-0.5413 -0.521303,-0.4812 -0.932331,-0.05 -0.170426,0.2607 -0.190476,-0.03 -0.06015,-0.2707 0.230576,-0.1203 0.05012,-0.3709 -0.85213,-0.9123 0.370927,0.1705 0.180452,0.02 -0.180452,-0.3409 c 0,0 -0.14035,-0.2706 -0.14035,-0.3107 0,-0.04 0.03008,-0.381 0.03008,-0.381 l -0.71178,-0.8822 -0.741854,-0.5413 -0.200502,-1.2331 c 0,0 -0.210526,-0.4712 -0.260651,-0.5013 -0.05013,-0.03 -0.621554,-0.5915 -0.621554,-0.5915 l -0.471178,-0.2205 -0.390978,0.2205 -0.220551,-0.07 0.0802,-0.2306 0.521303,-0.1504 c 0,0 0.10025,-0.2306 0.0401,-0.2707 -0.06015,-0.04 -0.160401,-0.2305 -0.160401,-0.2305 l -0.300752,-0.02 c 0,0 -0.05013,-0.08 0.02005,-0.08 0.07018,0 0.681705,-0.3007 0.681705,-0.3007 0,0 0.230576,-0.4111 0.240601,-0.4512 0.01002,-0.04 0.140351,-0.5112 0.160401,-0.5513 0.02005,-0.04 0.421053,-0.7118 0.421053,-0.7118 l -0.19048,-0.4211 -0.380953,-0.1704 -1.483709,0.01 -0.370927,0.1203 -0.441103,0.2607 c 0,0 -0.140351,-0.01 -0.02005,-0.09 0.1203,-0.08 0.290727,-0.2206 0.290727,-0.2206 h -0.360903 c 0,0 0.330827,-0.1403 0.411028,-0.1704 0.0802,-0.03 0.401002,-0.1805 0.270677,-0.2005 -0.130326,-0.02 -0.581454,-0.05 -0.581454,-0.05 0,0 0.370927,-0.2606 0.461153,-0.3007 0.09023,-0.04 0.290727,-0.2005 0.390977,-0.3008 0.100251,-0.1002 0.270677,-0.4812 0.330827,-0.5513 0.06015,-0.07 0.120301,-0.5113 0.120301,-0.5113 l -0.310777,-0.1103 -0.401002,0.02 -0.521304,0.05 -0.89223,0.06 c 0,0 -0.240602,0.01 -0.250627,0.06 -0.01003,0.05 -0.03008,0.3108 -0.05013,0.3709 -0.02005,0.06 -0.180451,0.3308 -0.180451,0.3308 0,0 -0.180451,0.1103 -0.180451,0.1504 0,0.04 0.0802,0.1604 0.0401,0.2206 -0.0401,0.06 0.180451,0.2907 0.210526,0.3308 0.03008,0.04 0.210532,0.2005 0.210532,0.2005 0,0 -0.270677,-0.04 -0.350878,-0.08 -0.0802,-0.04 -0.421052,-0.03 -0.491228,0.01 -0.07018,0.04 -0.190476,0.2206 -0.140351,0.3208 0.05013,0.1003 0.190477,0.3108 0.190477,0.3108 0,0 -0.110276,0.1704 -0.150376,0.1805 -0.0401,0.01 -0.07018,0.09 -0.07018,0.09 0,0 0.240602,0.2205 0.310777,0.2807 0.07018,0.06 0.240602,0.3108 0.240602,0.3108 l -0.0401,0.2205 c 0,0 -0.220551,0.2406 -0.260651,0.2506 -0.0401,0.01 -0.330827,0.1003 -0.330827,0.1304 0,0.03 -0.160401,0.3308 -0.170426,0.411 -0.01003,0.08 -0.140351,0.421 -0.140351,0.421 0,0 0.120301,-0.1203 0.270676,0.08 0.150376,0.2005 0.611529,0.2106 0.611529,0.2106 l -0.160398,0.5814 -0.862155,0.5715 c 0,0 -0.140351,0.3107 -0.0802,0.3609 0.06015,0.05 0.461152,0.3208 0.551379,0.2305 0.09022,-0.09 0.350877,-0.9022 0.390977,-0.812 0.0401,0.09 -0.01003,0.5815 -0.07018,0.7619 -0.06015,0.1805 -0.170426,0.3108 -0.150375,0.391 0.02005,0.08 0.150375,0.04 0.220551,0.09 0.07018,0.05 0.140351,0.1003 0.240602,0.06 0.10025,-0.04 0.200501,-0.2106 0.210526,-0.391 0.01003,-0.1805 -0.160401,-0.3108 0.03008,-0.2206 0.190476,0.09 0.280702,0.1905 0.280702,-0.04 0,-0.2305 -0.100251,-0.5313 0.05012,-0.3408 0.150376,0.1905 0.240602,0.391 0.270676,0.4611 0.03008,0.07 0,0.2406 -0.03008,0.2908 -0.03008,0.05 -0.170426,0.2005 -0.170426,0.2005 0,0 -0.310777,0.3007 -0.320802,0.3408 -0.01003,0.04 0.521303,0.7519 0.521303,0.7519 0,0 0.741855,0.2306 0.781955,0.2306 0.0401,0 0.270677,-0.391 0.330827,-0.05 0.06015,0.3409 0.160401,0.8121 0.230576,0.8622 0.07018,0.05 0.71178,0.1203 0.721805,0.2105 0.01003,0.09 0.0401,0.3108 0.06015,0.3709 0.02005,0.06 -0.140351,0.1404 -0.190476,0.2206 -0.05012,0.08 -0.220551,0.06 -0.130326,0.2807 0.09023,0.2206 0.160401,0.2807 0.150376,0.3709 -0.01003,0.09 -0.02005,0.2607 -0.02005,0.2607 l -0.280702,0.05 c 0,0 -0.451127,0.02 -0.511278,0.03 -0.06015,0.01 -0.380952,0.04 -0.380952,0.04 0,0 -0.401003,-0.3008 -0.461153,-0.2807 -0.06015,0.02 -0.320802,0.1002 -0.280702,0.1704 0.0401,0.07 0.180451,0.3308 0.210526,0.3709 0.03008,0.04 0.190477,0.1705 0.190477,0.1705 l 0.240601,1.4135 c 0,0 -0.390977,0.2707 -0.451128,0.3308 -0.06015,0.06 -0.190476,0.2406 -0.390977,0.2807 -0.200501,0.04 -0.491228,0.05 -0.501253,0.1905 -0.01002,0.1404 0.03008,0.5013 0.07018,0.5514 0.0401,0.05 0.160401,0.1303 0.421053,0.1804 0.260651,0.05 0.280702,-0.1102 0.621554,-0.05 0.340852,0.06 0.721804,0.05 0.83208,0.1805 0.110276,0.1303 0.290727,0.3809 0.421053,0.2907 0.130325,-0.09 0.531328,-0.3709 0.531328,-0.3709 l 0.09023,0.1403 c 0,0 -0.260651,0.2206 -0.290726,0.3108 -0.03008,0.09 -0.180452,0.1704 -0.340853,0.1604 -0.160401,-0.01 -0.571428,-0.1303 -0.661654,-0.1003 -0.09023,0.03 -0.521303,0.09 -0.591478,0.2106 -0.07018,0.1203 -0.210527,0.2907 -0.340852,0.411 -0.130326,0.1203 -0.130326,0.5113 -0.210527,0.5614 -0.0802,0.05 -0.340852,0.3409 -0.380952,0.381 -0.0401,0.04 -0.240602,0.2205 -0.390978,0.2506 -0.150376,0.03 -0.290726,0.3408 -0.290726,0.3408 z"
             id="path833"
             inkscape:connector-curvature="0"
             sodipodi:nodetypes="cccccccccccccccccccccccccccccccccccsccccccccccccccsccccccccccccccccccccccccccsccccccccccccsscccccccccccccccsccccccscccccccccccccccccccccccccccscccccccc" />
          <path
             style="fill:#b3b3b3;fill-rule:evenodd;stroke:#666666;stroke-width:0.2;stroke-linecap:butt;stroke-linejoin:miter;stroke-miterlimit:4;stroke-dasharray:none;stroke-opacity:1"
             d="m 64.163673,1036.1852 c 0.170131,0 1.701309,-0.2836 1.81473,-0.3403 0.113421,-0.057 1.020786,-0.8506 1.020786,-0.8506 0,0 0.737234,0 0.907365,-0.057 0.170131,-0.057 0.311907,-0.4821 0.425327,-0.5671 0.113421,-0.085 0.482038,-1.0208 0.453683,-1.1626 -0.02835,-0.1418 -0.311907,-1.6446 -0.311907,-1.6446 l 0.482038,-0.7372 c 0,0 0.311907,-0.6806 0.425327,-0.7656 0.113421,-0.085 -0.311906,-1.0775 -0.311906,-1.0775 l -0.567104,-0.1134 -0.680524,-0.057 -0.737234,-0.1701 -0.964075,0.3119 -0.737234,0.7089 0.396972,0.482 c 0,0 0.311907,-0.057 0.255196,0.057 -0.05671,0.1134 -0.396972,0.4536 -0.396972,0.4536 0,0 -0.623813,0 -0.822299,0.028 -0.198486,0.028 -0.8223,-0.397 -0.992431,-0.085 -0.170131,0.3119 -0.396972,0.4537 -0.226841,0.6805 0.170131,0.2269 0.623813,0.4254 0.623813,0.4254 l -0.482037,0.5671 c 0,0 -0.170131,0.1985 -0.02835,0.2835 0.141775,0.085 0.425327,0.1985 0.652168,0.2552 0.226842,0.057 0.87901,-0.1985 0.623814,0.1134 -0.255197,0.312 -0.595459,0.7089 -0.76559,0.9074 -0.17013,0.1985 -0.368617,0.3403 -0.198486,0.3403 0.170131,0 0.538748,-0.1985 0.340262,0 -0.198486,0.1985 -0.567103,0.5104 -0.567103,0.5104 0,0 -0.567103,-0.2552 -0.510393,0.057 0.05671,0.3119 -0.02836,0.482 0.141776,0.8223 0.170131,0.3402 0.737234,0.6238 0.737234,0.6238 z"
             id="path835"
             inkscape:connector-curvature="0" />
        </g>
        <path
           style="fill:#b3b3b3;fill-rule:evenodd;stroke:#666666;stroke-width:0.2;stroke-linecap:butt;stroke-linejoin:miter;stroke-miterlimit:4;stroke-dasharray:none;stroke-opacity:1"
           d="m 27.426532,1015.6677 -0.311912,0.1379 0.0638,0.5459 0.93572,0.5313 0.184309,-0.1843 v -0.3048 c 0,-0.057 -0.01418,-0.4183 -0.03544,-0.4537 -0.02127,-0.035 -0.248108,-0.241 -0.29064,-0.2623 -0.04253,-0.021 -0.545837,-0.01 -0.545837,-0.01 z"
           id="path837"
           inkscape:connector-curvature="0"
           sodipodi:nodetypes="cccccscccc" />
        <path
           style="fill:#b3b3b3;fill-rule:evenodd;stroke:#666666;stroke-width:0.2;stroke-linecap:butt;stroke-linejoin:miter;stroke-miterlimit:4;stroke-dasharray:none;stroke-opacity:1"
           d="m 29.042772,1016.4575 0.304818,0.035 c 0,0 0.0638,0.2269 0.07798,0.2623 0.01418,0.035 0.333174,0.2339 0.333174,0.2339 0,0 0.106331,0.1347 0.03544,0.1347 -0.07089,0 -0.347351,0.01 -0.439505,0.01 -0.09216,0 -0.361529,-0.1205 -0.446594,-0.092 -0.08507,0.028 -0.248108,-0.1064 -0.283552,0.057 -0.03544,0.163 -0.0638,0.3402 0.01418,0.397 0.07798,0.057 0.269374,0.1843 0.340262,0.1914 0.07089,0.01 0.219752,0.085 0.368617,-0.01 0.148864,-0.092 -0.0638,-0.028 0.283551,-0.1773 0.347351,-0.1488 0.58837,-0.6096 0.58837,-0.6096 0,0 -0.141776,-0.2198 -0.170131,-0.2198 -0.02835,0 -0.333173,-0.078 -0.191397,-0.1559 0.141775,-0.078 0.34735,-0.2127 0.34735,-0.2127 0,0 -0.03544,-0.319 -0.05671,-0.3473 -0.02127,-0.028 0.219752,-0.3757 0.219752,-0.3757 l -0.02127,-0.553 -0.0638,-0.326 c 0,0 -0.02127,-0.1418 -0.163042,-0.1489 -0.141776,-0.01 -0.46786,-0.01 -0.460771,0.035 0.0071,0.043 0.01418,0.2623 0.01418,0.2907 0,0.028 0.170131,0.2268 0.170131,0.3048 0,0.078 -0.03544,0.2977 -0.03544,0.2977 0,0 -0.05671,-0.014 -0.155953,-0.078 -0.09924,-0.064 -0.269374,-0.1914 -0.276463,-0.2268 -0.0071,-0.035 0.02835,-0.2268 -0.08507,-0.2198 -0.11342,0.01 -0.198486,-0.014 -0.23393,0.05 -0.03544,0.064 -0.106331,0.1417 -0.127598,0.2126 -0.02127,0.071 -0.03544,0.1702 -0.0638,0.1914 -0.02836,0.021 -0.184308,0 -0.212664,0.014 -0.02836,0.014 -0.141775,0.028 -0.09924,0.1701 0.04253,0.1418 0.07798,0.2056 0.113421,0.2907 0.03544,0.085 0.04962,0.064 0.0638,0.1701 0.01418,0.1063 -0.02127,0.397 0.0071,0.4112 0.02836,0.014 0.304818,-0.01 0.304818,-0.01 z"
           id="path839"
           inkscape:connector-curvature="0" />
      </g>
      <rect
         ry="10.186751"
         y="1021.2194"
         x="60.392994"
         height="44.142586"
         width="44.142586"
         id="rect4136"
         style="fill:none;fill-opacity:0.84951453;stroke:none;stroke-width:1;stroke-linejoin:round;stroke-miterlimit:4;stroke-dasharray:none" />
      <g
         id="g831"
         style="stroke:#37c8ab;stroke-linecap:round;stroke-opacity:1"
         transform="matrix(0.33866276,0,0,0.33866276,43.634911,1017.6519)">
        <path
           sodipodi:nodetypes="cc"
           inkscape:connector-curvature="0"
           id="path812"
           d="m 95.091973,56.172243 0.09447,79.795097"
           style="fill:none;fill-rule:evenodd;stroke:#37c8ab;stroke-width:16;stroke-linecap:round;stroke-linejoin:miter;stroke-miterlimit:4;stroke-dasharray:none;stroke-opacity:1" />
        <path
           sodipodi:nodetypes="cc"
           inkscape:connector-curvature="0"
           id="path812-3"
           d="m 134.96147,95.594487 -79.795108,0.0945"
           style="fill:none;fill-rule:evenodd;stroke:#37c8ab;stroke-width:16;stroke-linecap:round;stroke-linejoin:miter;stroke-miterlimit:4;stroke-dasharray:none;stroke-opacity:1" />
      </g>
    </g>
  </g>
</svg>
