<?xml version="1.0" encoding="UTF-8" standalone="no"?>
<!-- Created with Inkscape (http://www.inkscape.org/) -->

<svg
   xmlns:dc="http://purl.org/dc/elements/1.1/"
   xmlns:cc="http://creativecommons.org/ns#"
   xmlns:rdf="http://www.w3.org/1999/02/22-rdf-syntax-ns#"
   xmlns:svg="http://www.w3.org/2000/svg"
   xmlns="http://www.w3.org/2000/svg"
   xmlns:xlink="http://www.w3.org/1999/xlink"
   xmlns:sodipodi="http://sodipodi.sourceforge.net/DTD/sodipodi-0.dtd"
   xmlns:inkscape="http://www.inkscape.org/namespaces/inkscape"
   version="1.1"
   id="svg2"
   width="192"
   height="192"
   viewBox="0 0 192 192"
   sodipodi:docname="pic.svg"
   inkscape:version="0.92.3 (2405546, 2018-03-11)">
  <metadata
     id="metadata8">
    <rdf:RDF>
      <cc:Work
         rdf:about="">
        <dc:format>image/svg+xml</dc:format>
        <dc:type
           rdf:resource="http://purl.org/dc/dcmitype/StillImage" />
        <dc:title />
      </cc:Work>
    </rdf:RDF>
  </metadata>
  <defs
     id="defs6">
    <linearGradient
       inkscape:collect="always"
       id="linearGradient816">
      <stop
         style="stop-color:#1db090;stop-opacity:1"
         offset="0"
         id="stop812" />
      <stop
         style="stop-color:#509fd7;stop-opacity:0.788"
         offset="1"
         id="stop814" />
    </linearGradient>
    <linearGradient
       inkscape:collect="always"
       xlink:href="#linearGradient816"
       id="linearGradient820"
       gradientUnits="userSpaceOnUse"
       x1="97.887009"
       y1="158.79446"
       x2="98.180786"
       y2="39.201252" />
  </defs>
  <sodipodi:namedview
     pagecolor="#ffffff"
     bordercolor="#666666"
     borderopacity="1"
     objecttolerance="10"
     gridtolerance="10"
     guidetolerance="10"
     inkscape:pageopacity="0"
     inkscape:pageshadow="2"
     inkscape:window-width="1851"
     inkscape:window-height="1025"
     id="namedview4"
     showgrid="false"
     inkscape:zoom="1.2291667"
     inkscape:cx="-192"
     inkscape:cy="96.000006"
     inkscape:window-x="69"
     inkscape:window-y="27"
     inkscape:window-maximized="1"
     inkscape:current-layer="svg2" />
  <path
     style="fill:url(#linearGradient820);stroke-width:1.33333337;fill-opacity:1"
     d="m 34,170.00247 c -1.466667,-0.6178 -4.166667,-2.73724 -6,-4.70985 l -3.333333,-3.58656 V 99.17246 36.638853 l 4.358974,-4.358975 4.358975,-4.358974 H 96 158.61539 l 4.35897,4.358974 4.35897,4.358975 v 62.615384 62.615383 l -4.35798,4.35897 -4.358,4.35897 -60.975342,0.2691 C 64.105569,171.00466 35.466667,170.62028 34,170.00247 Z M 134.51609,123.9209 c -9.63117,-12.83333 -17.99545,-23.33333 -18.5873,-23.33333 -0.59184,0 -6.89532,7.5 -14.00772,16.66667 -7.112399,9.16666 -13.402486,16.66666 -13.977969,16.66666 -0.575482,0 -5.049877,-4.8 -9.943101,-10.66667 -4.893224,-5.86666 -9.395195,-10.66666 -10.004381,-10.66666 -0.609186,0 -5.174263,5.25 -10.144615,11.66666 -4.970352,6.41667 -11.092431,14.21667 -13.60462,17.33333 l -4.567616,5.66667 h 56.174268 56.174274 z"
     id="path817"
     inkscape:connector-curvature="0" />
</svg>
