<?xml version="1.0" encoding="UTF-8" standalone="no"?>
<svg
   xmlns:dc="http://purl.org/dc/elements/1.1/"
   xmlns:cc="http://creativecommons.org/ns#"
   xmlns:rdf="http://www.w3.org/1999/02/22-rdf-syntax-ns#"
   xmlns:svg="http://www.w3.org/2000/svg"
   xmlns="http://www.w3.org/2000/svg"
   xmlns:sodipodi="http://sodipodi.sourceforge.net/DTD/sodipodi-0.dtd"
   xmlns:inkscape="http://www.inkscape.org/namespaces/inkscape"
   width="48"
   height="48"
   viewBox="0 0 48 48"
   version="1.1"
   id="svg4"
   sodipodi:docname="ic_extension_48px.svg"
   inkscape:version="0.92.3 (2405546, 2018-03-11)">
  <metadata
     id="metadata10">
    <rdf:RDF>
      <cc:Work
         rdf:about="">
        <dc:format>image/svg+xml</dc:format>
        <dc:type
           rdf:resource="http://purl.org/dc/dcmitype/StillImage" />
      </cc:Work>
    </rdf:RDF>
  </metadata>
  <defs
     id="defs8" />
  <sodipodi:namedview
     pagecolor="#ffffff"
     bordercolor="#666666"
     borderopacity="1"
     objecttolerance="10"
     gridtolerance="10"
     guidetolerance="10"
     inkscape:pageopacity="0"
     inkscape:pageshadow="2"
     inkscape:window-width="1055"
     inkscape:window-height="803"
     id="namedview6"
     showgrid="false"
     inkscape:zoom="4.9166667"
     inkscape:cx="21.050847"
     inkscape:cy="24"
     inkscape:window-x="69"
     inkscape:window-y="27"
     inkscape:window-maximized="0"
     inkscape:current-layer="svg4" />
  <path
     d="M41 22h-3v-8c0-2.21-1.79-4-4-4h-8V7c0-2.76-2.24-5-5-5s-5 2.24-5 5v3H8c-2.21 0-3.98 1.79-3.98 4l-.01 7.6H7c2.98 0 5.4 2.42 5.4 5.4S9.98 32.4 7 32.4H4.01L4 40c0 2.21 1.79 4 4 4h7.6v-3c0-2.98 2.42-5.4 5.4-5.4 2.98 0 5.4 2.42 5.4 5.4v3H34c2.21 0 4-1.79 4-4v-8h3c2.76 0 5-2.24 5-5s-2.24-5-5-5z"
     id="path2"
     style="fill:#999999;fill-opacity:1" />
</svg>
