<?xml version="1.0" encoding="UTF-8" standalone="no"?>
<!-- Created with Inkscape (http://www.inkscape.org/) -->

<svg
   version="1.1"
   id="svg2"
   width="192"
   height="192"
   viewBox="0 0 192 192"
   sodipodi:docname="remedial_action_group.svg"
   inkscape:version="1.2.2 (b0a8486541, 2022-12-01)"
   xml:space="preserve"
   xmlns:inkscape="http://www.inkscape.org/namespaces/inkscape"
   xmlns:sodipodi="http://sodipodi.sourceforge.net/DTD/sodipodi-0.dtd"
   xmlns="http://www.w3.org/2000/svg"
   xmlns:svg="http://www.w3.org/2000/svg"
   xmlns:rdf="http://www.w3.org/1999/02/22-rdf-syntax-ns#"
   xmlns:cc="http://creativecommons.org/ns#"
   xmlns:dc="http://purl.org/dc/elements/1.1/"><metadata
     id="metadata8"><rdf:RDF><cc:Work
         rdf:about=""><dc:format>image/svg+xml</dc:format><dc:type
           rdf:resource="http://purl.org/dc/dcmitype/StillImage" /><dc:title /></cc:Work></rdf:RDF></metadata><defs
     id="defs6" /><sodipodi:namedview
     pagecolor="#ffffff"
     bordercolor="#666666"
     borderopacity="1"
     objecttolerance="10"
     gridtolerance="10"
     guidetolerance="10"
     inkscape:pageopacity="0"
     inkscape:pageshadow="2"
     inkscape:window-width="2509"
     inkscape:window-height="1011"
     id="namedview4"
     showgrid="false"
     inkscape:zoom="1.7383042"
     inkscape:cx="-29.338938"
     inkscape:cy="55.513874"
     inkscape:window-x="51"
     inkscape:window-y="32"
     inkscape:window-maximized="1"
     inkscape:current-layer="svg2"
     inkscape:showpageshadow="2"
     inkscape:pagecheckerboard="0"
     inkscape:deskcolor="#d1d1d1" /><ellipse
     style="fill:none;stroke:#999999;stroke-width:3.56599946;stroke-linecap:round;stroke-linejoin:round;paint-order:markers stroke fill;stroke-dasharray:none"
     id="path36597"
     cx="97.009056"
     cy="98.941559"
     rx="88.537628"
     ry="86.564178" /><path
     style="fill:#aeaeae;fill-opacity:1;stroke-width:0.300662"
     d="m 43.762269,118.54341 c -2.141082,-0.3955 -4.725005,-1.99817 -6.096454,-3.78127 -2.742214,-3.56532 -3.076374,-8.28293 -0.864241,-12.20119 0.396757,-0.70277 4.885767,-5.443597 17.494677,-18.476099 L 71.25723,66.554096 71.076018,66.063889 c -0.432955,-1.171216 -0.971614,-3.952525 -1.127871,-5.823675 -1.047203,-12.540003 7.432606,-24.064191 19.480622,-26.474452 2.39548,-0.479232 5.27174,-0.573636 7.62235,-0.250185 2.19823,0.302481 4.019141,0.793325 4.601641,1.240404 1.03252,0.792487 1.41558,2.157973 0.9023,3.21632 -0.15202,0.313472 -2.789281,3.168896 -5.860561,6.345385 l -5.58414,5.775441 1.19474,4.315206 1.19475,4.315208 4.18137,1.231064 4.181391,1.231066 5.76575,-5.926981 c 5.01064,-5.150739 5.84523,-5.9421 6.37255,-6.04245 0.85012,-0.161777 1.64528,0.02833 2.22596,0.532195 0.65155,0.565352 0.86368,1.023235 1.26325,2.726686 1.29427,5.517866 0.61584,11.661393 -1.84626,16.718781 -4.50723,9.258322 -13.72541,14.637899 -23.657641,13.806216 -1.72616,-0.144545 -5.359927,-0.923886 -5.893618,-1.264016 -0.08837,-0.05629 -7.816596,7.781793 -17.173827,17.418036 -18.318128,18.864302 -17.596486,18.181592 -20.146336,19.059572 -1.193385,0.41092 -3.683448,0.57479 -5.010169,0.3297 z"
     id="path300" /><path
     style="fill:#aeaeae;fill-opacity:1;stroke-width:0.300662"
     d="m 83.752909,166.92659 c -2.141082,-0.3955 -4.725005,-1.99817 -6.096454,-3.78127 -2.742214,-3.56532 -3.076374,-8.28293 -0.864241,-12.20119 0.396757,-0.70277 4.885767,-5.44359 17.494681,-18.4761 l 16.960965,-17.53075 -0.18121,-0.4902 c -0.43295,-1.17122 -0.97161,-3.95253 -1.12787,-5.82368 -1.0472,-12.540002 7.43261,-24.06419 19.48062,-26.474451 2.39548,-0.479232 5.27174,-0.573636 7.62235,-0.250185 2.19823,0.302481 4.01914,0.793325 4.60164,1.240404 1.03252,0.792487 1.41558,2.157973 0.9023,3.21632 -0.15202,0.313472 -2.78928,3.168896 -5.86056,6.345385 l -5.58414,5.775441 1.19474,4.315206 1.19475,4.31521 4.18137,1.23106 4.18139,1.23107 5.76575,-5.92698 c 5.01064,-5.150742 5.84523,-5.942103 6.37255,-6.042453 0.85012,-0.161777 1.64528,0.02833 2.22596,0.532195 0.65155,0.565352 0.86368,1.023235 1.26325,2.726688 1.29427,5.51786 0.61584,11.66139 -1.84626,16.71878 -4.50723,9.25832 -13.72541,14.63789 -23.65764,13.80621 -1.72616,-0.14454 -5.35992,-0.92388 -5.89361,-1.26401 -0.0884,-0.0563 -7.8166,7.78179 -17.17383,17.41803 -18.318124,18.8643 -17.596485,18.18159 -20.146332,19.05957 -1.193385,0.41092 -3.683448,0.57479 -5.010169,0.3297 z"
     id="path300-7" /></svg>
