<?xml version="1.0" encoding="UTF-8" standalone="no"?>
<!-- Created with Inkscape (http://www.inkscape.org/) -->

<svg
   version="1.1"
   id="svg2"
   width="192"
   height="192"
   viewBox="0 0 192 192"
   sodipodi:docname="technology.svg"
   inkscape:version="1.2.2 (b0a8486541, 2022-12-01)"
   xml:space="preserve"
   xmlns:inkscape="http://www.inkscape.org/namespaces/inkscape"
   xmlns:sodipodi="http://sodipodi.sourceforge.net/DTD/sodipodi-0.dtd"
   xmlns="http://www.w3.org/2000/svg"
   xmlns:svg="http://www.w3.org/2000/svg"
   xmlns:rdf="http://www.w3.org/1999/02/22-rdf-syntax-ns#"
   xmlns:cc="http://creativecommons.org/ns#"
   xmlns:dc="http://purl.org/dc/elements/1.1/"><metadata
     id="metadata8"><rdf:RDF><cc:Work
         rdf:about=""><dc:format>image/svg+xml</dc:format><dc:type
           rdf:resource="http://purl.org/dc/dcmitype/StillImage" /><dc:title /></cc:Work></rdf:RDF></metadata><defs
     id="defs6" /><sodipodi:namedview
     pagecolor="#ffffff"
     bordercolor="#666666"
     borderopacity="1"
     objecttolerance="10"
     gridtolerance="10"
     guidetolerance="10"
     inkscape:pageopacity="0"
     inkscape:pageshadow="2"
     inkscape:window-width="2509"
     inkscape:window-height="1011"
     id="namedview4"
     showgrid="false"
     inkscape:zoom="1.7383042"
     inkscape:cx="-29.914211"
     inkscape:cy="54.9386"
     inkscape:window-x="51"
     inkscape:window-y="32"
     inkscape:window-maximized="1"
     inkscape:current-layer="svg2"
     inkscape:showpageshadow="2"
     inkscape:pagecheckerboard="0"
     inkscape:deskcolor="#d1d1d1" /><path
     style="fill:#aeaeae;fill-opacity:1;stroke-width:0.300662"
     d="m 47.259911,172.02108 c -3.247974,-0.59997 -7.167727,-3.03118 -9.248185,-5.7361 -4.159878,-5.40851 -4.666791,-12.56503 -1.311034,-18.50893 0.601871,-1.06609 7.411599,-8.25782 26.539034,-28.02782 L 88.969153,93.154466 88.694257,92.410833 C 88.037475,90.634124 87.22034,86.414941 86.983302,83.576449 85.394719,64.553544 98.258403,47.071609 116.53497,43.415296 c 3.6339,-0.726984 7.99711,-0.870192 11.56294,-0.379525 3.33466,0.458857 6.09696,1.203456 6.98058,1.881665 1.56632,1.202185 2.14742,3.273597 1.36878,4.879086 -0.23062,0.475529 -4.23127,4.807145 -8.89034,9.625807 l -8.47102,8.761215 1.8124,6.54607 1.8124,6.546075 6.34306,1.867498 6.34306,1.867498 8.74652,-8.991098 c 7.60102,-7.813555 8.86708,-9.014032 9.66702,-9.166261 1.28961,-0.245412 2.49584,0.04298 3.37673,0.807328 0.98839,0.857626 1.31019,1.552225 1.91632,4.136321 1.96338,8.370481 0.93422,17.690074 -2.80073,25.362018 -6.83738,14.044667 -20.82115,22.205367 -35.88812,20.943717 -2.61855,-0.21927 -8.13089,-1.40151 -8.94049,-1.91748 -0.13406,-0.0854 -11.857595,11.8048 -26.052313,26.42276 -27.788192,28.61672 -26.693476,27.58106 -30.561542,28.91295 -1.810338,0.62335 -5.587709,0.87193 -7.600314,0.50014 z"
     id="path300" /></svg>
