<?xml version="1.0" encoding="UTF-8" standalone="no"?>
<svg
   inkscape:version="1.1.2 (0a00cf5339, 2022-02-04)"
   sodipodi:docname="to_series_reactance.svg"
   id="svg6"
   version="1.1"
   viewBox="0 0 48 48"
   height="48"
   width="48"
   xmlns:inkscape="http://www.inkscape.org/namespaces/inkscape"
   xmlns:sodipodi="http://sodipodi.sourceforge.net/DTD/sodipodi-0.dtd"
   xmlns="http://www.w3.org/2000/svg"
   xmlns:svg="http://www.w3.org/2000/svg"
   xmlns:rdf="http://www.w3.org/1999/02/22-rdf-syntax-ns#"
   xmlns:cc="http://creativecommons.org/ns#"
   xmlns:dc="http://purl.org/dc/elements/1.1/">
  <g
     transform="matrix(0,-0.7304881,0.7304881,0,9.105132,41.714166)"
     id="g922">
    <g
       id="g9042"
       transform="translate(3.1489027,-1.0076183)">
      <path
         id="path836-6"
         d="m 21.001561,-5.9349841 0.01969,6.87758854 m 0.0014,-3.69855404"
         style="fill:none;stroke:#aeaeae;stroke-width:2.7496;stroke-linecap:round;stroke-linejoin:round;stroke-miterlimit:4;stroke-dasharray:none;stroke-opacity:1"
         inkscape:connector-curvature="0"
         sodipodi:nodetypes="cc" />
      <path
         id="path836-6-1"
         d="m 20.219094,42.72606 0.01969,6.877589 m 0.0014,-3.698554"
         style="fill:none;stroke:#aeaeae;stroke-width:2.7496;stroke-linecap:round;stroke-linejoin:round;stroke-miterlimit:4;stroke-dasharray:none;stroke-opacity:1"
         inkscape:connector-curvature="0"
         sodipodi:nodetypes="cc" />
      <path
         style="fill:#aeaeae;fill-opacity:1;stroke-width:0.140114"
         d="m 14.73109,10.328833 c 0.332319,-0.7315127 1.116421,-1.4081938 2.242181,-1.9349968 0.771746,-0.3611469 1.1141,-0.4326015 2.318501,-0.4839079 1.575035,-0.067094 2.428883,0.1569608 3.602838,0.9454034 0.333302,0.2238455 0.630442,0.3825502 0.660315,0.3526792 0.02984,-0.029873 -0.09162,-0.3570988 -0.270043,-0.7271664 C 22.820753,7.5180704 21.706012,6.4611443 20.595891,5.9313363 L 19.653984,5.4818041 V 0.15957172 -5.1626624 l 1.366107,0.040106 1.366107,0.040106 0.07006,4.36598705 0.07006,4.36598755 0.420343,0.3156347 c 1.26262,0.9481132 2.470613,2.3991925 3.042284,3.6545059 0.572555,1.2572596 0.592005,2.8124952 0.05139,4.1064232 -0.19023,0.455296 -0.186274,0.554293 0.04376,1.093534 0.681656,1.598163 0.759469,3.883433 0.177067,5.200052 l -0.296887,0.67117 0.30186,0.863688 c 0.208995,0.59796 0.320449,1.318521 0.362267,2.342012 0.05316,1.30053 0.01923,1.596573 -0.281513,2.461537 l -0.341933,0.983213 0.395875,0.99165 c 0.784456,1.965055 0.801276,3.908842 0.04718,5.450179 l -0.358897,0.733577 0.301308,0.886383 c 0.204818,0.602524 0.302092,1.234645 0.303751,1.973882 0.0022,0.94123 -0.05736,1.208991 -0.442226,1.990738 -0.695415,1.412569 -2.0819,2.402277 -3.867841,2.760943 l -0.768465,0.15433 v 4.329251 4.329252 l -1.366107,-0.04011 -1.366107,-0.04011 -0.03658,-5.621509 -0.03658,-5.621508 1.507798,-0.0728 c 1.797745,-0.0868 2.668193,-0.362446 3.255004,-1.030792 0.349271,-0.397789 0.424554,-0.605437 0.424554,-1.170959 0,-0.378082 -0.05194,-0.71952 -0.115411,-0.758747 -0.06343,-0.03924 -0.520591,0.06063 -1.015819,0.221905 -2.406293,0.783631 -5.716157,0.06184 -7.188204,-1.567534 -1.413274,-1.564323 -0.742736,-3.444898 1.620844,-4.545796 l 0.937608,-0.436714 -0.828243,-0.321158 c -0.455541,-0.176639 -1.140888,-0.602246 -1.522993,-0.945797 -1.10979,-0.997796 -1.382541,-2.136096 -0.784534,-3.274136 0.287316,-0.54676 1.181802,-1.350044 2.002573,-1.798379 l 0.742008,-0.405312 -0.632985,-0.24174 c -0.854126,-0.326191 -1.95513,-1.341557 -2.247762,-2.072939 -0.592337,-1.4804 0.470494,-3.180624 2.587715,-4.13958 l 0.77062,-0.349043 -0.498057,-0.175917 c -1.552445,-0.54833 -2.52838,-1.267779 -2.997935,-2.210041 -0.421482,-0.845808 -0.440225,-1.23582 -0.09582,-1.993933 z m 3.89272,1.468594 c 1.001308,0.309272 2.459506,0.372912 3.086103,0.134684 l 0.392803,-0.149346 -0.348663,-0.275761 C 21.029705,10.9341 20.371645,10.68032 19.61042,10.68032 c -1.055904,0 -2.172711,0.401835 -1.980625,0.712643 0.04089,0.06624 0.488243,0.248248 0.994015,0.404464 z m 0.07946,7.093447 c 0.854976,0.306357 2.300598,0.268341 3.1179,-0.08199 0.593221,-0.254284 0.645538,-0.311253 0.475677,-0.51805 -0.104989,-0.127793 -0.471158,-0.410735 -0.813754,-0.628761 -1.007187,-0.640953 -2.352495,-0.520374 -3.527268,0.316143 -0.413214,0.294228 -0.415723,0.303364 -0.136971,0.498611 0.156179,0.109388 0.554165,0.295712 0.884416,0.414052 z m 0.0158,6.591799 c 0.398649,0.135243 1.071596,0.24793 1.495442,0.25041 0.847881,0.005 2.145347,-0.416413 2.06403,-0.67033 -0.02829,-0.0885 -0.391222,-0.365822 -0.806382,-0.616277 -1.088616,-0.656705 -2.329741,-0.605534 -3.400187,0.140193 -0.498555,0.347318 -0.345492,0.559256 0.647097,0.896004 z m -0.0056,6.471829 c 1.078393,0.403478 1.915532,0.493522 2.82771,0.304155 l 0.799972,-0.166072 -0.306645,-0.326405 c -0.537246,-0.571871 -1.62953,-0.95233 -2.429436,-0.84622 -0.806979,0.107045 -1.632702,0.420642 -1.632702,0.620063 0,0.07547 0.333501,0.261974 0.741101,0.414479 z m 5.108359,-2.355172 0.385598,0.304691 0.04421,-0.438156 c 0.02432,-0.240986 -0.02741,-0.783252 -0.115024,-1.205037 -0.151615,-0.730358 -0.303451,-0.927984 -0.486022,-0.632591 -0.04564,0.07385 -0.457962,0.271012 -0.916267,0.438119 l -0.833281,0.303826 0.767613,0.462227 c 0.422178,0.254224 0.941122,0.599339 1.1532,0.766921 z m -0.810957,-14.287889 0.887755,0.573783 -0.08708,-0.735218 c -0.04785,-0.404369 -0.136044,-0.782471 -0.195887,-0.840223 -0.0925,-0.08926 -1.609428,0.30497 -1.523028,0.395823 0.0168,0.01763 0.42997,0.290254 0.918235,0.605835 z m 0.964795,7.184079 c 0.06996,-0.315708 -0.120561,-1.471578 -0.234115,-1.420163 -0.05272,0.02388 -0.395964,0.162662 -0.762719,0.308399 l -0.666823,0.264978 0.807587,0.532732 c 0.640743,0.422661 0.817622,0.48755 0.85607,0.314054 z"
         id="path2989" />
    </g>
  </g>
  <metadata
     id="metadata12">
    <rdf:RDF>
      <cc:Work
         rdf:about="">
        <dc:format>image/svg+xml</dc:format>
        <dc:type
           rdf:resource="http://purl.org/dc/dcmitype/StillImage" />
      </cc:Work>
    </rdf:RDF>
  </metadata>
  <defs
     id="defs10">
    <inkscape:path-effect
       effect="skeletal"
       id="path-effect2672"
       is_visible="true"
       lpeversion="1"
       pattern="M 0,18.867925 C 0,8.4528302 8.4528302,0 18.867925,0 c 10.415094,0 18.867924,8.4528302 18.867924,18.867925 0,10.415094 -8.45283,18.867924 -18.867924,18.867924 C 8.4528302,37.735849 0,29.283019 0,18.867925 Z"
       copytype="single_stretched"
       prop_scale="1"
       scale_y_rel="false"
       spacing="0"
       normal_offset="0"
       tang_offset="0"
       prop_units="false"
       vertical_pattern="false"
       hide_knot="false"
       fuse_tolerance="0" />
    <inkscape:path-effect
       effect="simplify"
       id="path-effect2670"
       is_visible="true"
       lpeversion="1"
       steps="1"
       threshold="0.000736842"
       smooth_angles="360"
       helper_size="0"
       simplify_individual_paths="false"
       simplify_just_coalesce="false" />
    <inkscape:path-effect
       effect="skeletal"
       id="path-effect2633"
       is_visible="true"
       lpeversion="1"
       pattern="M 0,18.867925 C 0,8.4528302 8.4528302,0 18.867925,0 c 10.415094,0 18.867924,8.4528302 18.867924,18.867925 0,10.415094 -8.45283,18.867924 -18.867924,18.867924 C 8.4528302,37.735849 0,29.283019 0,18.867925 Z"
       copytype="single_stretched"
       prop_scale="1"
       scale_y_rel="false"
       spacing="0"
       normal_offset="0"
       tang_offset="0"
       prop_units="false"
       vertical_pattern="false"
       hide_knot="false"
       fuse_tolerance="0" />
    <inkscape:path-effect
       effect="simplify"
       id="path-effect2631"
       is_visible="true"
       lpeversion="1"
       steps="1"
       threshold="0.000736842"
       smooth_angles="360"
       helper_size="0"
       simplify_individual_paths="false"
       simplify_just_coalesce="false" />
  </defs>
  <sodipodi:namedview
     inkscape:document-rotation="0"
     inkscape:current-layer="g922"
     inkscape:window-maximized="1"
     inkscape:window-y="27"
     inkscape:window-x="55"
     inkscape:cy="30.785047"
     inkscape:cx="20.411215"
     inkscape:zoom="8.9166667"
     showgrid="false"
     id="namedview8"
     inkscape:window-height="1016"
     inkscape:window-width="2505"
     inkscape:pageshadow="2"
     inkscape:pageopacity="0"
     guidetolerance="10"
     gridtolerance="10"
     objecttolerance="10"
     borderopacity="1"
     bordercolor="#666666"
     pagecolor="#ffffff"
     inkscape:pagecheckerboard="0" />
  <path
     fill="none"
     id="path2"
     d="M 3.4923116,-0.39297537 H 51.492312 V 47.607024 H 3.4923116 Z" />
</svg>
