<?xml version="1.0" encoding="UTF-8" standalone="no"?>
<!-- Created with Inkscape (http://www.inkscape.org/) -->

<svg
   version="1.1"
   id="svg2"
   width="192"
   height="192"
   viewBox="0 0 192 192"
   sodipodi:docname="transpose.svg"
   inkscape:version="1.2.1 (9c6d41e, 2022-07-14)"
   xmlns:inkscape="http://www.inkscape.org/namespaces/inkscape"
   xmlns:sodipodi="http://sodipodi.sourceforge.net/DTD/sodipodi-0.dtd"
   xmlns="http://www.w3.org/2000/svg"
   xmlns:svg="http://www.w3.org/2000/svg"
   xmlns:rdf="http://www.w3.org/1999/02/22-rdf-syntax-ns#"
   xmlns:cc="http://creativecommons.org/ns#"
   xmlns:dc="http://purl.org/dc/elements/1.1/">
  <metadata
     id="metadata8">
    <rdf:RDF>
      <cc:Work
         rdf:about="">
        <dc:format>image/svg+xml</dc:format>
        <dc:type
           rdf:resource="http://purl.org/dc/dcmitype/StillImage" />
        <dc:title />
      </cc:Work>
    </rdf:RDF>
  </metadata>
  <defs
     id="defs6" />
  <sodipodi:namedview
     pagecolor="#ffffff"
     bordercolor="#666666"
     borderopacity="1"
     objecttolerance="10"
     gridtolerance="10"
     guidetolerance="10"
     inkscape:pageopacity="0"
     inkscape:pageshadow="2"
     inkscape:window-width="1389"
     inkscape:window-height="847"
     id="namedview4"
     showgrid="false"
     inkscape:zoom="3.2578125"
     inkscape:cx="45.275779"
     inkscape:cy="108.96882"
     inkscape:window-x="51"
     inkscape:window-y="25"
     inkscape:window-maximized="1"
     inkscape:current-layer="g833"
     inkscape:pagecheckerboard="0"
     inkscape:showpageshadow="2"
     inkscape:deskcolor="#d1d1d1" />
  <g
     id="g893"
     transform="matrix(0.34525501,0,0,0.34525501,12.167256,11.139857)">
    <g
       id="g835">
      <g
         id="g833">
        <path
           d="m 382.4829,36.012634 h -43.8 c -6.8,0 -12.3,5.499999 -12.3,12.299999 0,6.8 5.5,12.200001 12.3,12.200001 h 43.8 c 39.4,0 71.5,32.1 71.5,71.499996 v 61.9 l -16.2,-16.2 c -4.8,-4.8 -12.5,-4.8 -17.3,0 -4.8,4.8 -4.8,12.5 0,17.3 l 37.1,37.1 c 2.3,2.3 5.4,3.6 8.7,3.6 3.2,0 6.4,-1.3 8.7,-3.6 l 37.1,-37.1 c 4.8,-4.8 4.8,-12.5 0,-17.3 -4.8,-4.8 -12.5,-4.8 -17.3,0 l -16.2,16.2 v -61.9 c -0.1,-52.899996 -43.2,-95.999996 -96.1,-95.999996 z"
           id="path825"
           style="fill:#37c8ab;fill-opacity:1" />
        <path
           d="m 104.64989,484.11561 h 43.8 c 6.8,0 12.3,-5.5 12.3,-12.3 0,-6.8 -5.5,-12.2 -12.3,-12.2 h -43.8 c -39.399997,0 -71.499997,-32.1 -71.499997,-71.5 v -61.9 l 16.2,16.2 c 2.4,2.4 5.5,3.6 8.7,3.6 3.2,0 6.3,-1.2 8.7,-3.6 4.8,-4.8 4.8,-12.5 0,-17.3 l -37.1,-37.1 c -2.3,-2.3 -5.4,-3.6 -8.7,-3.6 -3.2,0 -6.4,1.3 -8.7,3.6 l -37.1,37.1 c -4.8,4.8 -4.8,12.5 0,17.3 4.8,4.8 12.5,4.8 17.3,0 l 16.2000001,-16.2 v 61.9 c 0,52.9 43.0999999,96 95.9999969,96 z"
           id="path829"
           style="fill:#37c8ab" />
        <path
           d="m 112.27805,408.44003 h 264.58966 c 8.39574,0 15.18643,-6.79068 15.18643,-15.18644 V 128.7874 c 0,-8.39575 -6.79069,-15.18643 -15.18643,-15.18643 H 112.27805 c -8.39576,0 -15.186441,6.79068 -15.186441,15.18643 v 264.58966 c 0.12347,8.39575 6.914151,15.06297 15.186441,15.06297 z M 127.46448,143.97384 H 361.80473 V 378.19063 H 127.46448 Z"
           id="path831"
           style="fill:#37c8ab;stroke-width:1.23467" />
      </g>
    </g>
    <g
       id="g837" />
    <g
       id="g839" />
    <g
       id="g841" />
    <g
       id="g843" />
    <g
       id="g845" />
    <g
       id="g847" />
    <g
       id="g849" />
    <g
       id="g851" />
    <g
       id="g853" />
    <g
       id="g855" />
    <g
       id="g857" />
    <g
       id="g859" />
    <g
       id="g861" />
    <g
       id="g863" />
    <g
       id="g865" />
  </g>
</svg>
