<?xml version="1.0" encoding="UTF-8" standalone="no"?>
<!-- Created with Inkscape (http://www.inkscape.org/) -->

<svg
   version="1.1"
   id="svg2"
   width="192"
   height="192"
   viewBox="0 0 192 192"
   sodipodi:docname="ml.svg"
   inkscape:version="1.1 (c68e22c387, 2021-05-23)"
   xmlns:inkscape="http://www.inkscape.org/namespaces/inkscape"
   xmlns:sodipodi="http://sodipodi.sourceforge.net/DTD/sodipodi-0.dtd"
   xmlns="http://www.w3.org/2000/svg"
   xmlns:svg="http://www.w3.org/2000/svg"
   xmlns:rdf="http://www.w3.org/1999/02/22-rdf-syntax-ns#"
   xmlns:cc="http://creativecommons.org/ns#"
   xmlns:dc="http://purl.org/dc/elements/1.1/">
  <metadata
     id="metadata8">
    <rdf:RDF>
      <cc:Work
         rdf:about="">
        <dc:format>image/svg+xml</dc:format>
        <dc:type
           rdf:resource="http://purl.org/dc/dcmitype/StillImage" />
        <dc:title />
      </cc:Work>
    </rdf:RDF>
  </metadata>
  <defs
     id="defs6" />
  <sodipodi:namedview
     pagecolor="#ffffff"
     bordercolor="#666666"
     borderopacity="1"
     objecttolerance="10"
     gridtolerance="10"
     guidetolerance="10"
     inkscape:pageopacity="0"
     inkscape:pageshadow="2"
     inkscape:window-width="1858"
     inkscape:window-height="1057"
     id="namedview4"
     showgrid="false"
     inkscape:zoom="3.2578125"
     inkscape:cx="45.275779"
     inkscape:cy="109.1223"
     inkscape:window-x="54"
     inkscape:window-y="-8"
     inkscape:window-maximized="1"
     inkscape:current-layer="g833"
     inkscape:pagecheckerboard="0" />
  <g
     id="g893"
     transform="matrix(0.34525501,0,0,0.34525501,12.167256,11.139857)">
    <g
       id="g835">
      <g
         id="g833">
        <path
           d="M 231.11788,260.56002 V 73.100259 c 0,-5.948327 -4.81115,-10.759473 -10.75947,-10.759473 H 32.986119 c -5.948327,0 -10.759473,4.811146 -10.759473,10.759473 V 260.56002 c 0,5.94833 4.811146,10.75947 10.759473,10.75947 H 220.44588 c 5.86085,-0.0875 10.672,-4.89862 10.672,-10.75947 z"
           id="path827"
           style="fill:#2c5aa0;stroke-width:0.874754"
           sodipodi:nodetypes="ssssssscs" />
        <path
           d="M 231.11788,478.5796 V 291.11984 c 0,-5.94833 -4.81115,-10.75948 -10.75947,-10.75948 H 32.986119 c -5.948327,0 -10.759473,4.81115 -10.759473,10.75948 V 478.5796 c 0,5.94832 4.811146,10.75947 10.759473,10.75947 H 220.44588 c 5.86085,-0.0875 10.672,-4.89862 10.672,-10.75947 z"
           id="path827-2"
           style="fill:#37c8ab;stroke-width:0.874754"
           sodipodi:nodetypes="ssssssscs" />
        <path
           d="M 449.70453,260.56002 V 73.100259 c 0,-5.948327 -4.81114,-10.759473 -10.75947,-10.759473 H 251.57277 c -5.94832,0 -10.75947,4.811146 -10.75947,10.759473 V 260.56002 c 0,5.94833 4.81115,10.75947 10.75947,10.75947 h 187.45976 c 5.86086,-0.0875 10.672,-4.89862 10.672,-10.75947 z"
           id="path827-4"
           style="fill:#00aad4;fill-opacity:1;stroke-width:0.874754"
           sodipodi:nodetypes="ssssssscs" />
        <path
           d="m 252.46187,489.33907 h 187.45976 c 5.94833,0 10.75948,-4.81115 10.75948,-10.75947 V 291.20731 c 0,-5.94832 -4.81115,-10.75947 -10.75948,-10.75947 H 252.46187 c -5.94832,0 -10.75947,4.81115 -10.75947,10.75947 v 187.45976 c 0.0875,5.94833 4.89862,10.672 10.75947,10.672 z"
           id="path831"
           style="fill:#ff6600;stroke-width:0.874754"
           sodipodi:nodetypes="ssssssscs" />
      </g>
    </g>
    <g
       id="g837" />
    <g
       id="g839" />
    <g
       id="g841" />
    <g
       id="g843" />
    <g
       id="g845" />
    <g
       id="g847" />
    <g
       id="g849" />
    <g
       id="g851" />
    <g
       id="g853" />
    <g
       id="g855" />
    <g
       id="g857" />
    <g
       id="g859" />
    <g
       id="g861" />
    <g
       id="g863" />
    <g
       id="g865" />
  </g>
</svg>
